<mxfile host="Electron" agent="Mozilla/5.0 (X11; Linux x86_64) AppleWebKit/537.36 (KHTML, like Gecko) draw.io/27.0.5 Chrome/134.0.6998.205 Electron/35.3.0 Safari/537.36" version="27.0.5">
  <diagram name="Page-1" id="-9CcuLIZId6jNpPD23-l">
    <mxGraphModel dx="839" dy="499" grid="1" gridSize="10" guides="1" tooltips="1" connect="1" arrows="1" fold="1" page="1" pageScale="1" pageWidth="1169" pageHeight="827" math="1" shadow="0">
      <root>
        <mxCell id="0" />
        <mxCell id="1" parent="0" />
        <mxCell id="GAHFu2KUQJFKBcCSpzko-1" value="" style="shape=image;aspect=fixed;image=data:image/png,iVBORw0KGgoAAAANSUhEUgAAAUMAAAFQCAIAAACqE4tlAAAACXBIWXMAAA7EAAAOxAGVKw4bAAAgAElEQVR4Xuy96ZckuXEn+DMD3D2OPCqrqruLzb5IUSTfzhtKT5r9oDf73vzzsx91cEcixZ4R2Ud1V1VW3pkR4e4AzPaDAR4ekZF1JElppzd/lRnlDgcMdgIGuHskqSoe8IAH/G8O3i54wAMe8L8hHiL5AQ/4IeAhkh/wgB8CHiL5AQ/4IeAhkh/wgB8CHiL5AQ/4IeAhkh/wgB8CHiL5AQ/4IeAhkh/wgB8CHiL5AQ/4IcBvF/xH4N/niVHrQ2l0XD4JQPkcY6uEdEfh/18x0iOATcX+aWDqfhPoXfqj/Pvu0PeUg963g50w/b1dJMWOHulhTn7AA34QeIjkBzzgh4CHSH7AA34IeIjkBzzgh4A//Y6XKui91v95Bf9OuLUbsFFA70xnhFskd+At2xC7Lr4TY+NKu2sAu8jfXRcAoHfWeAup2w1vl6xxm9ifFraH9h+A2zoYcJul2yV34E2qHIN2a3ZdtouK/hkiGYAIVG1DWgEiIscjBhT5yvtAd7egjVHjrogBUPrfojMMO+OGCkA1a3Tg1dhG2VK1nkvjW4PXxvn2xbug615G2DLtBrHMy62SO7BFahu3r90uuRM7OL8X3lVZ78DcJqk3EL5F6Q2KegMZALD7MKpQBVTVjApiZsJtP9mC9WuVBgZuTyQ7qPzpI5nIZCAVUVUQmKA8EuGWlt4mHjT/lnb23yAvrc/eiqGR/djxNkelLwtaHSYH3dB0Br0fA2NsNbF+aEdI3IP2XbiT1K1OM7bl/TPhz9rHYND36GVn1Z2Ft1BUqaqiknsmJrwLAasxeKWdvkOzP9e9XEUSiAAAERyD/rgluSjy+LbNrwKbE6RVsPl5UwNqPwpBpgZSLWkclUYwgpopDDRoRG/wiYGdtyv7T42xJobe783P7Ya3S96Mbcv8xyFzMhoT126zOVBS8RMz6OAJfzwGZ1OFqhpVIvAdgbDZtfGYW73LQuP+c/JYHSJiHHvP1qcoREEEYnBRU+HrvaFYt6TS9aggQzGyU1HFcNm0IWU4UIVCtyOZrCtSgJSM4dydVSp9m2cM+jbcXzpjWy2dyccD+S2yRSYaLhBGjOWy2w9W6C5SMLkxujY0vF0yxi5S697fgtx4q7qOSoyrt2n0Df29cam1Axu1CydbkuubuFqXjq4TYTx0mH3z8PHueIfa94zksXwKFVVJKqpEzAwR9H0KIQAgImYWEVUVEUBGTe06AeNltGFQJY1GNNPEGmTV7B8AJS2kSq6hVm04UaiWQVJVlNZ1CAMXpmr7ZBCgZIwCZf2cSeXmm6mNbq1sFKw7PCBXszFFRY2MqgxkC50xNeP4HWx7C1ld44J7k9qQbyh7Fw8dS7RFRTM7il0ucRu3VYqsN8vRBqOBRmelzGoPWlcFxJwDqqBBV2MmuQTzLqwJExGY2Xn23jnHzjnH3q6LEgH8Lqp6H9wnu1bAJCdiABZHXMQICRcX1yevT46Pj4+Pj1dtqyJpBNGU2wAAEYhoy2xZgwpQmdCZcw9rg1jNjWgitWa5IFewmuU/NaNlm0GVUMbNkSoUAEHNY3NXVmQ9ZIPnfssBQEWfQzArACI1Ry8wijkeiEwLRMTEKMfWmrYYs7QB2NTYu8BGrREpDNTel9RdkYy3kTIdaJHoNpWhhMrPG7EdVxvjUtbg6KxcvFVp4EcHCoXJDfLvyJWK6sH+/uGjgydPHh8c7h8eHB4+ejSdTL33gBZzb9OyYwJG+hmVvRHvOicXdSjywGUr4PJbBqPXZ9cvXrz4+utvXnz/4tWr45OT067rzNNFREWSyOD47wQiEMEkRz4oHY+ZQh4a7GOgr6XIMISsqqiIKmB5hAmgqkbIwtSK7DcPebnaaPTO9IYeynBjn/ZfthuggKoYR4QiDWiI5HwEsp7sKG+VWN9jcfK5qnEDgMBkAjGAJKKi7BhEUM17kArnHRGllExgYoZqEmFi68xs5JyDqojCZGEmQBUiRQRiImKi0v0mb7fOTctEUOsh76MM5rXrW8iCA7CxaBO3S3Ygc7cNAtSUXzgt1XZTtav5mokyXFuDsvpms9n+wd7R0aPDw/2jR48/evbs2UfPPvrow7qumSmlyMyOeUxIC09r3tYX34J3iuSxGkQliXkAHEDEACsQBSGk3/zmN3//9//w63/69ctXx9dX18yO2TGzc3ZAABFtJAKqeivlhnE/aFdVzfawf0Qm85anEMz1b2FkAmIyT4oxppQA8t5775kJgLm68VT83gBk4jnbF0uCFbCwM2dkLp+WQ1hoMDM5xwBUJaVkDdnqEVswmnD2n93FsyAhIsfMzMSsMO/XQXKFSsopDwBTdVVVznki6ro+xtBMJiCSJDFESUmB6XTinG+7VYoJkKqqRKTruqqqnHNEFGNU1aZpVLXvAwAjC5CqhD5aeDv2zjnnnIiopszRCKYhVQWB8ihDRARoSinGqAoi4gxH61g2jWuJbwKwK5K3QOVnDUU26qjMKlAp3HSjdcl2d6pKBEs+djBWkhLzhZPTM0Cc56ap9/f2f/zjT371n381mUyePHnM7Luur7xH5R0zlUnJGCq9EqCag/nteHskj2RVAETkHNvMmiSZeWKSk5PTP/zh63/4h3/853/5zTffftv3gdhZSqlgWyiqMhGpWgaa1aeQkU4NedGaV64EAHknzS6uLTF85isMJdJN01CpY+ZUBYi0bhwRQ2HRKgJA1R56My6ZYR5Q3NEcgsDE5NnluB0N6WPetKTBSSGiSRNBiYjYOdh4VjIEWEa99lOGsUyE7C8C1aQCVVGCBbNVAYh8VfmqAjKzMaaYhIm9r6qmEREFmF3deOsxiUSJvmqqGjZZO6CZTGw7A0DjPRGJCBFNplPTUkq5X1/XBEZZSaSsQxOJCtNk7CMzCsqDHYigqsSO2KvFOgAyIla7JOEWOVm574Zd0a5q697hHLkXO9m1VAAsvDI1swIgCuRpZJAO2UXXNImIuKodoAppuz6Ec0k6qSdNXX/2+WdPnz6ZzWZmCADsyKZmIzziJku/Q6RbeHsk3waBHUMgMSRABbJYLJ5/990//tM//ctvfvuHr746PTuv62Y6mYlmmxhMSuN2VE4bixsgqyaPc5Q/iMwVzCOAwR7rtgQhwjrrztfGBcP9PfXeO+cAijGGEPN6IVMjMh0WGxMANa9TAETMJZJB5TqAHPrrHhVqYwAgZLsgNv0Qq6ja3TDrDUQmOGAMZB9XqIoIxHLozL9Yr2QTmnPMDgQVSUlSjCLCjKp2dV23XaciIGaykRR9WKWUptOpcwxoCD0z103T98FmY++dY45tR0Tee4BEJCYBlIi888yOlFISERGVwbJKCktFiqVKbGejlU8lUmKXZcpaykRMBYMqchs73xWoGyjm2CzibJ9ccLvC6OpQuCY12IXL+AyAlAZ+7FONFIFA5JwHqaTYx74NXQipqhtXeVEl5tl8DkAswyIm5ttsDRgzd1ed+0QyAAYzWD0AilFOTk9///s//I9//uevv/nm4uLCeCVmJAVQZubssACUBl+3kB6rcq07RY6nokmLeSu0si25CJnQJjWydFwVNtubxsvVTGcgdfsAgD2kQ8QEhajGlCRGcz8CstcW3wUR7NyWnYVfzS5sCgFsJjMZrZdyYAKoQqXAfJ4UsJ+s0NyciezTYlbUmDHKCkA1SjLm+z6kFNm5lBiUI5mI+j7EFNXWzMxd3zOxgrzz1h8A2PZkGdQM1pcpVgHNcwwRSImQmQR0GEmJiJgJbANdDmfTG4CRjCDrdyNm7sJQZ6imqk7vWL4Nah5fGGHdY6m9HkYzw7ehUALM40B2M0UVfR9OTk5UdT6fPzo6+vGPPybHUJWUJWWmd3nL2Pq8rYV7RjKKmmOUxXL58uXL777//vj4dUypmUyrWgnUh2CTUNFsjsPc1kAEVQU2eVtrMHu8KS378eDtNj6OG1pKq4AW+wNKpYEFce48xpSSmJaJiMhB8+RiFoNKniusQUGOEIU1M87sJHOE3D+h5JtExGQKSKqSEqnkqxlFC7f3EDTPW7ncHAUEE0SRRCWmpMrl4RvnKwciUIwpxhYEAqnCfgBMpzMC8k4/WbaMEBMxe64AKCBA00zsOIkA5Jw3llJKAgGIQCAw2LQqgOlBkRNv6LDIKOdQVYEqyvrflGY/RR1rFQC3cqx3wViJJuRduPsKsGZkzJDpfhh8ASrmyEYRtR3RBIKq+qrxvoYqs+9DuLi8Ojk9PTk925vPmqbyzqlAkACGbSOMutroF8Dd/N4zkgWqAIFijIubxavj4+Pj1zc3C8d+PtuLMbVt1/fR+4ryKEsAme9sMGNktpKfXIHydeT/zZfLrRsgx82W4Iri6kQY9J0XPWTlBGhKUrZtHDvHTKqqSaCWHkHBtr2tqliHkw7ZrM1jijzMGDtUeC5yW3ZC7FihqppSSiJQZWImkA0KoxHDuhupY3wyFpYAKEhFTRpL2onIs2NmKCxbts1SC2cAqjSdTpxzbdemFEHqvVPRvu+888OOl6g0k4kqQh9ElUDOOQCqEmOCKsH6Y2ISVVWB2oYiAcCgF7ED+wGgqpIkASSOvfPs2CQ2PVidIh+gtlZeF78R2QKjEtpU4BYI2QPvrLHjkt6eOc3YivxrKycBgQlVXXnnVNUxq+Lm5ubs7Oz09AwqTHvcMBFEAMvV7nuj+d6RbLMXhxBubhYXF5fLxRLgqqpjlOVy0fdBFY4JLns0yuyXSWT92LC+k3eyD4XmMXUdwxl2TgCIABBsRlM7LqRHg1zO9ZDr2EjA7NiRRbJtKTvnnRe7DS52u0oVUFGx+/o2yRJT0buqglBi0KrnnWRmtpgXFVGxLTUbMBREZUIDjAHNMpfxpMhsEpJCCToazsayU1KFagwd8iY9O/Z9H7z3dV0zsyTp+r5tO2ZOKRnzfR+hCnCICTEZTSaOUZjZ+wogFY0xOueYPEFhU7GoMldV1fV9jEK2iswqVhQL5hEOY4FEVSWpsNKQq9qlwVpZRCrukUfjcvldoSMl7sIWwaHqzo52Fo5BAARKqsT2bAD6PvTa2x516PvlYtm2nSQJIXZ9cN6DHDNIYXvBb+1jJ+4ZySgx07X91dXV5cXVqu28r1QpxtR3ISVldgQGWJXsh0Z6WkPLKH4Hsv0JZGPB5rVRJQJ0iFuiTHZUkh2FAEDBNh6DLClVEMixB1RE+tQ7572vWCSEGGOo61pZV6u2qmrvfUxJFCRgVzwNuSebZolgkSmiquatAIjZcx6eStxjnECCAGsNIkBJVYeE2ooGnQAEUFnBi4qkFGNSVQIxMyOvlomcYw+Cwu4P51zDmIgpEsg5F2Mvos65qnLsXNcFZq6rWi3qknrHznmAiJjBbdummCIxgb3zSaXIU9jNIhm3asxbc5NDRcWWMvZbagxNQVRy4/Hn+0A31HsH6PY8AeBWd8bim6CqACnAYPPBlJKkCOfMJUKMIcQ+hL7v+76qKk8EorKN//YeduOekUwAEUnS1Wp1cXFxdXXVd11d16tl167aGBMRO+fI9nsKzLu3Sb0xjDPInBpvrms+S0ChSgB43cV4QiY33NdSFVVSEJNzHGPqQ9+u2tl8Pp/NARLpu66bTKYislq1dd1UdR1WyxQFBI8sJgAQmBmmHBFVDSFa7ypqOqnqyrEDUYoxSZK0sRlDVEK42FPJJufbIKiCiB0755kophRjDCFQzhY4SlRgOpl4720SlmRxDiZKCpF8N5qZnXcxJhGpqsr7iplvrm+Y2bFLMakoERGz8945751n4q7rur6PMc1mU+ertmsFCi3Dh8lABOS0w9YoAJjYIkdVU0rFQLd9Yfv8j8CbSVkO9NYwesPVPA6Zg5Mpi8ncFiC14ZUYihRT13bdpKnrqq68Y/bOFSXdE/eMZAYTIJT60C8WyxADAGaOKcYYmYnzcyAjZBmBXRa7D3ZLnhVqnwQoDXOvef52A+OVmWFPLxG893v7+5WvFFBVImLHfd8RaD6b2YMQTKzrW6qZbLEe2YRnqXhV1VVVMbGIJpGUUgxR7Ekvwh1R+m4gcy0y3RpXk8kkPxkCSjHHdoyxy4//uvlsBpuUCX3o266d7+01dT1Mv8QkIn3f13XtvfdV5djZCiPGmGIkygtyx246mYLgvGemqq5jDElEjLWxrqmkKKpEqOvKhjzjTU11f4Qm/p1gg892aQZBsTHZDO5G2VGIiFiBGNNytZo0VV37qnK+8pVWbNrJHjcQeVfcM5JRTCVJQgiWRtjCUlSc9wQ2LzPBVfOMbM4LtUgb0bonNrWqyDNARh72QXlLuHAAhZbwJpvJHbsYY9e1ddMc7B88efJEREMIKaWYUoqp67qUhEAhxpiSc44dq6plCoMbWlciAqBpmtlsenR01DSTlGS1apfLxc3NjZE1CvcxWoGNAqqSkiogKTnvJs1kf39/0kxsER9CODk5adtWVB/t7x8cHExnsxBCDEFUz85P5VI++vDD2XyWYppMp0S0XCwury7bVfv06dOmaZgYIEkS+v5msWhXK0CU2Lvq8ZPHk8nETB9Cv2pXbQft+7XD5+HTDqnYAXXT1FUF4GaxiDEiu8CdqrBWTKx2ZFVpw9j/LsjevF2MMe+ZKVXzvVwqoswgIhWEEFerVTttJl3d176u67qqmMgxZwd9f7xXJBuL636YmJiZeTKZ+qrq2i4lYWJXO0kqoiJCxKQKhdpmDemteMseuQOleOh4hwp3FA0YjG7L7FxmGaDN6M6x2i1b1q7vLy6vPv74408/+/S//Jf/c7VcnV9cxhB95eu6/u677y4vL2NMr14er9rVfL5nc1fSpCODAQihDyFOJs3jx0effvrpF198MZ1Oz87OT16fvDo+blerViWl6L3jHWE8kofucJqxJhSSRERSEmaaTqdHR0c/+tHHj4+O6rqZz+aS0v/4538+Pj7u+/6Xv/zlJ59+OpvNFotF27aO+auvv/r2+bf/6f/4TwcHBzeLm48+euac++7586++/vr66upX//lX87153/XeVzHEm+vrb58/P371Ksbkvd+b7/3iF794+sFTx+7y8vL0/PT4+JVeQ1Ts8RJjz5g1QW0eBnQ6mUymUwB93/ddT0zFPjs+VTWlxMTw+eFCAEzWqIwN/9+Cca5lhZ9PbFIRlRhD17Zd1/V9E/qq7/rKe2b2ztOgiTfidry/VySvMeguxti2bd+HGGIIUURU13sHqmoho1BSUlKUCZKQOVao2n3coWjAFr/FIbT82rDwFpD92o4bClNqibRzTi0N5qQAMycR5/yHH350fPz69cmpAoeHhx999Gy1agHy3ocQJ9Pmi5/8RCRd31xbfhhTnM/ndVOLCDOLyOXl5d7e3nw+m89njl3brm5ubtp2NZlOnz59evjoMIYYYwh9WK1W7PijDz9S1RjidDpZrlanJ6eHjw739vYmTXN9c9133dHR0fX19fHx8d7+3mw2m0ynBMQUV6vVq1evXr9+3dQz76oU0+vj48vzC+/8L3/5yw8//HB/fz/G6Jz77PPPnXP/z69/vVqt5nt7f/VXf9VMmkdHjz7++MdXV5df/u7L77978cEHT7/44id7e3vX19dffP7Fi5cv/vEf/nE2m//o2bNf/PKXIcaLi4uuuw4hQDWmQETsmB0T0Pf9bDb98MOnR4+OmLnv+5jiatVeXl48efLk8PBgsVh0XScis9nMeZdSZOJHR0cfPP0AQAhBVReL5cXFxeeffzGfzy8uLs/Pzi4uL5fLpag6zdYDoNmLzBHGXkDZS8ZFtwo2TxU2wxi97cqZ/ls8TcfdDBFs3Brd4ncpxhj60KcUk0iIFjqxzs/M7Oh/JzZlfu9Izr0oVAEFYoht2/VdH0JMKdm7ThBZ61bVws0Cmizdgu0DkFUQZE1uqpzy7/oAqiMWcqVs2nw2qjtuZDVBlh9Ah91bQFRSEvMMX9WiKsBkNksiV9c3RDSf74UYfVXt7e/v7+/bltgvfvHzm8XNd8+/C6En5rqu9vb3nPer1fLg8HA6mXz11dcxhhDDarVkdjFGYkwmzd58/sknn3z22WevXr26vLhs29Wjw8PZfPbpJ5+u2tVysfzgww9Wy+Xz2fSDDz54fPT44GD/+fPnl1dXP//5z09PT4n5Rz969ujR0Ww2TUm6rr28vOza7vTk1DsH1XbVXV9dE9FsNu+6jpmZeDadHhwcPH369Pzs7F9+85sU4yeffDKfz/b395tmcnh4ePL65Ks/fOWc737607/9m7892N+/vr55/PjJV1999eWXX+7vH8zn808//fTly5feuZhi3/eqcnV9NZ3N7E29yXQynU7me/Mf/ehHP/3pTwGcnp5KSlfX1999xz/72c8+/vhHz58/v7i4aNv24ODAex9jmM9mdd188cVP+r6/urpyzp2enoYQ/+Iv/uLp0w9evnz59dff9CG2q9YeDB2sa7YzM4+x6R3rglsYyrOfkLko1suBMRSDH70L1rMU7IdUoQpRSaIpSYgxpJQ0P12bUsob/2/F4NZbhe8byRmiKioAiYiI5Xdiw6WIlCjNPzYWmXAWzcB6m1DtY0sKGmcZG2YZ1bOm44ZG1EpGByNCREREyDc0RVRiTCGEFJOC7E4yFIubxfX19eXlZd/3v//9H5bL5V/+5V9+8sknT58+mU6nKaWDg4NXx6+++vor59znn332N3/zt5dXFy9evvjDH/7w85///NNPPhGV58+f/+H3vz87O/vow48+++yzn/3sZzGm09OTo6Ojx48ff/m73z3/9ts+hP/rv/7Xzz///OTk5Ntvv3l1fDybTZ88ffrhhx+2bQsiEJ2dnb06Pv7Zz352dHT0k5/85LPPPmua5urycrm8urm+iTFVvppOZ33Xhz74qtqbzz/+8Y9/9atfee+///7709OTJNJMJpJSVVVHj46quvro2TMVvbq5Oj09nU4mdV0/efJ0bz7/8MMPQx/Ozs/Pz89n0+lsOvuLn/6F9/7R4aE93hBTSjF65yeTyfHx8eXVFVT/+q//+vMvPv/xJx+H0HtfHT16dH5x/uL77w8PD53juq4PDvbn873z8/Pf/e7Lk5PXf/d3f/fJJz92zlVVNZ3NHh0+ev7t84uLy2fPnk2nUwDL5apru9ls/vjx49VqtVwslqtVTMl775gBpJREJJtzawIY5bR3wCqYh4x96nbJeyJ3XZpn5y5QKFQtWPIbnYQ80b3tZuwIW8xZq3tGskp+TMfuYUhKIorCqqqUx5RLP3bJomoItDXyXLu+Mgg3rrWFLTXlwiGLXsM2mJXKfV4bSgAFVC2gRUQdO++9qC4Wi+ffPX/x4sXJyUlK6erq6urq6qOPPlosbpzjy8vLGGPdVEx0eHhod2LOzs7argXo0aNHqnpycnJ6cnp9dd33fYq2ZZbQ923bvn79uus6FbEd8uVyeXZ+7rxPMVZ1fXh4CODs7Ozm+ubo8dHhwUHl/Xxvb75YXF9fr5bLl69eVVU1n83atl21bYxRUoop2SZWXdfTyeTJ06cfPH06nUy6vm+7znu/vLp6/u23jx8/bur66QdP9+bzg8PDb58/Pzk5OXn9OqVEwOeff155X1XVt99++/3335+cnvZdp6qffPIJMbNzv/ntb797/rxr2+lsJimFGGOME6LJdNp23cXFRdd1V5cXXd/Xdd2uVl3fxxRTTG27Oj+/IKLj4+Obm+uU5OzsrKp8VVdQ1HV9c3Rzs7hxjq+uLi8vr2KMF+fn3nnnvSnK2btZKRFgmwsCyLAMvWXxPyu2XW4EovHSEoCCQCAFEwQgqD0PpzbzZVqq5oqAxc+b/X437hnJoipJFJQMYrcegHE0DgPmNl87QnmMHKEKsvDbvp5hwZ7n5FJLh7gtHWzofUStlJNVFBFm572PMZ6fn//bv/3bd8+/f/36tfc+iUyns+Vy+eLFy5OTk+++/z6EXlVms+nnn3328tWr6+vrf/qnfzw4PNjb3//8iy8WNzdf/s8vX718FUJommY+nzvnjl8dL5fLs7Ozb7755uDg4LNPP9vf33/27Nnl5eW//uu//vY3v/n5z3++v7//6PBQVP/w+9//+te//m//7b8dPXrEzE+ePBGR18fHz58//+qrr45fvXr8+PHe3p6vKgJCCO1qtVgsvHN1XR8+evTB06ez2ez49WubAGbz+cnJydfffAPg2bNnR0dHh4eHqvrb3/72xfffX19fr9r2448//vyzz5bL5fXNze9+97uvv/nm9PT06urq448//ujDD0F0c339f//3//765KRt28ePHy8Wi8urq6dPnx4eHn7wwQeXFxcvXnyfUjw9PV0sFjc3N7PZjAh937er9vLy8ptvvj45eX18fExET58+ef365OLivGmaq6tLVTx79qOnTz+YzWYvXry4OL/ou/7k9DTEOGmmbbvq+54A230YGW4w+l0O8ifFEJ/AZhq4CRrWdzritEQBkQKWt1okK4ZoBmDzStkNek/cM5KJCARJye5YpiQ2omRoGS2HsrUiSogNu1V5hVxqjmBkhjl2qGJ6ei8oYJucthixQRFQIvLOoaqT3SJWXa1WkpLzfrVsmXm1WjFzXdfHx8enp6e+8u1qlVL6+7//+9ls1jT1YrEIMQI4PTv1Vf6uppTSxcVFjNF7v1qtnHN9H1erVQzRmvyv//U/F4sFE+/v719dXoYY266zvNE6BXB9ff38u+/6vv/2m29evnyZREIISeT7Fy9Oz87ynW3VdrVarlbTyWQymXjvr6+u/uXy0ns/n89FJMaYUrq6vITq+cVFiLGqKiYKIZyenREwmU5fvnx5dXl1fHy8uLnpuk4BVd3f2zs/P08pLZfLxc1N27YhRlWt63q1WvUhEHB5eRlDOD4+TimF0LftKoQgIl9++eVsNpvPZ9fXN13XqUoIsa5rIq6qWpK03ZKZZ7O4XC7brl8uV69fn8xm04uLyxB6Znd2enp9dS2iIYbQhxB6AuxOvmV/pqi8jPuzwjAkVMcAACAASURBVAJu7cHv6np5iln7KsE0qyqieUGaX9LJ5aq7PftdRLxnJDMxkwuSYky216Vi4UhQUlW6xZPaJtdwYFctvAhQXWe/uX7Rgg0L+WHLgWzZtySCiTocAHnuHZEa6Ntjk2qjIQEAMTtPSIlAUBWRtutOTk6MOeOP2bXtSkSqqlKFSLq4vFitls1kMiTPiyWRbZt5R8xd21og9X0PtVevEmDf0yCLmC4uLhyziPR9H0M47Xsx66o65qquT09O+r7vu+749euz83NJyfuqqquu6/qu69qWmFWk63tmtocMFFi17Wq5FNXpdApVS0FjjFVd9113mRJUk0gMoe266XRqkdmuVqt21bWdSKrr2jnnnGu77vr6WlK6ubmJMfqqcs7ZKKCqvqpiCNc3N9c3N6oqKXZ955zz3l1fX61Wy+Vien1zk1JsmkmMyfv8DQtEFGNSDSnFGBOAtm1jjFdXru97VSXiGCKziylJElV1zhERM0tKZkPbyTML6jq6ssV3YesSlZLB0SwzLseAxaKlhrlcreHQHYC1mwG5iblj4UtLw3xdRUVEUjJbq8WxeSVUoaMg2Gb6DbhvJDM751SQYoohz8lEnGNVi7DZcDZ05uEzH4x5VFUCqSoRStzC9JdVk3e8rXAMomHKpqw8KynliqJf01k5JSIQqeSVDLODqqpWVQXVruugRER10zh2RGiahpnruknJpqZKoSkleK8AYpQkzGw3omIIFgwACOTr6ujRrGkmSdLxq2MAk8nk8ePHAGwd6J0DACCJLJdLAJX337944V+/ns/nlfdPnz6NMaqIAnVVmQsQAOdm06mpK6Wkqioym81AZBlBRdS2rXNuMpkMDmRZhnMORG3X1XWtqu1qZSOCcy7GKCI2FiwWCxBZJi9iCa567+uqYucIEFV7zqSu67quqqpKKa1W7cnpyXy+N2maPgRViRHX19dV5Wezmfeu79P5+cXh4eHR/gEzL5er1WpZ+SrEsFgsUpKmbpxzcJwf8SQwiPID2yDibPux4xu2XAS4FRGD/w0+QigzjcESRc1eZx2Yj76JuvlZWRNS9rkRVNWMEGMepMoF8z47NX7W2OJ+J+4ZyQQQsaoOPJWUJ3eqI30WBW3zt4Xh8rhe1vEQn7cu3YWtS2t9lqHB6Kmux0sDASCCghw75yfNJISwWCycc855Ee26VkT29uZJUt91zjkLDEAVGkMEFDY+FMQQr+P1YrFEzgmRYgSgQBqZmogc83w+9943db1q277r+q5rmsZ733Wdc66q6z6lFNPAN2VpKIkQkY0gRKQilgbYFwOJKogUCDFOmsZ5b5G/oSgbEUTsuc4YIwHM5TlCFO3BFIe+7wE45rppiBBjDCG0bWtsPH78mImTCEIA4L1/9OiQiABaLZeicnh4yMxd1zGxc24+ny8WyxjTZDJhE8cmXs824AJExJacZXfYtN0d2HKcAXTL6YzcUDNT3xW8dyB7l/3uaKaAquZpWTVPygoLZNzyxneHPXNzHyjyU8QGlfweKhSqa+mJ1prMhzlN1vXBG6FvrTFGHj1vmS2ryRSdmSJTa9bluBMiJiZ2zN47EVmtVqoAoQ99CCGEYCluCCHEKKq+sueTOaWYNl+KACCS2rZd3Nwsl0t7sjWllET09g9Qee+dU4CIRLXtur7vrUdbharI2OAKiEg0K6gyWw/EzCISY/TOOWZJ9o159o0zeQeYrJeUVNV7T8hfUcLM3ntjkp3boU+zS+GZiZxzFsxt24UQHDt7DC6VFySIaDKZ1HUNIKYE0Gw6I6K+77u+A1DXtWXOTdOwc1C11zYcs3P2pLe9q8lk31tSfO1tGNxs+BlOh6t3YqsDBZQ2frCrZIR8TiALVynTsiSxdCP/y4H8Fn7uwj3nZLUbevk3Zb8cK9aixaL3VnDRekHyJ0Z2me3i9wMRiBmqFjmrVZuS7O/v13V9eXl5eHhITMvFwjk3mU5tXnozvPdNM2FiUe3aVlTJ5N/kVFURY9e2ptDJpKnqetI0zCyqRBRCSCJN0zT2/XsFfd+HvnfOsXPMrEbqFlQEgPfezEdEVn+xWHjv9x89WiwWIYQh1X8DrG3TNAAkpeVyGUKwhHc6ndpOwWq1ury8TCnOZ3NVdF3btiszjz2t3XadqnB5lSKlaN/mCftWA/MnVWD9KB60JH/vB/O3rdN3ojQ20c4GG0n5NswXGbD32gELY0kxWSpbQtlEteniXrhvJKtKyvuiosOTIcBYWmOJUOZeKgFsuD/Tb8KtMLYCm4iIKJ8XtQ7VMouFLWaWJAoQkWXOMQZVYSZnEwQzO+edU+9FJIRgZLzzujuOYIvPqqpEJKW04SMGVQWquqYYk3Q2+zjnQggxpclkkkRijHn0HjdSJcp38FVVU1JVUXXMzBzLF+hap7PptO/7LoTKlr4p2W72arVSVeccM9ty2jsHIhH7hpgR8t0UlZRApKrs2MMDMM0QUUrRBpeqquqm7vsQY2B2luZPJxUzxxRFVFWZSUWSwjkHkJorZSlt3xHIsxpM4g3lrdkzAyKbnSifq27OdoOd3xe04TRD0ebpLVAuVs16E5FkD1SZ9dY/98YfEcnlDodqDmXNKr+LHdPdxtVyskv8TZhdrAMCYFsfRHQrdDFYqVhTidReuGEeyndzSXlrjZkBIkVdN01Dk8lksVioStNMkogqee+ZWRXOedXQ9z2g7Liu6xyoI4ioamzbTkUeHR2pat91ZAs+05opTpWIZtOpiDCzY1ZARLquSykdHByIyHK5VNWBvrUC4H3+4h4rMXjniNkWrpX3IUbHPJlOu67r+75pGjPidDqNKV1fX08nk6qqYN/+IzKZTADEEDBWczkyMQkg5rpuiCDJVu+2exJDCPP5XtPURNz3fYxpMqlUVVIEETGTsGoSEecqEFTB7IjYvjpDVaH5BTsUDmQ9d9nbZ4Sx/9thzgTzKkMBFWUiKxe1d2hQQlsJBCJT/9gvMq31sV267W7bKPU2qVloaF6/iAVyiRpVVRG1R69VgTzVlINdGGgTcO9IBqAqXd/HGFXVuBrzjSzJFjYqZAvkWoQsbVbAVuOqrp33bdtqSiBqmqaqKu/cMBH1IYS+jzGagpjIeV/Xtdr2EhERWWyYI4wdADDbEzFLSkTknW9mk7quVZFSDCFOppMYQowhxsC2YwzEGGKKlqkqSBUhxFu0s0TOOWUOIdR1vb+/XzcNVPsQ2tWq7brQ9wDYua7vK+/39vYWi0VoW19VlgO3qxUAc02jaUHFRFT04JzzVVV5D6LQ9yGEGGNdVUmk63tT13K5rOu6qmsRUcC2vqA6mUyY2dyZmXmYjYkq+0b70mPWoYipUQGRnJmBcpB6XxGxpNS2LQAVrSqvqoCyY2PMrF35aj6b27AoqpLy62WqKimZg6nCe+ecE1ERe4wHKPvY2V1UFbCgJEJ+T8/OPO3t7TVNQ0TL5aptOxGJMcYQQWDHVVXFEGz1PjgIgTa+ZclgVywm83kJNto8J6BQyMmoQAlic3JB2fUazc5Q0nKLdEcoAMhyr4/p3pFMJKqh70OIhaFhdAHyODdmwXre4skcnraGHeN9S4WiyiJMxFXlnGvq2leVjbqqmkRSjH0IklIfQtd2IFRVJbNZ5T0RMTMz+6qKdi9HbTO8MElmcMquzOycAyGmlKJlHlFEUpKu67quVdWwv++ct12MwbxQSLKHgTeYtxgjmxBUmaiqKrVv58vkY0zJZsJ2tZpMJrP53HyLmYmZmGOMROaosAAzylyWu3ZqBoAlTSnFlBxz27Y319fNZGLPTs/m87qu7dmpoYktj035JoCtqwmw+2QikpI97Z/MzlqCre97keTsG/28ryrPzN57SSnFPBwwDzeQyNJygn1lP2uOCttvl5iEiFTUbpzHGL13k8l0Op0C2cWt+6JmsjCGIkcOTBQFTHlOROyPaaSULJTatlssbgCtqmo2m2dKRnn43/SQ/wEmAICS6AMEtV2u7fWy5tb5OFPQjThWXYeyYRCqiEDl8y24byQDULVHGuy2mKL8jmF62FLCBgYWx1d3cN91XSCqm6ap67qu7YncYE8dx9h1Xdu2fd8751Zte3V5mVLy3u/t7x8eHMzmc+ec976qqhTt1Uv7Ru6cgcFSMZuI8rdn8nK5XC1XpnDjJ8a4Wq0uLs6Xq1VTN3v7ewf7+5Nps2OLaFNWdtw0jcUsMRORiFxeXbX25+9ERASqq+Xy5uYGwHQ2O+x7EXH5hd47QTZ/FpohJen7vutEpOs6M0cALi8vj1+9qpsMk5Qw8rURtoxIRDaZhxCWq9Vquey6DmXh3fe9PYuiKnv7e9PJZDKdTCbTpqm9r0TskaE3eCIlkUXe0mcRFZGUki1SVqv8KigRHRwcOOfspW4lBlTF6Jq3FB9TAFAiFRuH1BR+dnbWtm1KqWka732M6fz84vT01LbZHj16tL+330wmgyPDCBeMNGLdrQ+GCB677Lb7GmeqgIqq2sRX7kKUKNaR5scHO8LhNu4ZyQSoIoRgd2VUc08WF5bxbbYYqWIbg17GJdt8O+e8czbBBnspOoSubZ1z7BzZIxzeS5nEJMau7/Xqqmma6WxGxluhNnRguiOiPA0BkpKkFEPUsv0DACBzXGZq7X3sGFXUV95Gg0J4N5KILU1DjFBtq/z4hHceHjWMA4QYF4vFarUS1cr7pmm4qnYG2xiqapNkspVFEucsLuzFYWbmvu9ns9lyuey6bjqdTieTpq7V7LQ1WOj61r1BVK+vr1VVVCUl7z07Z4lASqnqOjvtuna5WALwVVU2c2Q0Joy8NLsJgaCqNopZvFleOfiSZdQA9X1vG+zT6ayua3Z5T44d0+BaoyxQVZOIpgSA+kBMScR7b19Yy855X81m0+Vyslgu2rY9PT2tqqpuJkaM8m4JkCMQREB+vR4AqSpKCcHmZCsoYTdo0FoCNNx0VYhoSqaiAdsD6C1sXrVuRrhnJINIoSHGvu9DCMVi9lnMRNZb+cmyjZ0kQ4ePNbb9l5nZORBZgme3c/u+t3mmrirvvaj2fV/X9Ww2A9B13aptQ9+LrWNt6sv8gYC18kyRRKoaYxRV13dMbDmwAlB7rI2JaDqb9n23WrVEcOyI7d7mG81gD0im1NtMG0KsqrppqspTAYimk+l0Ol2tVvas8WQy2THbb0ItwGIMMaYYxQTRvPtFABFVVTWbzQ4ODy1zaYm6rrMHp51zblPTRZIcFgqoqs1mjp33rqprZwk/kZQXlbxzxHR+dlY3NeX4VPNUo7f5BIqavEZBUlKAVcnGYGbAVgrcNBNbdoQYur6/ubmx8alxtdExqyGnt8W5iFBy2FQsXlVV1VQu/zE6ZUbTNPv7+6qyWCzt9htULTI3DHrLsEOBbZAN3drBcDqAQACB1goVkRRTskjO9ExT+XiTxi0ODJt2u2ckm+JiCLZ1ISlpSffHkt4SyrBZqDAxBuRB4LaHifZdl1KKMdrwUdV1Xdd1+ftmJFJVlWOezWbXV1dX19dXl5e2/iTbwzSemDl7lskB2PQRk4h0fZ9SItB0OmuaOt8xlxSj/clCnk6mcR5jTESsqlAbsXdKmsHs6sa+azbFGIkZRJX33ns1u4qoyGw29dVHfd/HGJmoquuqqsbz2hZUFQCpdl23XC4VYGbvvUVEjFH6npjtxu+TJ09SSpeXl7YMsce2a3tmc0zTVF1sp9aLbYM59t5Xde29V5FoX0XGXHnf1DURzs/PneO6ru3R15SkBPOGMTcMq6qwoCYmdt479s5xCJEZB4cHTdPU9jBp27Vt1zR9XdfeeWumar5TFs9GyrwwB0xkZl9VTdNU3gNYrlZd26nCe3909KiuK+cuTk5OYJPvwBfUBpzMrokBm6zV+tp02x3QYTc817Q7CxDVJMkiZrMBNJeZjt5Cf4x7RjIAVbWtXBtaRCSVeCYq1io2K2nP2uOLMoCcHo3ltSobEBHY2zCqANg5Bpi5rirnvQ3AKqKqNkv0fV93XVVVzGxUza7FsXjgII+WarZX+2JnGy+YnQ3uOsJkOiGi5XKhKjFG5x2b8w+gzUEIAKAlh3TOOed8ValqTMlMZx00TVNVlfO+DyHGCFUi+/MEULWT8qW/NjCpqgWM/a3jsmYWVYgQoKoSY9d1dVVNmmZvPg9937UtANi2gG3CjVVOBNX8aZxrudmnOcGOgI7vhJlc3luopJi892ob2qpGRzFEBKBAfvchW11V1ZJ8NcoiIkRQUe9900yrqgkhJVs6Ud7bs8owlgGCak5+yT6B/A4zM0tKQVUK286x99572+n3zrmYUt+HuqrABJSwLla1ZBoAcrKCrCUrVCsfqVF1LXJJGUoUQEVTSsnklPyk16gdMsWRkt6Ke0ayApI0hGBLM1VVkZSixRtAgBLRIHVx7nxiJPIQaHxmnSgA1bxpP4aoQrU2X2E2gkT2nAb3XZeSqAqInHNmHO+cvQ+Q9WFWtDjIw8fAz6C1DFXElNB3o3IyCrPZzDvPzCIaY6qzntfNB4MNMGqmHC57byJid7kHmCwEpJRCzH+j2DSSqRApsynHgsRYInt8JSsZltc658j2C7qOQJNJUzdN3TQ2ltgmFpWNax1MZA5qkwnlRBlEVlNEYoyUkjVRYxEAwES+8gBCDLXWgHGnJgEUpiIrciihUSqNJtJkHRFRCIHZknfn2P4gi3fOjf5wx9B/IQYYtwTApFNFfn8LCoWqhbD39goqEREzxxhD6KuqKsM6GYejZQHl39ypCWCfG4eAatGnAigjDmAsQVRSkpztDaGcNZE1YgJs0b0Tet9IFtEYYwgxJvt7haq27wIQ2RqKKE92a00AyKrYZm4tqZ3akGzGsAbM7JwjIlGNMcaUCPDemx8D8N4TUwhBRcTyVduFZqbxpo7Z5rZmslWZiInVOfviyw3mmdm5WlW7vuu6fjqd1HXNluNtonD9flARAYjynz5TKxhRNyUnEVNwjknvY4whxqxZIlUl5qquiTmUr7BNktq2lZTqqq7tlYy+V9XKbl8VlYx9h8ytrGOAsoqygZnGN1s1hGrL1kSwOAJQRgwAFk3Z5IqieRtXCMBY4twCsHEkr6VH1yhvJKnCIoaILIlgJhEoUkp93zMRMzPbzobz3jN7QIkJQ/oA81hThdHKQz6AoqGBuy0utx3dBDUdIqf/BFUTJM/Jqdy6yJuEAyO4Te/NuGckp5jsTYJk704AaglwebBmA2/hydxEsWFCVRVCNjMAE9AxZ1kV5NhXFRFZysQODs7MkFKSlKS8TrAmCgCbG44F5g9EIDIZbB9rA0TE9txVSiI5SRvTH2HLzDvrbENUKaUhA1e10F5Ds1soiJgZgDmoiOQOjBnKg5BjVu/txluMMcaoquzYpus8XpaIMgrrxJosXYUW1zJzIBsMScdzDSRtvNdhfBjLAFRzTIz0stYJ5zDOTjDQVXN8KGAPVCRVe/ZaNa/j1tq3nkjVVnekZmAlYsdsplVodh9V57J7OOdsFQYAyN6qirLZvIHM1zsge9m6gAA1dlXUYjdJ3ofJHrtW4Vo574h7RrJ9u2KOZFXrWESYmXg9KZeD7ea7MRg6W3JDkTYJAzD7ee+qqsoPWqUUQuCUtKqsW1ONqrpRAjnGeuQdCsx9s6++I8eGHRJudphXb+OinbBklUtCqZr/jvFWy7cTAtSybmbvPQAJIWZLbSMXlvhds6qKITsdNVQA64lkPYN0fb59fQfG14g29cxExHm3QRU5foESmrCi7PLJxhDbN9m8hWYtzJzFKM65prybnfLSVEXsbeqaiOq6nk6npigAWQXjyfhPAgKBijo159absEnx3Sy8jXtGsoqkFC2SrYSAPAGS2WnNTc4s7gSZe4xhthuXDMO25DWkKFCnBMB48N7XdW1TcXYyW+CNqeyCAnnHBBiUSGSutgERiTE2tuCsG4D6Pv8N8XG1dxgLdl9VhUKJyPF6Ti5zBQAQYDO29aiqIQS1bGioQ2RO34dgG/t2Ex4AE4UQ+r7v7J3n9UT0FmRLDJYlckTs3Dh0Y4qU3Z/uEnCAZvMqAKI84qNMwRs1rZoCqpZ9Sv5G422f2QkF0vB+i+VozE4hIs45cyrkjYUiJbIJC4Ex3qnTMWhXG1UAJCIpbzMBRSel8lsUeBtvieTbTBhEkZL0fR+j/Ul2VQIRZZ8mApk6yHZcd4BQ8lvrZEetce8EmL3NTQFA1SYxVeVildwdkaqKDYC59RgbK1uCai4hQFUJINskXlfKULvMxM47IioesKEnW6uVMwLMSqQYjfPWaFO/CqjtcBKBGHmCWk8vBFBZwJiAecACAIgIEcMREyUgxuiYxdmDUVx5b5ylGGOMkpLzngfjaN5jWWtskJ5Kug1YMFshAWCmcui9Z3aK/DcxRNWmoPUqZv0/ZVFBBIhqtJeonbeZduhdoVaVmECwIVpViDhbV/Pep7Uia5u/cF3tWEVTTEREZTIAQMTMNiASYK6UiYOYAHY8qGQDmyYbYV110B0BKPPYYHtV6y3FlGybCVmHxkn+LQQpqwHYme0PeFMk72xXCknsC6iSvTCggL3Ta4xmXowdBa2ZGBMd5LWqsHpqV2yvYKhrdiOrqNrYO+tEBNj+EIhCjCjZKewFgA0aY4wpG9WiR6AMStnqA4jN2zSEXkXsPgZK/jdyqVywUWT/1C4XcTdhHiCS3y0jYibWUUpjrVMSIgJl1sleC7FdZWbnG+cc2+06olj2C5xzwR5+UKw/S5Ri88C8Pf+uu15DVFWU7EkOImL2zlso9n2o+kDE9mUBuWUZn+xYB40DktKqbSeTyXyW72xT9heFqs0F3ntnj4WrAMrMIutxzjgdWBbRJJGJQYSc0A4TSg4om4xtIgAAqD2mICKAOuecdyKSyj4iBg2MRuMCGqsnd0M0qmjGIpTIUJUQQgj5BSQiIrLMjmC0Nvoo9HUUR7dwZyRn+XYVAlAlVQ0xppRE7YsClQh2U2JQDwAdeTNQBNXhKJ8MINAQw+OW6ziwakTrq+VI8yZHKdDBkcYcbAtF0HUFYyxP7RutABBARJoJD2UlBJCDbkNeuwIqU9PQEWHcb8boNHdAAJV6+ap5w1gMApRIAdvmyT2R8aawH9v1MQLALTW8CQpAiyWHxfPAgymLyHsv+ZuDvHPeOxdTWk+za+koG5NgLElJbo2iOb7V1xyHSoQh0zHjr42wRhZ9MIWVqpKCRn++duDEjq0jm5OTqs+MbNI3norebne9RhF11EuWbjhTxbBuNznK8KZFC1kB1qx0fjfujOS3wfKDmFISkZSSqGQ9mY3/CKzNOMI7UhxXU6D43OjCWjsZ5fK4z63OB5iAWH8CgGaPLkn1egIA3pnxDIuV7VJD8UMdfod+iPKCgQh5DMr93kHrLRjrAoDpkADrcS3SSE6ye/tEdiffO2eBvfGiNnITxWiFU4iY7oDtvnOHlAN4fXAnCuWNwX83srYAVdtR1hE2bhzcC4OMZi7zlVwoomWdrLD+VFUxSsLeA/eMZIveAVK23QhQyvnM23T47wjNvwA2F+cGQnGhfLIuHOWZxeTIwr1BwLHw97HKfbDh27n/wve9UIaGTGRTpGHpbtBNha4xxNyIvd1haE6TW+QR0QoyI8PHG6Fq0fLuyMyorveTC4PvQ+ZNWKuHaH0oYveghlASEdVc/e2SbuFPE8nGBQAM+QsGd/pTI1vcjnd1seOqmleQzVij+QCApaWj8+Eoa3VIv/Ov+UrxF9WyeCHN2f1YCdlu722Y98IWdcUuzZiPvxVqy7FRYrEj7mhjtWjuJ5LslawCsjx8F8alt6kPUFVshoGqdXcXYWzSHk612HAbRHmQEdHRzTWxS7vbvB8Gfuwgr85gc3LaeDhERVSyoTK/d4q5jftHcoyDyVLKkWxib2i/gNYlO8ab0dU7QMiqVaw3pXe2yX1v2tpCWZV4690fFEpZc9vlBBoWiFm3lnGs+88nAFlMj9Zjfz7sFL3glp/fqawdUChGG0Qw6bNWbyNrQkVzrsjEIUZ2rjCxprT+b2y+bYNkqEJU3XqczTFgKeg7wrq5sz5h2GpStdw6/9jlndnDjqK3gYCSM+cJAPkPN4pIkv+XuTf7k+S2zkS/A8SSS629N0mR1EKPPGOPHyTZ98H3z/ajH69frPlZssWxSFGixG41u9lbrblEAPjuwzmIiFyqKqvZ8szXWdmRCODgrAACiEBQB/X2TaqLiWbO1VGpXFX9O0ZyjKlt26YNIWirkshc06AqQvcxGdhybeJHf6z2ivpjTfnee73NA8DVlgG0lWnbmDd/ds4BGn6ADCJ2QIOqM4JdTk0nAG22db1GfZrI0Sui5r5Cu2YPFfD9wahazwkVSGy8oZyJiD7PoOxZJrFLTEuz9Ewhq6QXJhfVU+psaVhKBNrxigDQKeWUUooE4ZwndbzYkbMjAsjTk+a3pB0AVC8RNYA4J2VVFYXObFtmJUiqbnuWd4RZFgKB974syxhDZqRzAGaVZOhs7ErSbhApvU+JMbaqBYIpppADyGTS9TOtlsiRM6yQIJTxNbxrJIfYNraJlfIBqEJVQz0vlmZG0//WuFhnSkBKnsLJ0HUUiE1ZEsBA5UNQ10hIdDerAASJflemtXLqM6L/bZDvXD07v2l99eRVUFLX5XgXkIBOseWDjgvawNju3DDBrIiKsf49RC6OTmb9pqEj2BdUXeehS0qaIKJPfZoj9gzmlPwf1FfsI4MTJCC2mbazNU4lThhrnXjXo6tq5WdWgfPexSg5fcjzakECWSW3gkCc80BKMeuBdomq/TJTggnXYcM2HS/bGq93jOQQQ9Pq9ne2pROAdbH7lOFVlXKwbtTdQZjnQA/WxbWGWtWiKUTWktlmvcg6CFrwkQSsIbZSSpjk7Xn/rwBJ5JGAoJ+augWzqrdcUETUp9TQXNMfLWGVfpdj48zOYOc3Ky6t8vE2ZNVftucXG8rcBtspDXAFQTVK91NH1hbIf/rxqwAAIABJREFUNLkyhg6m/1HkSsp4t0gmEPJuIXFwN6/9f3Vlu2Pogl2KWrT7mFJy7ehShgV1OKmJG33JEH2hlXpVfURfjMiBvINJDbu7yyrZLYOorRhoAwDA3KDnGCBWFXUNsg6t+EDn3XkRsSqsUuU6VzAUVrq/lXDcEQOHMlZoycrRdRKZJjUv0OticJC/h/J1p64jfntYXKonKAeJNuMVY7JvHUxaOyXoeSXQOcOW3gvvtrcmiRBC27Qxhjy01vRebVdD81yvJrG/lTRBV6xTxgbUuVQTMOlz5qFmtjEg0JdVdxjm4QpTpImbT65AqLnXUjdl2kDHOKBSDs5dB3VzoC++Y9yuYnt12fv6nwBExOZkAKwoQ0+bunNCNsAOXG3jPBfvOmmgy8htU6gAVikNPMAO+vT14iIri27vCSRBGXguE20JKkUN5pSGwQyBeoDm73xqnV3FrSOZAIgQYhvs0W1yOCxw4rQP2w5CFdxxQ+N2R9AKdzZZQ1ZS7jUBgAOzkDZJtAXGWyYB0SRNZUrqz+uFSaxNaJGyskijEu+AgSLXT10PU0jH7/uCspI/THmFBBjUiRV76rlht3xL0G75Wk/P6JRD5Q/bNqUGoOoEOua2mW57wfcPApkZILNCMiWGPNOU0Y21e9Z3wa0jWTkKIYQ2iIgTe5GfsgAkMO8LJWvBRgDaflKpAAB0fstOaEKH1cP+l+Q+aNU4XYoqIifBqh40GRtGhYhalnrcZ9ADQtsnQrTh1F031EZrlUm3sNynQQQpxRCC97YbkarDThuYI0WNqB/qVJ2AuXWx5qabuzaCpDinW5rpbzvQX5pj9XtlZUFpgys+T3MpLQKY7hITk205RMCL10cgdPKEtOciOkNx2N6pD1gEEoB3DvqCAUCkC00BkPJr0FTkgXJAkoROnefsWQQ1JOG9Tym1bVsUHqKeOexyCYgTV5Zl0yyj7sUpMG28V5DWw4kISbtATjGEEGMkOsWSeRFslYdevA0I8E7vaiSh+4V478XleeoMkMijCMFK45zNoEddOYA099qAAOYNObxEGbcKVqAuOBS/O5ZunKJJ/Q+rQQ+pr/PoS/Xcm2S6jUGKZVnq0xS90LmgSqOC5dIAJMbYtm3qnian0Vz95KIwVrNuSHYlcrbuNEkykU6kqqqyKDQ2ei3DynSZ9dhYA9DrR+xLpKOgGDAlTIwxkgCEuvFoURa+ABhCC5ApNU2TErOSM6eZGijKgQC+KEjaw6qr2WKKIQT0DT0JSJ7QzHIQGMppOQF4XwBQTsyHTM4e3ruqrkjog30mfWb7/YDKV8eZdcUxpe7RYOUsry2raoHMdO+IyCf6D/COe2sSIcQQdJtr1S1JpJRErMO5CqZqU5ilqT0H/cMWKMtKXBRrOTSPLm/qB1oHieEYfiuDBKDFYIz1iwDKs6VvlKYWBbTy1VOSh9kbxbaDg89toLbX66wYE8nVzUbeDYT2eFB9Gk8inQE1j6l6BUNzraXr9+apDrSwXTGwEjRf02wEVXINbDVXR5f21XENzdZBfWTTjUSwnvU9gOyE7/2KyV6uZgNq5rtDiDXxb8aukay6F0D7rBhC27Td5Xm2p63crJVdgbVLnVxd+mD9bHimTxyYQhM3jQBL7AwoWkpJDjQIyOrVvJImSJGheXPZQT6oWXINg9PsB9WDM1bNNmbXQCKbEQAks3UjtJAGcspWWc+0OwaKNUE75YuIJfZibdYkcsWJ3UCwU2tnAKPZqR0CC0VznXWJzdM6dEJZhzugtgYRdO6xajZZJ3p79I6Xkk5Z6y2SOtjuLLdZjSr0SrXuGskY0CDRhrDMq1B6FfN+IVDTDQ46H9Lo7H6uYlXxg58D7wSwXlSyhqXrvVcvFztYmiqcavPtGa28aLcsWscNWFNlZmtTzlUw98cppZgSEwHKbvuBDGGKxqq6MuvGxTBoZKtQoidu4npHGDsioiYi9ecVld8IDVOzsgraVaFHajPZ6gL6Iop3hgi6CwXme9RTfoghrcwpAuvyqVLXWVLcIpKhtiEApGhX6ik/ArVi+wyC/exP76Vbcq6BAHSRQ/LNXlqc2mh1Tdc62DnQqkZ2Q5d/WHCd29Xq18+uQ5W/E9Zq37UYAOpbDvWe3ZQSKbjhauU6bJTqtXoFuJLDjJSP0UnUhc3tMNAhmSWkntgdW7xhM4nUOgDekvxtoBWk1Fss6V2u3UVyYkrJOd8PTm7CTpFMApkiif4prJiyzF2LNvgQ0HFSZ0wzaPefMdnxSi1m+hUt20/PmlfQDraCyB4NQMS2jVnPta6eLgNtxDY8uQGSuJaJHgJARFY2dr0eQ6K0j6hmTEHDPFlVmtxDU4di6CSkJitXdmL1oCuiB5I1bx8F9Ysg8pCBsHtjHSk5r5CwUka3k2SAYb123OXO3/acQy+jaab39BW6JhMhukGkbmrYqw0CtTMJiEh/S39n1itDSHTwtp48wLZz0iV37DPHcZbJsPJ7K7FtVewUyR0EiCHNZ/O2bTVaTGwqo06HQIDklF4zSmD4o/cM0yEAi9tNRncBAZIp6SwoIVIU/TsoVrOuponpVx1EtbxmLxFYDAAayCuuoRnWCYuIeO/9+tuXroZA5QAI4XBoTR2WDbnKlTnnnL5ExpKJzHDOCtGOOoexHWeJOtGgFpQ+revb1T6qJ1UWwW64KSJlWTrngXaoBROAIiLqmNTOWatRdxExbnL9UGPYnmWmQ2iyGcrIk8hKMamVDAAR0a3KciJF3z1ipjVKzruqqr33IW8vCeVuG1QxWteVyLrsfg2o2QHVerSvTquD/5nl6qApPZEhbhfJJMiUUtSGRP+6aa8sZF/Nhriq9VU5+0MCdg1GEUBtuTK67uRTVtZUpiYiqQ95qvcA2qx0ILBVFcjkh9oWzS/q0wByP8OBNw1g+ftfWSFGuKdscqyiSxwqqc+mR51b9CeMP9lQyCr0bJd5DV3K2hmxdi5rJwtjINhJ5wSimlHjqJUAtasI+k7UdDOEZhkyloNQd/5T/aj+7TQky7MBq0ibAnMMzUlAR4yZN93rUWQgmehILv91bqgFNljfBVo3oSoiqf1x1ycnsjuhFQ98fOhuW+veKZJ7vXUpgNat0+f5wmWjCq5wACDLM/y1tWBfSp3apDUxSS22XpSDoNUst4Apb5VkVqWlmVqVhWvIi331+U0Oo5Pl20pia+IKNvQFaHXIVb5XmCrVszJ/6vqWQe3S/+wO7Ue/MHE11o2ZtTgoaRdqSl+DT8Tk7vJs+085tGPktiZLZuQA6X9CxDIqRNc33wOUisWsxnJKek2YehWrSjWW1whsxU6RPFSy/pd0uq3fOCSR6WYfMt2tpJhY4IrJroCJ1v0cqhoQiL6vs0+6JVZsJQKxMYKeRA4W0uytnrTia/lYBCuc2OC2V9KqKJpwG6xWKlp159c36/IWUK5V4ExXVA1W5/baBMiK0IKb2cjetzoFsHM4EwzIquspyHC9sKNuB8NkhfmKNinSeQ6zBwlErOfXH9DadZNJETXg7Ux0DUTs7poh0vfYOWzHSIbarENKKYSYoj7JEVOKTJRtb2AZwgy0qo189XRtyQ7DUNvwfOVgG6HeW67DRpvbmy5HdPbkLusVZFUgO0mAOoOvxUlL/D6esbVirWPFVO8Fa/Sowg1Sr5BDhkWvYUryRAUAgKC2kJ08mVIvmAj6ZkQwoD4I45UaVxvOIcNm2Y6ElhMIQFF/lffWI/cgmPIr0ZM+CKVD21xPp4JdcOWcqhIwMjrVQgAgBJAYk26Qm5I9jZUs11aoGfTge0B12StUyQ4/mjhEN4/apwBX85rjtU9QQ+ak7De3AKleqkxYYa4MJrZCTbr50VP/B8DMNEHoNacphYAKaFdCmn0HPjsSUCqq4C5dssK3unQO4yGRK7Gh8GvZGzqA+c9au/AO6PRjP0mSidS7Nu2VVx1jYujLX48d+mTtSWnqatrw+s3bi8vLVl9jSZA6s0SS4lQLaltA1D6bKtOUVTbV2cVMuIZO8d57e0OizZ6s500xNU0T7a7gq0FjTqFUVEqBOVSfpBYFAMQYQ7Bb7dWTBvpWoYEtvpeFE4HKSthBl4EO2BQIA42odlalzhyIcmP5jbM+W04ffqOzxKClMREGZfWn8jtIsp9iB3ZKq9XPgM0VqlqZqPQEbOAqMH+hOLe2dFcWxXg8DqHVV8OI9JzCyOZj/cpVp5TatnXOg+Dq0FLzeu/quvbex5guLs6993VdQ/3rfYBEJyFAiNFVFSWbNNZxtW7tpc0iADNH1q0p2c71EJjrXAHJH1WBEoghXV7OFoumtffIKKNqt5U6tOUmhLQP9GNFrgCtDdwCUm2sr5gA0BlPoc5LMtjLh5kLrZHMpYamMtfLx1n0nALAxEuJKUWAmqfPK12+zrHsJ1UTgDp5RyszZYoc6G+Y0jfkohKucNbVbGHcHax9hhn6bwyY6w62QABsns0jT6iOxQKYFvXrsKljPTa7ZPFoxABIXi/rMgOgc76qSlJfwQFAK0Mnz0BU+6VI+j5gmjIJZEmsChFXFKVzPqW0WCxCaMUuppQhApnsuyPL2lHL7ka7ISRBAMKekbJxdi4M1XBXvj/Wn7hmdL2JoVg6cQ4ANp0oMuzgDILePO8Hq8Sy0VZsuAGb518rvC0/SXUiPT/QmjlGjoVbgl0g50pVe0OGrldTd/b6bH9J9BZXlazqj5q4ruUNdGc722ma+Ym2U0Oo7gZxZRCBtRtqrZvN0rOvP69mVTCwMwFcMfr7HtCqqfPW+QI1JfZ7DlCxVu5q7DC6HqJzZQ0PwHjaVUZuz0oCtti37fQAHHSv3JxNlP5L0F+0qVJkB4MPdXdVbksVyc3qELkS1VOuldCGbjP/u6Ojlf1ZYJHQnchZvzdktTr7Xw904qnP1+US40agvfFWdtR9+lOdTtVVBGZzNcsqCau2i7ohlSuhRdD74sDg68WklwxYc7Vbg2CmoFQTGfUZCl0ISt39191EsrOtTNcZ24Jb9MnIBK2VZII1GrtKuDUzlWA+fQ2oRl1LUgL9pzeP+pLmI63huQZWPkOwxbYdso+uZhC1Ut+iA8qxaWo9/ztDtCqT0Fhd/2wWWpXoKuk2NNXJqd/MKWsiKb1hYwsNBlNWR2YIWqZOCE0laNe0Zln2/A5U2VnYKrLPJgYiDa2j6coDTKwhm6u0hu38bZE9V8UBBEzMqz85hlP/dFSXsGOVt+yTAYDUW0F0OKAuarz9xUH0Ft4EAXZj6bUT6hQE7GrtCgpa8gr60nuO9C50M5id264kB276XwBR5wQg3d3LEJUFALsnmfWUcpaHO/ptn06vpErSS9B7AXU+VrPcBh31FaoiefVBqUOPCeeGbdXNdXUkul/Y7gUCCKTrMkhgVdb3CNqzjTHa9XEeZA/gnDZOagrFFmaui2Qt16lXS6fE0OpGfNond2qWnEusGPXyoteZaJYNvYty+f2VNewNaPJ37T11UkVAop+Sof31smSxLT8ERE4V5Ltiup83YljT9UUIgARpDRb0swGVaKjNLGT+CJRpS7ecNiFswogTN1SYHUqvINlevWFdElLQ34dIdt6/SaMruu2UAIC2lASgftGJm+kLOvo3QOnlStcK6S8Rgfe+KLw+4BdC0Ps3LZexuVN1u0ONk/K+fKnfb8BmvLIioc8SrTKwzsxOo2sRiOiruRFjbJpliEHrMrczVUmOZIGua1gWbPhxp1lIrqBP+h7I1YleJIuIQBtvgYWK5Gy9qgiVw34Nko0nJgJm9hhjCIHfo+VRfW4DiUT1Vvtbz6H8qJeZhAMdQhSAzkR2loGIOCdOdFMXgvnRpQHp7wc1fm8CTesF6NQ6SNkmIADAObFGhwRoYpkNjUiW+MaPDA9UeYN0SyzLqqwqEYTQLpfL9D42XbkeWj/JGFMIMYevtV9ZV7krtHWW7nv9c2WfbMVhOZVASgghLJdNDCElnWPLzQdEkGeZ+vquhKoP+B4BcQU6/1DzQQQQySIQ3LVOgupDne8MkPm/LbhDqfW6vg8626hamJgiY7fNnblLjgwAObdkXnfnRnVM80EdEOA2BIbIpQHkR6JgxjVvvyV3/7dB1BN0LK0TXqT523Zs6Zl7XBnJQ1gYECmibdumWQaN5H4MoB6wXlAxdPqheXL6RpR00Nz5qys6PN4A+49okwtofpXhFsjNE7CloLaoV/OxHav5Nb4AlXSjiu+NTNEqycZKOtGhhtNzupbYweYSmFOvNlEHUZWYkonevtdCz0tvUul/Dcv2GWh/In2DcxVWaldFD+oZQnnejltbeTeQTN2t1ynG/Orid8PNkWyaBRIRI9q2XS4bjeQ8tUGSV8m7zZyi6V0rK1s9RUT0SwlvHlwBpaq5pDMcLHF3cNCxaEz3EPWI7nMjCBBiXEGMcqaqfm9x8BeChS1I7Zw14Wr3BfOAbptxtkJsbib/3EEcAQBxIhRRnZjZ1zMC2WF2RpddoEIMGuYhJdrfdohgNxPfGimlCAtkC+f8Tq13wM2RzIEcupBtYWwRTIhIP9V3IzYaRblaj5uWUzcUuVK5Alj7mj+bd6z05lHhKDlJU3vbUYuvtAcruCpdXWebBFlaYqNurboPM7MptedRF1e/U7XrSQApJc1H620BqCP31eslK7UMU57iV8NtTDRbkFtir8Geqy0QQEREHAlzyC3ir0EgVOG6EX1+Gnkt3xbQ+N+m5/UUlUjZXxFISA46k5556KzuNuLvCRpQKaXUbV4Pqnns53Ztb2Ho5kjGQG52L5jLrgMzns0wXYlBLGzNt5K4TXOa1PmXCrmZUU9F20DYbWZAFwOifxQIxCxp73bMkaXBINYDg0SMiYAT3YnC5rbX0BlABIAb+s0mVjjU2kQwGO12nmc8iP6y/lLPabuq2kmJBO3xzgFx1ZaI+KKA7b+fxKaktCm2Wiw4AAyEExHnHHROO6PLphkAceK89yR56wf0TJ0AdLXMNDyUIr+0MQ8FTTtQ6TYMoRARndjTvMRaY6R+RHHiRJRzJZ41r/8RuMHHb4JZrj9QorrmZLNdFsf9d+bEpOOVncpOkQxCvR1icaKuo/HsRKhToDRzDkraT7FjJdKlWGrfL3Xm2GYXQWcNhhgcXeFX+Ncybduen5+XZVVV5WAFdQh2TKjHQxBTgkg9Gkmu3DlxzmPgUYlpNpuBrEe1AN77gW16xBRSjE7fE2tTFFQpRTHMrYlmVhGI94X3yTknTgB97zsEkhwFOkQQu4I1UqJ2d86LSExJ61BVDSsjURbFwf5BURS561b+QaUM0JxFK+1O0zvnR2PdgqcoSyeiXWdXgUhsmrYoiqqqACiDu0AAZBWDJOGcaFxpBIpAGfHOTyYTEWnboMIOpMsVSmcvg/eurivjU0QVnXWnAxUCUpZlWVYhnMYYAW32bM2CZAwRWTNKdij7FVAVAvZfF4U53UEg2i0zUaXp5y/6z6ome6or2CmS+7KDPlmhog4xrGUgadeWbJG+U1A+ZVrvc2iaDRAJESbqxm/DTNpmpsQQQllW7rptYs3sJlzWl5PchZLQXqh3DWEiwKIoRzUBVJVuWzXQNIHsKYTGF1Qc/V9I6FWyFhIBoeNKgWhqXdfeuaIsnPOAQNOFtpyW9UdAqJc2IiJClGUFmEoIkCn3VLkI6ZwbjWpAE032jmCG8mZK0N8CaOQyJXFOa6cRAQCSIiiKoq4r760P1Fhfob0VYlv6pkQR6vrTQFYl7qqq1KbEexs89arv/Et5HUBEnLM3ORsrtExiMiqrzjlJ3WWHkso1kKsv/9sJVwm+kt51vfqTJKHuqCxvpbAFO0VyJwHBxBRCm1Jk15goH8wZu9ybB7fCmj00oZN4O00CyBfG3fF2XfRm2kaKpIcFcBcMTsT7oqpK9emiKL33qoq+ICBOnA1SrMHJlwGEQEevBAlRX02AQETsuZTRaJSqyntXeG81E8gxC7GANwJ57CDinHMpuyGZUjLBRLSdEDKJSFEUJJ2zZnHdVUx7KkmOFZJAIiUlNYQA+kRSh5QISFEUVVUDEGsTV+NtO1TBgsy2c0Iy9Z2EiVlVtUaUiBSFF3FkpJ7eMuxc+U12bDBrLnuG2aerrlcKSXQj278ISOrUhhrfGDVuN4xzDXaKZOROM8bQtk3TLHXP+jzjFlMkxHmnXm8Op6pVK60T3A1KqyMKPdaOhiu9cQerVX3fbLOiDQJqUtNattIGNWnYhDYMWIC6l15cAIgx9qVzeWWV4sxx1PVyLOu3hjJAFUIACCNs4FeWpQDiRC3pxOk78/Sin4ldq6mmjzGCIBFjEoH33nlvmZmIYWxSnJRVCVKcE1Clu9Jf1JPMxbKIOhgaZrBjACgKD1QAvPfDq9Mr0XkJAWj0ppQcENbzgd57kSIz3M/tbRpPMbQtsxSaLlnxiv5cl5CPcs4r6vgeSDpTnfev11CK1hgTUOPsWu9ukQwA6isxtG3TtjGGHMO2qO0EcAWy+lbq35WZDrQI6/QtAgjYt6udlTZAQBXB3POtn+/buwG1rro+X0gRfavUnRRx1lk6HWCKhgQw5FUo1IEaSYrFoVG2P7MXjWkCIiKFL0RA5GGewGVfTCRT6rkVAaADIx0W9lw6J6J+oj5hbDonZVEAOiBQPtAfKDoG869EYtB02lCVVKYVAhER57w1RP0ExZD0OlRrAqh5oWJaH4WOPxHooENH14kptDGl5JyI6vsmMCsjc9PHiKXkE+YX13Gd0Ut/BbIGqDpe6fxJakubUkq6oJxiZEq0vUM4oHAzdo1kpZxijDHE/PYJDeSUYkrEdReltwCB3ml67+8sccNYR/nMRlv1tT6DRnNvViEofd+VYb4o0KhRT3U206OkNFZXSlE0SBLZxxJJjWUrus6Zea445yAgGEMgCIiIExECIQRtNZ1zOh+ms0JaxHskXeBPiaSIOG9zvAB0ShkCB2c2Nw1sgODGJYnScQkUMCGKgExMIFSHphvbAb53Kq3B9KjotCxdMPV8qKPHGKjJBEBVmvMaBg4AE9u2jTHUdb1C3EBqIfMjWhq3S7yB3jGuwc05ANA0qc2UaAKwVppksqehuraf6qPDbNdj10gGIIKUYgy22fWKUrpDETWr2lZ/9tlugtqvOxYSzhmpwSkRAbUz3EBWATvbrebS8xl2ioAwb8oyOKfqN5GGbJiHkGr1VY1T3zokhGZ00rf/BsnLPrmgQKy5QMe41QqJKYEsvIf3VoQWtKLEINDLmxhbJiHEOUlCQBeDdHyulRjvAlW3CqpcoBdHP8a21jLQFiBwegUh1kJpYHZqIsCUtMjQVUSrhrWemtJXpEN+0Ikj2d3fXhTeOS/OxZjIFGMU0TeqWsEBqJdfepwTTegs1GYpeO/1Fa3mOiC0Ud4At/U0O0GVLsga1ekUpmRbSkXtk3P725cbiHQVdopk1SYAGwPYAGAlJhSSLZ4PNnz4emQBVN+d1gWqXFDbZPWdQbkOBHIgsDtezcEciJu6GSSYdEQSOkdQGw8S3dvBrBIlP6SVKwaIPK5eZwPS+7L+zmHQ8awdLiAMKaXki8LZ8hPJZJOeWVHQ94nTCXI4CZjjtVOksq4M9lXnTICeJJkwUJAVEwjUFajhqkw7HY4RtATN2PGmtK0Gwpawu0EQoUnZXbSO3jiE1uGcANkBk3NORytAr8OuiNViZ1QVZi/VzCacczrlDmXd9LOeVZtfc4F1m27ASpPQhh2ANVUCiDiB7uNlD1EEbajUsJn2jZUodopktQaJFINeIaeUkla2WzW7g4A6IABzJfUOVTCtj5Wc2EMNpOYaHPTTM+tYKz44zlZXSs45TxfVeIOqSUI9w7l8UgubFJZZE7dAzKntGCIi4rS0OOeLwjlHvR2FDG2bUgoxFEVRFL4oS3VQna8g6FzpRIBSvZyEJLuRt2fCdGO/MiSvUEO0gcmK786vH2CoMUJjsGuYROvoqlgTn/rVZSchOYwBSNa/iAAiIiBTigBijCTF6XWODJlYAbURGypfzYVhiG8FCdPFNeD6WG87shJEdWRqJ2xMaRZJ7B5sjF0c82YmVrBbJAsAqNOEtm3bJsagurbK1ASmWIH5+o2imoBZ113yekG1pUmnHwhUEVanaL5hKeBajV+RnCEiGl25td6MZJuSWoeaZzVNg3azSkuRrj7kW0EEyJ4ggHOuLMsQY4ghhmAXrk4AibaLqKrBAACgMq8VJCaxegBA24sBeg4FAptlE1mxzZW6NGQVAYBqiVg37hADLXVHViNBZOZtiSvr1fpiUW63KFVBdKEDdO6TSA/1nSv5srpuwLqJt8F4o/LCPgEA9QH/lPJ8V4wx6lzHNbxdid0iGQBAIsTQtm3TaCTbvp4AAMkO3uk4u9OV0AzCVZ1uFlKLqXYJaOehlmC+ftgs9b0gFhJORES8d8476QTKB3qlyrRxc8x2XMtjLwQTKYA4p56HHMYHBwcxpfl8FkOIKeocCan1i3Me1MBHTEkAUpeaHYDElFICTTCtaIMlgYaiOB0sCEQVrrlvcl2l3NMU2IXhThg0inYk4pyHAP3mmGKzfPZY9aYI18BiGSDYj4UGsDSV9CZh3wMSE/PEccw3XDEDgGSd7oIbIrkzhKohap9gU2yd8nc3118SmzJrC8x8lb+CzZQBCIAkIyAiZHLJ2cyO1iOwHMzN0JYqdgHRMZ61CUCcOOdSSgJXlOXh4eGDBw8+++yvjo6O6qryhTs/P/vmmyd//OPX33777Ww2F5HCFxDROdDEROpldmm3W0WSNj9AjVBa7UNNaCjnYBcRu9wF3qWXuDWsLhERbXekcLDQIlQtmbm/PAb2+L7oGB7Giw0LCJBIKWkYq3TW6Ki9dhP3ykjW2gxU2gghtW0iJBE6sqTy0ufqy1CvSYbXTj0sGDSZGETCwJ/tT89epVdaoKrvQamR4lzu1rbE+AAr1eXD3HyDhCAJQaGQTDF6733hnbgUU4jBW6dH75xzDiIqe9LboZwNsPclAAAgAElEQVToEmiMukU2qLRJQHecKaiB5yTGFGMqikJESDqnBYOIjEajO3eOHzx4MJlM6ro6PT1ZLpcvXrwANKfzhfXh1OmoPLecYhTnCu+Lwuv9PCkG1Yiaj6ReZgukKApfOOd8XkI2y5BKKeltkiRBQERy86Y9S4hRxHnnfFF455z3MSWmFGIUwDlXlGX/0/uyKJq2BTmZTOq69kXRLJdtCCmmtm21ezKT6kBPIKKGov7pIZVJrEAFhC4d6G0qNCfK3rRSwjnnfVEUHmQIbUqpq+HW6P3NKIiK0AelAIQ4CCVPhWhAacyQTNCxlgCkUFWwlRut48pIRicETWISbRtCSIAjxSawoUoR0hSlH0D9QDle52EtsrJfAQBFkCcY7U9Pr5XRzOz7W8nGI0lbVPB6vFbb4Ngqzcd6ioDyxNwIaKwhhLBYLkej0dh7X7g2NMvloq5rkk3TjOqRM0e3u9MBFPBFXYgghFarSUx6W43zrij8eDxqQ5tiKopiPl/EGMbjEYnlcjGZTEGenZ2fFifTyeTVy5ehbX3hR6N6NpufnJxeXFwsFvMYgvfeiYuMBEVQlqV3HpCmaZdNU5ZlPZlMJuPT05OmWTbLxnnnnGMiwZSom9045yaTybgYFYWPETEGgCI6OmCMqWmWVVU7vYdZINDJXkkp6Y45l5cz73xV1+Px2Nd1WZbqMc1yKSJVVdV13bbtYrkUoPZ+PB4vm4bk0dHRvXv3ptPp69evz87PZ7NZSok6HQCAEBsrdJYyZN8UYH0VkXld0TlfFMVy2eTg1PyJQ+MDZVnUdVVVdQhhPl9Mp3tlaT3kO2CtoEC9eiVNBCIQR4joxh2EXlUhMSUm83r1QCTR634tO6QE4PpIHoIEE0JIIdjojV3gGqT7gvRhAQxi5C8KEYjQVuR0ll91hZuq3+RPg9lSOxGd96O6rqrKeZdSKryfTqd1XQNsmmo8Hom4+XwWQyQwGo2qqqyqSru4oij0pzgX2rBslov5vA3h/PxMnBOgbVsCZVk2TRNjijHMZjOAiTHGcHp28qtf/2o0Gmk8xBgvLi7evHmTUpru7YlIYnQ6mwuEEKKkqqqKwosghHBycnLy9u1kMr5zfFxWlbb+RWH3iGhwxhh1XyfYJJ9v27ZtmxDa8XhSlqUIyrIqy0LELRZzffHKeDze3z+IMVZVde/e/aIonT576L3TCXER732KsW3b+WIBYDwez+fzZdO42awsy/39/R/84Ac//elPP/nkk9Ozs6dPn/7ud7978uTJyckJc6iK/YF6jbvuyUS+YOggkGy6nQJS63HeISDZO0a+P3K9K82GJeYkSTrvlZjIlJhSCjHGGCNjAp05qI5vO5dckYg7RrKVJmMMbQi6iZeGcs/gzbrahOq603iXfAWtrjbqwB2SjyXXr7pQvkTynFUmoHhnExVFUU8m9WhUlaUIxpPx3p5GsrRtO5mMY4jPX7xYLOYk9/cPptPJeDwmARDgZDKZTCZlVaaUmmVzfn5+dn52dnpKMoRwOZuFNkbbnC2R8N6VZTWdTqfTvdFoFELbtq6qSgBF4SeTyWhUz+dVXVUhxhDasvRAAchyuYgxeu9r7Rg1tmO4f//+wcF+WZZtG1LSYTxERN+KBGC5XDRNa84U2rOz89PT0/OzM+dUj857XxSlc9K2hYbxnTt3Hj9+fH5+kWI6OjoW51Ky2Rum5Lyvq2o6neqw5fT0lEBRFBcXF8vlUjPs7+9PptOj4+NHjx8fHx+nGJ89e1aW5YrdBj8InYjrT+6O7EHqIKuOQCLPlqeks5jvVMfOIKkLCkwpxpSS3qmR+olsWzn36yW3YYdI1nZAkJhCDG3bLJtlCEF75dxcrEfLDlDj3Dx3bcitBnP0a5qZWKz31VlA7Qq0YxFxK1RXWsfboa6qu3fvHh4dHRzs7+/tffzJxz/84Q9Ho5GIhBCm0+l8Pvvtb794/erVfLE4Ojo8ODjY29v33nnvq6qcTMaTyXQyGZdl5bwLbXt6evr8+fOXr169eP78mydPnj55+vLlq9FoXBRFSunDDz68d//+ZDLZ3987ODg8Pj66d/fevXv3xpMJycvLi3/+53/+5S9/efL2pA1B1eCciPgQCrJdLhZHR4cfffjRBx9+cHh4OJlMiqJYLOYvX75qmmXbtE3bAPCFL7zf29u7c+fOgwcPDo+OyqIKoT0/v3jyzTffPHny9MmT716+PDs7a5qmLAvnXNM0k8nk4cMHH3zwwYcffvjhhx+NRqO2bZ89+3Y+X4QQ2qYJIYQQ6tFoNBpNJpP9vb29vb3ReFwUhXMuxnh2evrt8+ffvXhxdn7+4sWL//iP/3j18iVEnj9//s0338wuL9c9YeBi6jOymrgDODD/sBfqflNnPXTy/3a0bw8mxphE7IYr+85hrEgx0q868BW4OZIF0LWElFJoQ9s2Qe8r0yaEiarT20D7VCv3TpHVBfMaqAyRAjgR7xyxMhlCiHQrPZnEjiwksm3b2ewyxXhxcT6Zjh89fPjw4cP9/b0Y097e9Ozs/MmTpy9evHjz5s3JyYlzzjsnTsqyGI/HRVnUVX1wsH94eHh0dPzgwf179+4/ePDg9PTszZvXP/rRj3/7299++eXv3r59e3l5uVw2F5eXRVleXl5qFP34xz/++JNP7t+/W5ZICYvF8eHhUVEUMSURKUt9+1kkUZbF8fHxD37wg7/6q88+/fTT6WR6fnHx4sWLb7999vbtiVLTlx6KiHMSYhiPx3fv3JnPZx+Gjx4//mB//2A6naYYT8/O/vSnPxZFMR6PdecG5+TTTz/59NMf/uhHPzw+Pp5Op1VVf/vtt8+fP//666/n80WM+c7DlMqiKMuyLMvJZDKZTqeTyb179x49evTgwYMPP/jg408+ubi4OD8/Pz09ffny5W9/+9v5YnF5cTGbzUKMN0bSVT6wM1bMroGtfTITAYFsTKO9V5CJKVH0GZgU9V+0sNKRUSLXm5wrcEMkKw3VV0qpDSGEkGJKMaaQUky6Yk8BNGC0wM1Vk+z0dF1uM5UIAWqIisjAhJ059VvzaBEREdftmWwQQSKYaBmUcygXMnQPbaSVEkQEiDFeXl7O53MyLZtlCO3e3t6HH31YVVVKqa7hvZvPZ9999+L3v//q8vJyNpstFouUUlmWe3vTlKJz7vDw8P79+48/+OB//u3f/vSnf/3ZZx8+eHDQth9dXC7u3LlT1/Uv/9f/Oj09XS4Xr1+/urg4TykBePz48c9//vPxeDSZIEaQqKpCp5FF4L0vy0InrkTk6Ojoxz/+8T/+4z/+zf/4mw8+OHx70v7bv/3bV1/97ne/++rtmzfinN6oZ+0pOZ/Pi8Lv7e0/f/7ik0++++yz8/v3H0ynk8TUtss3b94458bjEcmU0nQ6+Zu/+Ztf/OIXf/u3P3EO8znevDn55S//9V//9V///Oc/N00LHZ2SJAV2Zee9L8uyqqpPP/n0v/+P/z7dm37y8Sc//NHjskTb4uXL83/5//7l91999fTp06ZtxuNxSvpugPeDbtRH+1OstgMCEfG+ECeMvTdsQG4c3G85J7D+sPdWdVVCLwnzFXJKSQOcOhmVEtSl7SZh5WidNblmv2tsiMHE0LYhRBGXEkOMTIDWos0nIaBslaQHuxHxdbAwEzsAUkoxBOpihm1eQ1WMqWS16RLR/sMlcmX4jo5n/XbOixOnTaHpSABA3d17X+jqhHMi0rYtRMjUNI2Im0wmo9GoLP1iEUk0zfLt2zdv3r45vzj3zk2nk/F4FEIQkaoq21YIhhBfvHjx8tWr+WwWQrh37+7BwaiukdLo4cOHH3/88W9+8xvv3WQyFtElKBdT1Abi8vLT0k3ncywWyxjTcrkgub+/N58vLi8vQojipCrLX/zi5//wD//Pj3/846Oj6bLB06dPv/jii88///zk5FSAw6Mj0wLQtm3TLouycOKKwp+enX7+vz//9a9/PZlMJpOp9+677757+vTJdDotiiLE+FefffZ3f/d3f//3v/joox+khJQwm81fv371+99/9fXXfxBx+qhDSinFGOxNHQBJphhCK/jjn77+7uWLk7dvf/azn/39P/w8RRA4Pt7/+S9+dnCw/0//9E9f//GPFxcX3nnJN3gppPtaTTJ01u98yxxCSJWV6if5hOjdLx2ciA495vNZaPXp6DVHJXD1augQInlqSmEt2mqiiDjRm3MJJu2hU4wx5S3QaF5NANrtKYW1CWUBAF4ZyWv8Ekgp6eOMIkIi6W6AOjVg1W0U24Apg0pD2dpEr0A7EGEeNkO0p7W+V2VaqTZ3oaKENirIjYOdEzsQUUI5f1GUhS/0dIwxxqiqdc6pDEVRjEajovDOQRefmqY5Oz+bz2ahbXV9WcSVZfe2Z6YYF4uFbtVweHB4dnYWUwJAIIQ4n88vZ5cxhqIoRqN6sVy2bVvVVYxh2Szn89liuYhAjFG7rBiDrnympK/FSEIvgsPDw/sP7t+5My1LLBaoqvLw8PDRo0cpcTabNU2jAnrvQ2ibZeOciEeMaT6fh7Y9Oztzzo1Gozt37xaF//iTjxfz+XLZMCXv/Wg0mu5N67ok4ESn5cq6rqqqVN+wsZnA5ac/7XksppTS5eXl+fn513/8+sOPPnRi2q9r3L1z59HjR1VVUm9iBNf8FVj/NUTnAF2WnEKor6ifmtco1smJSJ5Y6UJomEcADnzzSoj9rSRshoZzzjlPJugNGok62FVeqUwwgaaKARXZIHdtn4wsCgEmRJuSTKKOrGMCkusLZTdAVaoLx/rzVsVvQI7R64l63YlKAEFKCboDD9Cv2IHj8aiqqrZpFovFfLFomgZkUZRVVRZl4Z2vyrKqKm23i8InommWs8tZCEEEi8VCw76ua+8LnQEKITZt2yyXiXTe1XU9Ho9F0CyhV6S//e1vL2ezsiwnk/F8sWjbpqqrGGLbtCRDCPO5NiKl8w6Qpmlms8sQo3NCeu+dc+7i4vz05KT94LH3KAp8/PFHzrmDg/1/+Zd/+eKLL169ehVCAFDXddMsF4tFWRZlWdV1VZSld+7o6CiE4Ivi3r17H3300f3793/1b//29Omfm6ZZLObffffizevXB/v7Vb1XFNjbqx8+fPiTn/zk1avXT548XS6XbWRKSQC7vYyMTCLQFrQsCghms8vZ5WVZQdtk59C27ezycjafxRhHo1FM5tD/ZegiR906MaWkd7b/peCc84VPUUS0mbO7NpUH5aYLMQA5HIcHPTYjuVOfZSVAWqfUQUmvj1r/wtD4VLZERPt1615FNHTX5euiesCp2J6GMNtZ22JkABIE2TR5g36yKsvCe3GuLApxjkxt2yyWi/l87pwTwWw+P9ifHh4e/ujHP0pM0+lkNpvpFv++8ALElKbTaVVV+/v7d+7effjgwU9/+tNPP/1hivGLL//89MnTZ8+effnlF7//wx/atoVgPl9UVVV4n2Lc29t7/PjR/QcPDg8PRyP4okgRJO7evfPw4cMXL160bSMizrkQwmKx+NWvfnVxcfnixYuPPvrBgwf39/cP7t+/V5blo0cPX79+/fbt2+++++7k5KRpmja0KUbnvC+8zipXZTkeT9SDRqNxCO3zb79t29YXng1fvXod43865z/77Cef/vCH9+7dm04mzrmf/eznjx49/uqr37948d3rV69evX7dNI1zonM3MUVAnBPvi4ODg3v37v30p//tr//6r5sGTRPevj3505/+9OUXX3z55Zdv356IyNn5WV2P1jZOvb5pfhcIBNAYEbGZZPuklPQdhnmvlxxL7wfqZ957EQkMAJhSjPpcY4wxxhRjDDGFmOKOUbYZyQotnIM56e14uZauvdypivcE5oaoC2bkJf8rYjhDBDoo6hspEdHbFpiSXqhAxHbMBfWjHZfm9t4XRSHO5VUKUp9ES1GcE0EMQRxGo9Gd4+MH9+8LsFw2bdu0IQAgmVIajUbTyWRvb+/hw4ePP/jg3r17i8Xi3//937/88suvv/76+fMXr1+/Ojs7K4pC57z39/cL7xfL5fHx8Ucf/WA8Gi3m8xffXWg7DXA0Gj9+/CjE0DQNiBjD5eXlxeXls2fP5ovF5eXlJ598/NFHP3j06NF0OimK4v79e/fv309M3z779uWrl8vFMsSQUv8e7EQ6kbIsF8vlYj5v23B2dvbixYvZbJ5SYkqLsHj16tV//OY/Ts9OX79+fe/evaPj44ODg729vUePHgNycHB4dHR0dHw8m82CbvaWYowRgBPni+LOnePHjz/45JNPq6r+z//9xfnF+Xffvfzqq9999dVXT5/+eTweO+dSSqr2v6h/iX7ZrWGiNkq6hhtT7+QANOBXL3Nvh4Ek2X/hnBMRjdWUkj7lpjPJNCa0i95JDWuRrGWG3yYvwZhiCCHq84yWfxNyXUx9L6xc4twGhEYzwf4+UNDmEqF+LJDVOUnJzXX+KZJSapvGee8E3vmqqkb1SB+tKIpSBDHG+Xwhzh0eHuoNJEVRxHxX8/7+XlVVFxeXMYYnT578+69//fzFiyffPLm8vJjNZvP5fDQa1XV9enpWVeWdO3cePXy4v7+/WC4fP3r06NGjy8vZbz7/fLlYFEVZlkVZVU2z/OCDD4uybJbLtm1fvnw5Xyy8c1VVL+aLX/36V//5n/+5tze9d+/enbt3j4+Oy7K4c/fup598SvLw4KC6X4cQlouFDvgXi2XTNmdn5y9ffvfs2bOXL1+JWJu3XC5DCDGlyXhcVdXZ6dmXX3zx5JtvUkqTyeTu3Xt37909Pr5zsH9QVdUnn3z82Wc/mc1mr169DqENIcQYAXEivijqqqpHo9evX/3ud1/+5jefv379+vLyUp17b28aQnDOHR8fk2Die+4Kr4UFcjeBTJ1TpTYo7NzlnZsXkoMwXj1hwRVCm3RlAlSOdJivo4NhZG1S6SK540+pAMiODp1EZGJs22XbttRqqKGxtfPfrKjL1rVsWTmbefu70gZJAESKsiy8104YorNmIqogEZJN08SUqrrWK+EQo3POe5eoDYGyLa573axI3tVDlBKURaHOq4UYvZeiLGIIAMqqatu2aZsQA8DRaOS99x5VVaWIk5OTr37/1dMnT2az2f7+QVVV4qRpGqakTuycm8/nbduGEC5ns8uLi/OLCxB6OT2d7k33pkVZOnFVVS2XS3Euxfjy5cvz8/NE6u0c2kA45xKZYgoxMDHEsGyalJKuSJVlWZYFyeVy+ebN26ZpLs7PQ4yjb7755k9/atq2bVoIYtDHVFsyiXNt08xms9PT0/l8EUJbFKVzDkIR8RkpcbFYLJvlcrkkcH5+8fr1671n+5PJpCzL0WgymUzG41Hbhovzc9V4Skn7gBBCXdeTySSldHp6+uzZs5TovavrOiXGkJbLRqfQSLOWmSkba+Xn7iD0BtumbYqycM7pWrr3zokDmBKd80WBsiydcwB14QMAIDaHB9GoznGxM0wMCmzVUN1OdUMmgCnFENoQ2hiDCHTol8uaMraFlUG29cnKpX6LVg9AhEyxDW0ILWBRgZVQ1jDYXllnkc4WnUZyGzfUTrfBzgCkAGVR+KLQaoiskByCJJumSTFWVeW8BxntXRCOIWqNptRcncD6HZIdOT2jkcw2wEvhixCCExmPx6LPJ0UpinI8HnvvnUNVFSnhcjZ7/fr1kydP3r59e3Bw4Jxr2zCfz2KMvii0qeiUpeurB/v7ZVUV3hPQIIgxarsjIqFtnXNn5+dv3r4NIaQYmae7BEj5sQfnPMlRPXKHMp1MtG8vqyqGEEIE4L1v23Y2n5+8ffvs2bPlcrlYLOfzuV6YNcul834yHi+bpm3aGMNkMt3b26vrCkAIAb5wTucl7DmhQh8cKoq2aU5OTi4uLkRc24ayKKu6LvLjXHVdibi2bZfL5XK5WC6X4/F4b29/Npu1bQvw8PBoOp2KyHKxaNtWr2KqqmqWTaKuixjW/WFnKBHvXBS0TQMbwEdxrhDvvT6xELx34qSq7DlQJ2quTITqJrLRuuyEHCV5zcYBEDLpQBogKdrSJduizInN3vc9kBZXV9/UxjCSOw71oHM5Il9FRLuj4HphNmt5D+CAv1uBpCrLCKy2EZ21hmaznyRJ55xAQrQO+eDg4N7du847Mn300Uej0YgkibJECLhzfOf//cd/PD46+uMf/1iW5WKxPDs7Bexho6Io6roejcZ1Xdej+mB/fzKZjMbj8Xg8quuiKLTe0WhUlqUvihACU3LO13VVliUgIYa2aWKMZVnu7e3rgDAm9Xl9trEoi2KxWCyXy6ZtY7QXeYpzzjlt2jSkZ7PZbDZbzOfz+fzs/NyWps7OmFhWZVmWsFl9ANBKvHfLZZPIg4ODo6PDw8Mj591isTg9ORHnxqPx3bv35rP56dlp07Te7so+BuTly5fL5YI82NvbL8tSBCcnJyml6XRvOp0CeP3qlS/8nePjO3fvVFVN8s9/fnZ6cpqt8V8Egc6EOOR1x84rdBz6vXyb/Y0yAhGBDd+hgZrIpDsAaOiq4zJ/r1PbwDUzXtZ/6PA3pZSSzewlZQGANRICaGcrYv8br6qHHdhYRabYkczqXCe0ls3qWwVTirCW1LjdkivLatAuGgC8L0QYguoXKaWiLEejGmTTNE+fPD07O6/rWgRNs7y8vLy4uCzKcv/gwDtX6M7SQFXVRVnoqtVoNK7rqqqqyWSiTziUReGcExGSMaXFYrFsGieSEkVfGQGSrKpKV61C2xZlub+3p/mZUgghhEhQexLtA2NKbaNjKBRFUZaVc5JS0mFLWRRHR0dhOl0sFqPRuG0bQCbjyXw+CyEkkiktlku1t4hUdX2wv0/Se7+/v19VlfdFVZVlUTpxZVXWVT0ej4qirOq6bduUkgg0MI6ODtt2SqYyXxeIuKh33RSF9/7+gwfaaoi4pmliiDFvEpwt8t6gfgsjbfT12Dl4b5GslwPavAJbfO9WEOgzlkOHHfohAeoVeozdjJehy3Q9NiOZ2aE7PWpvbNBFr5XZCBERMQ7t//yXKWjGW0Ayenrr6LTSZevyDDMnUuzVjSK2PtgHageuPBWnLZWIuKJwMcUQWl0Qury40JFPYvr22bOzs7Pz8/MQWufcfD4juDfdA5hIAGVZHhwekiRxdHxU6GqvfouQnM8XM10gJkm76ffy8kJnmHT4XVW1CLz30+ne4dHh4cFhYvLOXVxcaH9blGXbNLP5fD6baVd8cX4eQqhHo8V8Pp8vAIxG9XQ6hUizXNqNH+Px3Tt3irKceO+cF0FV1YvFXO/cuLi4uLi4WMzny6ZJMU6n0/F4/PDhw+l0OhqNqqo6PT19/fqNc9OiKPb29/b29kC8fPlqOp3eu3fPObm8nL19+/b87KysyoODQxHRcXiMaTqdHh0dLpfNyclJSnF/f//TTz+NMZ6env7hD384OzsjmeKuHnxr6HAVAKAxpRMBuiFJUXjnHIk2hBBiXUMEpHBQ6tYQAWg3ekn3rUcQiIacjXoNISaxqN6t4s3r5O6gD0LSbrqOIcaUSLtTlEPn/78HqiYRNQJJXazSUHfOETovOiyjPwZJekHE5FyRUooheu8TuVw2p6dn5+fny+XCOVeW9s6xlOJiMU9Mk/FYxInAF8X+/v7x8fHdu3eVBdFnLFfaIJBCqEpjDBGkdlPKhPe+qiodRZ+dnZ6enorIeDI+ODi4e+cOiRDaxXJ5fnZ2cXHhi4IpNU0bU0wxLRbLelQfHR0BaJrm7duTsiyLwu/vH4gIgLcnJ1VZVVXZNEtVWtO0gOwfHJRlORqNj4+PnXNlqc85y2w2Ux2pa9WjuuvnU0ziXF3XoQ1v375RDUynE5JMnM1mIhBxB4eHzjnnHMmiKI6Pj2OMi8Xi888/V3XHGEleXFyUZZWV8N6g0Uh2Emji0ItFL0NERC9aREN91THeadZrA8aCZPJkjuOUovbPyhhBzTHsnzaxFsmWmQCMYSGEQIypadrBg8lZKSaQCNQzs+wDyPUsbENfYgu962DqEQ0ZNZsl2beeANYMZGe7Q/sWANocp8QYYpTUNE20hb4EYDQaAWiaJqXovXfO11VVlKVAnLjCF66qmVLb6p4hupYgah8AiczjqgSIc07DRt3dOV9VZYyxbdsQ2mXThLZtmma5WJ6dnpEgU0pcLBfNclnVNcimbXWSfLFYVFWlk09N27ZtWxSFiPPep5RCCIvFIo2SOGnbQFjbXBSFc1JX9dERCJRFUdd1jGm+mJ+enDRty4vLZtkQLHxRFD6RbRuKsi2LcjQatW0IIZDRe69jaTItFgsQ4lCWBWAjfJ0FWDZL7b1FpCxLZ+92SyBvY/YbQJ2Ldg45KpxzIo4aKRpVpI3LREQQY2RKotPXYmu/AASDBei+hnUMWc8+ae4Egujv+iQEIqREvVtTh7x2aWz57WPlt2NzdK0V92GsBEJMi0XTtlF7e/vkzALR6IEA+T8jp+LfFhqLIpmeNRE3QplzxgMSqawYEZjVxCare6xQ1+JORPegTfTOhxCSOF/4+WweUzg6OvL53YhN08zni729qT6xeHh4uLe319GPwfaF7KiTIKkuqxT0u67rqqq0XwJQloU+FBhCAMQ5Px6PSbRt+913L//0pz+mxPF4/MEHHxweHh4cHMYYQwje+fF4AqBp2rYNl5eXzjkmjseT/f19kufnZ4vFMsZYFAVp7UgIbdM0+mrly9nl3Tt37969E0IgCZHlYuGcE0CfQIwxjMbj/f19EZdCO5vNxImf+PF4PB4jxtS2jV6rV1VZVeOqqrTtmM/nJJzI+fn52fn52dmZzgXWdeWcWy4TAJCTySS7/U5GvwEkiLIotOFQW5RFaeeyFyRSYoopghSRGGOy/fEBSr5gHviMXOmRAgzdVUhYQK0i+6R2linR7upKuTuGQARULo2AXHHr93oka3alko9FBDFyuWxiSqQw6d3etKZzELcaexCojlQLN5nD/PzKXFRjbFADAoEAACAASURBVFHFGghYTABikahatUZB8yCzO6C4Xrn1Ob7QgaJmcN6VRbHcWxK8c3xcVmXh/f7+vojMF/O7d+/s7+9570VE63ROnDjoLSVtA4gTHWI756QsSxFtCyycY4gxRUBSiqENTduEEJbLZQgxtO1cr3oXC0Dm8xmpFOT58+dv3rwdjeqqqup6NB6P5rO58248Hk+n08lk4pxr23axWO7t7RWF//+Je9MmyZHkSvCpGQCPiDy7q6p5NDkyKxTOQSF7vs/+fIrM/oA5uOyV7eaMTHcVs47IzLjcATN9++Gp4XD3iIysKnJfRkQCBjM1Pe2CAXj58qW7A3ETexj6UiZLaTcMVy9edLk7HPavX79+9erVOI7TVGot4zilZBeXlzcfP97c3IzTBEBT/WmaLq8uX796vdvtxnFSALjHkj7iMY9yOIx6hdhUpjKVh/3D/f3DOOoxTJl3sYYUeGqUnwYDgOCKNt8jbl5Ap7pbM3XX7tS9XzmnhaP+WFhrnAS2WNWKMqDnGlwLyu7ueumlNENqbBxZeUY3x5H8GGqteqcZET2Ju5NtFLTmsrUYEtuM0HAEZ6rHNrSETS6zRdnPgNQAAIokxOHMVWAT1w3bs77vLy+ucs5dl3PuUk455a7LpRRL9vr1q4uLi4uLi6+++moYhnE8fPnll1dXl4fD4f7+XrPonHPOXUpWqx8OB0OEckrRweac5zB25+3t7d3tLcxKKepgHx4exnGstY7jdHd3e3Nzc3t7NwwDgL7vLi8vAbu+vnb/2Hfdy1cvX79+3XXd/mGfcrq6usq52+12Xdfl3AF2eXEx7AbEPamkPRh9303T1Pfdy5ev+qFPZrXWYdgNQ9/3wzSN4zTtdruLi4tf/vKLu7u7+/s7J8dx3D883N3dHQ6H3W735s3bvu8/fPh4OIxe3Sx1Xeq67ubm9u7u7v7+4eHh4XA4kH44jHo5USnVzPqua6sH/wowKJZXhp4PSSdlnaRBPtv9bAPaDq8fC2uDcgAAsbxxOxqyuD2kJY5oDklxoYhe4Zy6nhXJTpRaxvHgTpBTKZpFbCqw1vWZDNPiGetIPMNBgLEoZMApITsNxbMg3b26JzNTxGgUTc5k19nXJ0dmMtjV5dUvfvELxWPX5dyed3N3AH3Xd7nrcr65uQFZapmmaRj6aZpIKpu7bCK7uFlqgWyWUtZbXShDuTvv7+5ubm/v7+4e9vtxPCBeW1kOh8M4Hmp1M9vtBjNTL2eWdrud7m+nlHLKJK+vr1Myd7579+1u983V1ZUWnC8udpeXl77ff/jw0WtNOb98+eLlyxfDMHz33Xfu9erFC+jNMKWY3l4wDAa4e84dDPUf/3GaihnevHmTc6613t3ff3j//ofr6zdv3ry4egHY7e2dlgMB67ruw/v3d/f3pRS1TbOm1Y503WX4KoGf1uM9DZII4xtA0oHjQaCTBrQbC8tnAwD1ST+BOTPjaYUwyBcS6fICnxe99F+tVds3GOqxbce+xrMiGWStdRwn9+rOWuOdnrPuTVUoWJQwS95an/lC/MFcnECMwc/wqGLPUyPnPjlniBkzd6dOtpkNaIMnAGGuNfaH/YcP2pwQTpBzHoZeGihl6vruYrdLKUENKmtK6fLywp1eK5tx5vbVorFTJJvZPGF2NbxlmsZpjCFo0bdNIeuSbmbqWkuJDq2UcnFx8ee//vXFxUXXdW/evCnT9MP1D2bp/v7uj3/4Y63V3adpzDmnlG8+3lhKWknu+36/f9jtdm/fvr25+Xh9fZ1yrqXAbBgGvYhrt7vA/CSJmQHDsEvJfvvb37589eqrr7568/r1fd9/++7dh/cfLi8vLy+vbm/vPnx4Px7G3HWXl5facJJzStaz7wCUUqb2HH9qLyR3VzBvwUdmhJ8JYuVaj9MjqdjKufXJ0cAgXHTOpsPP4s3O+bAB84AZIOnOCF93tM5ANRI4R2LBJpJPMoYGSNRadbvfqX6GIMjQNm0ZQc8SSgWKgXYNLSqiLEHlWbc0pxqKyj4J6uscnrVfClDozMfb3CdYXSf58cPH6x+ua/VaS6nVa+2H4c3r1+4cx8PHm4/JbBiGYRhSTiDff3hP8k/+5FdlKg/7fUqWLKWUCMomBAEoiJOessc8eHJSPVXu+85M24yK645x13Vd7CJ0r+M4kt51udaakv3pn/7pq1evLi4u/sN/+Pf7/eG3v/1HEtfXP3z48MEsaQnt9vbj3d3txcVl33ckdrvdbrc7HA6//vWvv/jii2kq33//Qynl/v4+5/yrX/3q/v7+9u526Id5hN913du3b9++fVtr/a//7b9+8csv/u7v/u7f/OW/cefNzS15MwzDixcvHx4ebm5uSylXV5dXV1evXr3qus5Mt0bZdfn+/v7jh4+h5FB1HEn9q4D5pME+F0GQ4dbbiyTa7McsubfOULysMwIATK7/fNi6Ro0xgxFALg4na433eeiSu8eQRaUexxLJR3JtQHhlPNUStEXdwhAkQdgyF5AKmrzShxlgqemTQjyDHsUAmLVgD4jKU+yt4O4EckrJYkAuUjNJ/UclramarRsLtofOcgbZidcUi9XIWuiCpaQBEgC8fvVa1ko5X15eGqCoJRAaAoFoWZaKyNlVbI5ycd5Y0kGNzRJ6PbWZpZwxjuPvfvf/9n3/+vWb//SffrPfH/7hH/7vaZpevnz5n//z/3l1dZXMbu9uv//++x9+uP53/+6v+3744x//MAw7gN9+++2rV6/+/M9//etf/8UXX3zxV3/1V//lv/xf19fXf/u3f9v3vTu7rtvv9x8/fri9vbu6uvy3//b/eP/+/d3d7W9+85vr6/cfPny4unphlr744ovf/OY3v/zlF//0T//06uWrl69e/f73v3vz5s3f/M3ffPz4sVZ/+fLFb3/7/3z33bf/8T/+jbt///13+/3+5ubm+vr6+vr9PBTv9LEO91qrha//HCAITd0Q9idP12HNUkom7wZQSp0mzQhIoGUnsOpGhXPOeZxF7hY05OIJoJlePGiAgaCzep2mUmpNKQNGwgn3CM/tyHVTbUTynLblyQAjQKK6a1BXa22hvOSNI2kqKlIGM2ObpVLUzghJAE+1cOd0dQYEtNyVtICsUktYQKcA5ktKi5T5lIRcKbQ8b1EIqVPKu2XfgnjjbreDGcFkKelLvOE9S7bFmVRK3fQKa17NsrJtpbeuy+6xUDaO03fffTcMO01ca616mAnAl19++fr1a9KHDzs1wH/2Z382DMPDw33f96XU6+vrlFJKueu6X/zil3/91//+d7/7PYlf/vLLq6tLiyX36e3btz/88MPFxeVf/MVfdLkbht1f/uVf/uEPf3h4eAAs5+71qzd/9md//tVXv/rw4cOXX3755Zdf7ff7X3311d/+7d+9e/duv99fXl7+7//9h1pr33evX73+xS/e/vM/vyulfPfd92WaSil93wP09pag0Pzj/vCZkNPZrFgS1sw2I6WUsxrSlHJSCdt6bftz4jwnODZrYyJOFukWIiScLNWnWmps+TaPSJPfPVXjE6PrpZiv5uI13k6iAS8X/lTGoARSobG5Ti5LdgDMDJZA8ulbVZJi686PQZlySqo7YJuQ+vnQjBrHcbAkUT4Dw6YhN0PMRs6K3ZIiR2i1wZBzX2u5vx+9Vks1pfTyxctXr17d3NweDocvv/zi/v7+sN9fX19P00hSC87jOF5fX/d9v9/vp2mqtQK4v3949+7d99//cHGxu7n5uNvtXr58qZtDpZTb29u+71+9ellKubu7++GH6+o15/Tdt9+O4/jmzdv7+/vD4XBxefmhDZj3+8P799ck+6Hf7XYvXrxw9/v7+5ubm+++/e5//I9/0It7v/766w/vP7QnK9D3vbsfDjGp7rpeOpOD/etA65op5a7v+q6rXdd3nZ4MlbOrUZVrA80tnweFAYEw6NHlhoiy1eiarfpP4hkrXm3RZQV39Qiq5jG+Vs0QEIHtTkSLi5SMNPX6kdECc6kNzKJVbRlsadsWHJ3Ppycx8TiiKcYRMdJsMwZ/CqrOIAFFZ1XyOYyczUOUaSJweXGh+47TNN7c3nz99Td///d/X2t59+6dnpf67//9v/X9APBwGB8e7vf7/e3tTdd1t7e3gJGu3d3ffPON3mi93+/fvfv24eHhw4cPpUzTOOUu73a73e7i66+/rrV+/fXXpE9TmcaRYM7dzc3HcRy/+eafP3z4oGeS+77LuXt4uL+5uelydxgPo/aXTdObt28vLy/fvfv2m2/++X/9z//5z+/e7ff7i92uHwbTO5+lWY2H1NY9T9XPQfOdmOw8olyLumHtR4n6hE2L5Z8J1riyZe2zrXitsBoCi+3zevl0JFMLs5q+1LjftYSxcoDE3FitMasDgHgFwGX1tmnnTNFzMGAdzBtrPB5hjzYNT8DkSjpqaTFTeLSiDYJP/T6vyCm2epEc1atZ6ocBcferPDzs3b/7/vvvZ6OY4fe//yczgHBqEaW+f/8ht13igPV9f3t79/vf/9M4jjmn7777Pobs9MNhrLW8ePFy6Hsz+/6HH0opP/zwfUqpVn94uB+G3YsXV+/evStlenjYf/fdd13X7XaDO3WLS+tk7q5u4HDYa/z/9ddf//GPf/z48aNus/V9vxuGQ1vilpCub6ysRjc/HQoYKUSdyrH7gKTTNaB1/XhEGJoFm88/4W2fh5mpCLRVBNfWZa6jTWyf8aizkbz1e/XJXmu7tRViRhgTWjkK+YlYXbDmywuhWSOkGWHauLEO41k/JyVnxs/QfVqvdqbf/pfBsd5W9c6qD5GfieOMhJl1XU+y6IM+5G63S2a1+v39Pd1z17XZXlIha+8h092Hq8vLqcDMXr16dXt7e319fXGxS6kfx4NG3SSGoR+Gq1rK3TS6s+/73U5TcSddH6us1clKusbGYmaapmkaLy8vb25ufve7393e3j48PEzTqL0l33wzPDzcf/x40/f9xcVl1+Xqfnd/X2vJOQ/DDs2bzZLhRxlOrr5Afh/XSChEV2sfAa91InPyUsrUfspU5HprS8b+iB/B2xaMYAAAhZXHwrUi2H25hSn1OpFWuzM2OI3ktc8ZAALuLMWnWrnyzvhfIQtQanIntVt9KQ7CDKTNq1+nNlqUvU6FlA95STQFCNdUXZELMZOfU57GOSM0wTfht2DdyDDaniYM0AzSpFvSDYBJBcCa+ichimh1IRQpGMBSKsk+XliDYRjozDmrTjPpDQYzSzklT64lLqC6x43ivuvc6e5935Nw10an3HX54WGkM3c5584M8i3A+r4zGOnuRFvkB+DuMnOtvt8fDofDw8PDNBWAtfo4jvv9oZaSA8liUwSXARrZ5NZU5jk4ynWu0EJJfgSeyWcG1OopWd/1ez6UqYzj2Pe9JfPqKZmZsTnCZ9+FWqH5svgwWDJzgNVZSmlLy0tf3NpJUn3gKe/nIhnH+bRwXWsplYCFCCYWoB5YZVqtOcNSAsB4CzkAmIXsZthUYaIpT42jmVmVDVEiv5k+5GlW2+svQVbGM3GRMkMpR0o/sYGBmqyv/SfaHWUIHhGiECLd8ocOEAK1Q5iksTj9HFAsbQctuoFiMNNXEb3rOpillPTgBBAlqFBzzTsNsNx1OWVYAlFrfbjfm+Hy6mq/f3Bnzjmn5CllreLCwq37IZm5e62OaKYTCTpl/ZQM0FfXHTKNV/cKIKV0eXnR95oJs9Yp5Xw56OkFDfI3DYG7r7zrOTjpoix+Vyly1BmUgo5yKVDdPee82+1ubqzWMk3jMAw55VqqNrm66zVSPxGLnxrEnslgLYxDFUCbQgM6eMyJzkayECUI+Px2/FXbsMlqpmY1irSI3eaCDDRz0ogsXgpA/XfLcgYGKJSWJJKnlf2rYpapHax76+Xqj+KQkBUFAywndz8c9jmlbujcOU1lbV+TPZIGqKAaVPetDxjaXYm+7wHb7/cEuy6n+LbO2Pc9gFpKAc1sGHrASGqTlpkakJRz0phw7aCq4vLiIuWsSzmnYbgax2m/f1hyWNI9efGj4orkOc/jUJ6jnMcFDWoVrAXDMZeCOy0tnnzq5AGzmL4f1/PZ2HIS4scMFQiGQ6fKGr8SpxUMPBHJARJtmrwM39dCGsJtUkpm8aUVamurMpia2ZUzBpYUm5c3jjncwADZmatjYOXpyrY0F4Ay80eMhTZkSEBsnrPvKaTuz63yFMQiXYhsBqCUkne7eYtlmt/GCEDOmJKRTsI9HOKEHQPMrFamhJy7UirpDnaGlFKtE2BIyaunhJSytZvM1t7sY2bu1ITuhDxgBrKUiURKllNOZik+CEyENCpGxKBoKTwfPYVth3sOUYkBCo3j6wCkH0fOIdZRJLfiMLSV0J8HsoBZTNlU6cabSfpq+To8/wSfiGR5gNbR1piD2WBmlrQZQjtWYwal/iAiVC54QtsgEsAmao5zrmAm0SXq+Xxrw82RYG1w/3xY/C5nIGjb9wQ9giZSE+uTBZ6H9chnha7rdrvdch42J0m4O7T37YwHagvE/f1d3w9v3768ubk57EeLpx2H29u7lNJut2N7lmCGmak3dqd2j0rHR9l06XAY2XbIdbm7vLxAeCsp55WjHhV+HqTp49RjGMwe8xeB8cWJlFNOKekOny7J57bZfwaYAbCUjEjGdKpkoFmR1NUnVPTpSHZ3PWIad6yl84iPoGxmySxrwhPjXIJYhfFCM3AUI0cQ7aMrK1tLuNW1BSb1nKMqq5uZIRqpx4j8vAhtPdJ7pByfm1kENNPU9Ax7WjY0u7i48FqnccxdB3KKd5IA0kBIiWSGlBxI7qfuSCfdu65LZofDgWTu1PHWKd4xoqljR3Ka9Gk4i1cIpqRmnfT54U2SW39jSvnFiysAIJysXsv8DcefhrDmPJr7aSBpxpQsJTNrq4XHOE15FqT3Y+0/ArVusePNjKTGwaFcOxMZOIrk+bL4NQAE3bUkX4u6YkcMAyT83KWqv1CQSAmtRvnUsRbWvWarWc1UnFBkoRbb42lRqoPRqS3TYwkMUmFw6rWCNahgWKuZbRaCQEo5WdLIFGZ0RZYDGk8WUtQW2qcKbnoA2tIOSWsqEQddzpYS9IIOxV67BNKAeRVAnEvtQ98f3N09peRkGcekCuSJZmogCGRSyqFe+muW1D/KhGTOnZlN4wgwpWyxT2PKWcc15w7ANGm6m7thl1KW1vSpvK7LUovkcteTW1k19n1vBnfqNtisxpSSRM4pWbvZYZBZAYQRZ+eQWkj36po/hMabD5yFfMFAS8idbqe7ElW7GcxS1Qst45mzDIRHuTuZpMkn6/kEFtcgIHJL0nKJUqu7a31RbJAkT4eC87nNkSyaxxkBEHSfxnEcxzJNXh3zIGollpl+l1OKqYVrHDFup4IE3SBFgEDWS6emqborC92n9sF7w+LltdZpHN1dY30zmys+gqomADKlJB+vtZqZvt2QUiY57HZ914/TBCKlpFFJqdVgtVZtM8w5a/aI4LrJRGgQbgZ3miFl6/u+y3pRQdLTAk56rbqN1HUd9eRT39daD4eDmVnzuOBcfTVC+cMwEDCzaZrKNA3DkPVsVkopZ21ZDX4AkmWa5tCCWZkmgKYFDsAXt471UpV2p5m2EqjLyl3XpXbfCzDSD4exFH3VIadkh8PYdd3V1aV2mJQyiWWDJtucJk8JwzCUaXJS34UAQmKZyGCWkskvTEYDndM07cu+S1kjBXcS58alM6Iocs5Xl5fjNE7TeHl1aYBGB8ly12f32szKfugtxcCklCmltWl/LLQK0I6XsFiB0JOGGusUOgE43RkP0iHYMGxL87RPPiZOuj4FEne4HOr35jbiEflmc6yuH9NumY6uBJdanTZxRYK64ZEsJeqtt+tCAAGSBBKQot5jgYh26wPyVOu7rru40CcgzCynBKC6T+PktU5EmSbAck7jNI7jOI1jp0+95S4ly7lrbdYJCGggZEgpDX1/dXnZ98M4jYrYIn0CJEutD/f3euNh3/fJEkCxZCfD7Fmp4faAbiDNL9Cu1avXqb2jWyBQYuNHJHZdR6oXmrOg6XWrNzKl/OJqUEuXcybjfom7k55S6vthmiavtRTXywAvLnaqa2F+O2pJyaCmeZq6rtMXbXPuUkrudCeXuX00Lu5eSh1HTSWkgDPz/zVmDzNDygkTSDfE8CHyiJIBQEr6yoxBHiWv2urop+PYNQEgBKy11lLbEFhxPK94QVzqaG2wT8yToR0XpZa4yTXv0wQBgut3mmygpnW+2G5nr1LawXJVK1IEEBGwzmIaFKaU9NAFItupQsxs2x2t0fgn9LnhnC92u8vLy6Rnm/Rem8Oh1jpNE4laq1nKOT3oPVoP93rpT9f1XdflnEuZ1JudhWTOOfVDP+x2Q987Xc/xj+NY3eVPtdab29v9w8M0TbnrLi4uXlxdzfLO4opa6GhVad/3fdddvXgx9L2lVPf7aZoOh4NaihlT0X7qKec8DMOLqyvCWHhGh8ewrstXV1fDMOScS6nTVLVPs5RC8uWLF13flTKN43QYD/f3D6WUi93OyRZo6y4paEJGJkvRC4OQc9f3XUp5HCd6rTVu3srhSExT2e/3Dw/3pQy7nQ/t+9U/CQaE16SUkgFxsA71iJ9PKupHYKmF8YyDgrl47A6JXrmF3Xl8IpLVEIpyuxVVa62c19kMSVPLTTldEVS3tYUJa1fmQpoUNW213yNYSnGDQLdbSJKuMawt40/IJOf4gepuA28nDfBaD4dDrOORdFck39/fg5ZSIvVGmHx3d/vx48379++vXly9evXq9evX7rHv5yzDAJqwJEGnXnz1/vp6v9+XUszMzGCmF3ols6mUm9tbBYZiJpml9hVSAGaW4/bsBl3XaaS6f3g4HA73Dw/TOJqlDV+ku+/3+w8fP+aULi4v8cUX/dCf19QWcutpKofDYZqm+/uH8XDQCwMB67qu1joMgxn2h8Pt7e3t7c3l5dXV5WV8Iw4ADJyDOcxDEkDu8uUwqIrD4XA47N354cPHh4eHxapE3/e73YVq//jxQ9f1Vy+ufvmLX/Z9v7a2aD4Ti8cBllJqT9HllFJuk3DANLqHPaPJ+wzMbBvkCMD6CQp1znrhAdSOAQBPvE0pn4hkAJype3Un3d2XTsj0r8k6o2lorn2VbJj/Bldz0TigCM8nRDSZlmIbAQinoxQVOlbwCT8zDDCYzWtZGrBN08N+7+45xVcdc86GmG3mnFNK4ziaYZzGYerp3uWc89JbPgZrjQzBaZrUTDjZD0PfdU6q50xdd3F5eXd3V0s5jGPXdV5rajfbgpTInQVZ3RXGYzyNkHPXneYutRYNNsyq157dozRXMDN33+8fpmmapmkcp1oLiKEfsl7k28cn3aZpvL+/u729I/mw319dprS6ewxIG+GN0ozBzBKJWspUint159SWJxbXSEnGkgTu7PvO3Wdqc8Yjd1CFWjvST3iU8kYmmu5BpYTmbCde9fPDgHZLwwAjFF4tiiPWFjglwyo8AAB8XiSjlGXhukm3lVJnT96vNeBE6UqZsVyK3sqslaMB1tY/khkM9DZkfxRnTEH9WQ2I1TTe3997rZdXV8Mw7Ha7q6sXZpbik2ldSinnbpzG6+v3fcuQkk1Te5f/M1Ddq3uX8+XLl6/fvBmG4bDff//99/pmzDAM9/f32hFV9WUmNOcLtzOQrpW/rWyl1lLKh48fp3E0s7dv315dXR01rwaknLu+v76+HscRZE7ZUjqrpROwlKqxNMBhGHK+zDlfXl4Mw9DlrtQ6jePDfl9K1VcgU0r7/X437PrYmglAg6/QlpmBckyWUty9lOlwGN0rYBcXF8PrXd8tDY1XL6UCUEtnlgDt3wgLrgTZnhIELKIYFAdsC3pQCgBtx1TrbGaLZhrDz1HUT4Nmxe4RxKswXh07LB7/WDv/JyKZAOnTNE1l4vJosUG/c9NgUIy1KyqqDARWLrWu/BEYLFlS3Co/AbrXWp3U+g/CHoiKAa+uFSPM0mMxwor4zDJgBrPqDnIYBgBD33c5m1mlg3D3aRprLRoQDH2fczKguo/jmLvsviwqEmjzBCC0EcyR1JM17v7i5cuUkqbEyezt27da+pqm6erq6k9+9atJd4b1/n0zGVAECdS22meavrfWrbobYCl1XffixYvdxcXNx48kbZ6SpFRLofvQ96UUOTN4On09g1qrmV1eXt7d3ZVSdu3LkiTGcRoxubtXN0uvX79JKbszpVTrqr1UKMW5mSXEajlJllJSspw7s0mN5tD3811rkg/3D13XvXz5su97kvv9/u7u7v7+XjdTVpC21wmAaeFxlRjGkuPAALWXrHWsbmYkk6WpTHd3dxcXF3pI618NjIGvE2ycSXnRGp1dnXoqkgkQdHKaSilFt6rnSKBOAADqPw2YO32aAfISA3QHdVXgaQQ5g4JgCyepgbFGVpYMoBnprucuRSRc9bjKhXJDLcXdLbp6k3N59RAJLUjMcrwoV81KOXaaOaZnYaPRSwa4uyK2u7ggOU5TrrXv+4uLCz8cinsyu9jtvL3CLqiYsd0kNzOS1CJZSmI4mUGWakGr5fdow9215utkauvkOWczk2VP9XMOLMVTSsMwkKy1aJbjTjUrygNYTuny4tIsXV+/r7W4c93MoRnEZF/MzslSipYPzcwsa3kcZtU9a9Beppxz3/cAxnHa7Xa3N7djGatrkGiqQQjtBU4W3OaoWMveEt09tfth7hzH0WOR4nmq+jmgbpnu9MbWrCkxzs3COwA+HckAGC5Yart7IaeR5MdZfw6YKQLilADd6Y62ZQKkelHhc/dgmmkMlSSI63ZnKTKh5AWgT7qpV+Bs4FVFpwqYEWHcztTJOyvJUsphvzczQi9tqlr9SildXV0dDge/u9NszRSQpPo1s2jUXDO6tmdgmU7VGiFKfvjwQXMEUo++VC+F5G4YNrqSDM/QXmnPnI0NqjVnDdi7lDJgtZTqIVQSZQAAIABJREFUNEEaoCnMAj437obWDrr7YfmmjKWU+74nME1T0T6zlOh091IKdT+861KOT/k8ZoUZymAtI+WqkSrZLciYtYcoTI3kTH+T/V8M4ZPuHotSc/uyWrp+ROAnIpmANjYtS9Zym7oaNi1WOxHSYFLacXL8nQs0/ZhOUkrJbKU0M5gls5xzbhFINcZm+vm8eG5FwqiAmWXNifs+52xAUd/LGCXW6idsnYq2ggEgGP7s7uM0TvFVYev6XiNekXPSS5mmSdNFS7HIRtJrtZTU98qWpPyQKkXAgFprLaVTv9Z1OaWUtUGtit9ZYwZgJYRo6fhEf6ZfAn3fJUuazwMYhqHremonMFFKBSo0J0IzbSNHAK07EUELFgjQDDknDddTyu6j+2Rmw7DLKVVLKee+6+zKzGwcx5SSJeu6LqdUYp68FoLrbkCQj5BLpkjH4gUx5jEDYZZSct03ACA+AZiZweZRxs+B46CkwthXN4rc3Z0RyI2TbSnh0UhWoSDd2n1XGKu1kGwztsXDC8ITtpeO8y5WB2Bm6dyyofzbUmIMGx26OyJ7HGd/FATkVjo1wFLKBMAu577vNTqFWS1RheQGNOjVz6dBog3VWWudpqnWamYpZ0WcmCdg41hrnbSLTvscU0ptqVZjfpihDfIBkKylOt2Avu9BunufkrrilDPJaZokpwHJTK9cOtG+mhvlOoZZ/Emp63Lu+07T1L7rO70Ns+rB9eLuBuuHYfGJmYqWF6XvWZYVUsrDkHLKMCO9VgemYdilnCxZTqnr+67rSynjOPV9bzDtHjHD7NzNYR+RBIaTsJEq5A8grTWsZslqSimnZBDdVTcRRT4fR1wxfpf/ILPO/WZ0zBHGIBFDqHPyPRHJgpxJ0WswpyuM5SJrmX6ceEcQkyTp1J1fktToOmeLa6R7rRWK+c8E3SupqICZpdhsOZVS5ZQa+lYnaUkTY1vmY02NTf6zajWDwgNow/Uux0t5uq6rpTw8PCRLw9BfXl4Nw1BTttXYHmbQgCghmwFQj9p1Xd/3o15yV0rKue/73cVFyplALeVeS3Exno8JQEpJY9QWYAYYGP/CN03pwvFB0Q4/ja4Ph3Ec3emM5926rgvTmZGS3lQLAbYwNpi68aNI9mWPV2eW+j7vdjszq6VO02QapOWsQJRnp2RmadVghKpXUMqcToihOXpPIOs0VhUwNjP/02G6oUbo5idIfYLwKBuhzSGK5Yi0FshPYYnks/lIuuYnzuglSDnqAp2qAwJDXSfdJHHC9YI5s0KXTibtpwtZYGamb2E27wyPkQsBXutUCuf9fWYwedYGDN+K21rRMbbdFyQX/cGMWtRh33VJK2KxAUg77CX042IBqoRiw1KyZJYUQpUaRTnQvDXlnDqDgSCZBDOsFCRVpJQ0iRfxnNLQ9/vDgTGhtZSTwnjWkv7bcEtrnY1B4ih/FBMMgDpM13QNcqxmFZENk2tavFRkMIsRrKSY2Vi6uWQp5y66WRiJZcwHI1GdGnXJnoyhcPA364YA4taSqpM8wVAzgbLqJKBjdzcgp0wQYN93XRfvSAAIaBlM44t1aWCj08chzsSlEmbWVzDAnbXWEitTJnU3NoB2tK7U5kg+FWw+VpPp7iknJ51uJmOAQCg19EenpXDuDZ/kmQlMw6zXULPD6UROKaXmMlALXDQztPl7tg2mpxoObHYWW2dW6wWSZqZ1IzMAXqs0rEGHzEZgmsaU0m53kVIshmgqKhqAfTKYc+7c3Z3ubjAQKXd9j1oriTKVqlF3StpkYZZku67rck5mRkTT4+7TOEKdcxuPTNPU5TwMw/5wAJnMtJ1l7a/uTjDnLNNsXdGAsFXM6ynlLRmGYYChTMUs5dRZyillBRcQbka1vFBiHMwgMfuDWRSMs4zLfkg5KUcphUSX+whvS4jYpqkxNUhFWgZqdIIHkLDo/4SoTRwqo5yKS2tCsrgn97zLIAAOQ9/1XQsnVRqK2igv6K/qO4s5w9H9ji3MAEvUPtVaCc6SGABK18Kx123i4bQKzqNrOmB0ejRKpAzYSh0T/tFoSgZgWubBhrNnKe5JGMLpmucBCLdPZq6+xT5Zi8Q/k0dW3zgZgPBv/cwpq4PW6jiZ5GrtkkS2xZsAgBp9fILJI2x4IAGqFZ5ZPcvec06VYoDCw8wMnBMRCg6FrWvU6fqvATBLOeeu79sY2szQ9l+pESaX+0P6mckcaV6phKh8SmPUwBMEpaOfikV+DS0afwaz6E02IOmCfH+OtjNyLXjuPLnW2iqo7k4nwmbNpMf8/Ehw/jOTbE3GMVrtc806fg4jhig+I+owk9HPEllLemziucAqvWn/HPOPIEx3Yje58wZcupTnIjq0td0WOR6j9Vj6IzA5aNPxcgwF8wnO0lfBnFIwvUkOqvLwVaGlB1glAmYGEDJspMyXRAXY6jPoUqZY6niM1+OkM3DdMYUhhjvHxQzixavrR4EWc71jTk7w6UhWGMeqeFtY04TJxE4o9mdFczeBodljqPbIaaaUn52XNc5SV80A1oFB4kzH/EnEgOc4+eeDaa1IJ8RqqH0imRR6lPg0FoOEPuboWRKPVfj5VaSctIAXDh4xALb5wTHEEwlAXEg0QwTtk3YKe5ihNVIbfFpLEYUkYJZMd+vMbOUuBtBsDrcN1D3PUb0hveATkawOudRaanWP52mhdSkuG00eJf/TIBMF9+fqWPMgzJEs5SkTmjsR0Kz2qNRZ/cz2lp7XuWa6szFW9Nh8ZAOGw5CxqUMnRkL/Zgm5dv/nIXLPdeh4K5R8/AxjACTpNtEYSwnLKZoWjkgDIkDQkMJZYYCeIcU8cRCOuhZVFDTZIjJkgVYJEGEYzKoOtPXQ1aXA+mRTt0W7H+VO1fE4gpkzeAYR6cwMkdtai3OGIJ1t7Bsx3I5IOt1nKdY4H8kMdZt7nUoppdT2CAUQ6+mh4CZH4/MYBrQLJHC+yVwQptKvBScqeoJtIt2d3ERyi3MiHFEZgW0oh/ecVBG0IuvakyJDKICRuVHa5AlQHLWDkCw8liSM1P5JbV87YYeP6Ff5GnOqA62mNdoC1Tkia6gi6Y7N13UQrKL9npCilBaRHOKJJQBhfc2f5wKIirCwLQWocJRrXiAf1rDClHNVQ3gXN8yRZNvxqtFIVMGtlmVt6cgsaWe4x16KHO8DgjJscHx+DiHBcmqzGjSViwxNrDl6FcHqj13eIf1L1qXuRyNZmUr1cRonvWzCK0mY5ZRLKvC11aTfUAURX8RqmmnzToJHAm2w6F8bPlR+Y6vHQJZSxnE0QExIYtuuMYQvANacIozayKwRApmJq8aEmUEeqYvNurMsGrYcQwaYRdGBUfVDo5zqVQ9X5SxbidmFgiqZ02a2F8XNUGXbtOD4OOsKjIgNHX4mQhVRi5GyN8HwVotdU9Z4nw9WiGJSFFurN/Mj2lEL59UpyBbSLdYyeK2VTCnltv+2VdLYJdneuwLEUyh936WUSimHw/5wuOj7HiYuPl8z4uRk70MYU5JYMqvWXiEWHfHJLWWsf9ZOBzsTyQRkFIM5vZQ6lVJr0WYJQO5lMLOk6crMonTc/kU1YSqR3fpRXGpY2zX2/UmCo3wzmt0iINV2Sm8hrLI1ArNTcGZ6Nv4pLEzQipPzcGyRrhXV6eyBW4g9XRK/s22UagBA9cmRLYquddJSj+vWNawoRo3zVSBGuEcRuj0DgOAPj46u0f4/BUk0xwTEbzBjcQW2vg2jcQKj+RBx1TdrBogia85bFUZKYe2qGcHILrJoym/FlFUybMSQgKSZWUqpbWLXIBcqExpbG2W+8iiC8bXk4mdWv1kyI8wMhJFwZ43RgHPWRnTLRAIogkEA9lSfrEBCW7quMbomRSRZyjnltseNUpTKb+P1pyA0LmlOsU20MNa6coP8AgBAqbPlMIR+w9IbGEJWoNVDxk6vrXSRR+ZVxvXlltBEAbEZXQMgGQNMRF0nFJ5GK9N+FsJzFmv+ZzoDtoraggxdoakIC79UcJ6WABD3teQSUQxQ7mCGcaD/CazCWC5L1QDOEWmM5g5Y2znybtmZS6oZCiHmywIZP0sCvT0ZamYpJTvuRQmodT+uLip6DGZAaxlbQUksC5gZkpmb0SSR69ZvxNyCdnIqzyORPBsbBgLzdu4ZJCxZzl2OaF62Av4cMBkrfE3mPc4DIOwpkypF254MiB8DseXMzOLPfAaqJZbGJbmB9KovYTW4ezPiEY2wkBktmIrLUZkduU2j0I5bzT8WrT7VreqP6puxmi1+DkRTnJ6DLpiBRhgb/aUWi2Hsj0eIBqRk89q1Qkm1nyffODMpfatoAzQicHcjk5kUpO8wRH1zXhOxjQ7mzv85INDaLZGJLYAOs5TgqLXWGi8Sb7HmJN1X69ezVlfVno9kyRvZ2q7u1tu762nelHJOSdLKzBI1OAQwm3Ol47CmrNAyPqKHOfmsgQJmBnirzAA53PxjJGdK1jK0bGbR91pQCpKmBRscN9viJcTdYK3cpoOlsk1bNHMHGCDuFnJbyk+JvkZUJeW2n8XDFv2Huc47/ZMwIAy94fAI5OJqcx2yDC1WLY7KE5jd+3G2JJL0Y2YwmHqwSAHxWPFNfUeWs+i6nTTSyQzYSZ9MAuHd56sQHlPMusx8bI0ozIyWzCrg7u4t1hS3BBEjazY34okcj0UyrO00ZbsXVb0GZY8P9pmlptiQQceLQAoGMS8rhnNRox8A2xmQEGOr4+QnICGbnM+HmHH1yUDzC0GBvNY82aQBFAzUgevJ29mHt2g5T6+RbEoLSH2maxt2PhdmQWWdhvD5z9WUAVKRqJ5A5FTZc8wX+ePkx5gOIEhXZQaDnVd+YGO6BYZwybCtOxjunSK9FSVaFRsyM+uPaAZQLTKqEAWWsrBo2qnu1z2mxFIo2UIZCIZtQ/A0khvLgf1+f3NzM42TuuRoq+IbBUiptBQz02KDiJvIrCSeD8XMLPTqII6CFAiYVfd68irJgBxrPn3cGzYabu6osmZGgK43hKz6NNP/0NNtZqnWgjaiAKJrCscFQt5HGABAIqWcc2dRIHhnW4pSsgxKepmmvmsv017zD4DPjW8DTPzLRilF1QTQJhSPUmKMFqTX0JqJaXA1b53RuOr7/nA47A97dz2BAGzEONGS1G622+0IHPYHr47lBWBA6Cvqnw90bwaQ0nRpYeMUZtZ1Xe37UmuqNecMa9PphljiMqymIUu0nmF+xqn5xeUa2xxBPjJFcQruykBQP+qTAZudYiZmp5EszMTHcby/0xvV6zyohpnXCmPynKmBrQGSRI0jARIE5N0Mjlvd4Q4KfANmWVYHOlYD1WQ8gRwfgCifzXaiTKgWlTUj6e2lWWELM8DMIHlT1nP/8y5fmFmLgKhRBc/WDwAgyZQs57SuHDAwJvKtrNhAqdXVJK+uBa0T54tspzCzZOLftPNRggFUTVHqEb4llFlkx8w3CcZIeUEjBnRdNsM0Tr5sjT5ibymsI/HT973euNC0vYEZIJdpZm/9lOxFZVJDdRamu005a7YoltUnN/5s9jdLUU1EkOqIwzM4TbeVXQynOXSJoWdCOcjYHAEJR8Rhq5vtZ9YpH4tkUSOs1lpqIb3ZdMExV2JFXzKcTUoQsxoixeaeLz57uHjAjCf0NUPWg6Saxfx0OUACiAIAgCRSgrURS5h2nUWlJGN4kmlytQmrJ2o/KxIZ8reWAVgdM6qbr3wOmj5IdwfiSa4QbubUnuR5A6ltxcy2oEmQlekMMg5k9Tg+B1nvnIKeBF37/yGnekpP0sVxKoDZfjK6LRoxaYf6ibLy6FYYWAkc5X8kJIhZSqHEWrVHWvW7Rt1bJ1rqPRvJBhCmTTHjOOpjSwBJUNqIQ3FtkAVVLi606gxgGN9ANK+cneno/jIQ+mhMbpI3XoQ4Pyoe3tYuHRMHEDXEFa1q0N30HjyivS7MgNbyz6WC5aim1WC2dBFmRp1KJ00zsn4IZYA6YoqkMhNAFNxU/BxYhJHYghkBjaHWmXI2mJmFhKrpRNPnsUjzBGxRhYRuP5DEcoFTPI8FoKlbgHrIFkfnOpeGxnlkXSUalo4nuLfVAEnjaxDSlsXI9kdhZkIUFzXBYG3JNZkRdPeplGmcxmlS/KqXlrizTgUp9TiSLeog6dV9GqdxHNXVA4h591w69InGpQEkYEuAmkasZlA+9eshwHmYmTjlEcdBYT5TylGiaddZ42x7NRDMyq0NK2nmDKvcC9SKAbCWvdUQEplRq+CAzI65suZwUG2qXOK1ygg0Tc2lnw1Vb23pDorkjZ7j640WAHCk30dBzHI8ylVTgURXxc311pkex0pBT7C1lmAVyfaoLFGnmcwTx6tE9cniv+lFF7Vn83M09TgsOJRq2lnwYjKbwSwlsLq79iy26IsFL49APoPjSCag3ly/cf+pNQfLuvgjIGBEDJrR2p1nQzFvWiIkGiOPo2UggmPZZr4aw69mquXSj4UqXGuTxDwqB8J5pUXCZk3OVyTPWqqWqAvKt1x9DmbRGAcm2WFGbTZwd5iMpyKExqZPDklniEUzSbJA+lQiSc5NuIRWMSl/Vc+WxlwWrYCMfwpdb4RMUgq69gks7JxDa98YlljAxuB8cnT1J4DAHNSAxWYvAu4stZapuEbVGl6fGWIDAE8jOSBtErV6ia8sEGjLZxoaJj3vYmszybCgAbNV1cwtdXPr+gBJIxyMrI1KWMeAlPW1hA2IlqO5gOoIV1pRmPPHjEhkw67xIzItb1AHQs/KJXrknFPis8m4EFB+M/lN0FbdQRYAFAiGFUc6Xk35CKlzBVV5BAsi7eVQjLVJIC54G59FAQm9rgrAOeLqyCRkSAIks5SzKMRrk4LXmH1AOfUjOo3YzMKMKMzQTtR3mgfiAwBCymXQCcSVp0AAIMlSSt91iN0+zDnHApj6bTKnnFICUEop0+RO91rj8ZafA9E3x7HEM5hZAmiWnCy1Fr02PIDVExSgBnANZyJZNGVodz0w6VoSV58MUtvRYxQbbjzDyGXNa05cG4eEGYm29mXxKpyu68zCY0JlpKXU9/OHwjaQRIByb91oprBiZXYGkGr5Wjn9v+QjGJN4KQKRq5WAWfwsw2noz0LmUxCzoRlJC8TfaP8oU2zKMCpbQP1IA5YAmKHre7pLqiATvC/k1kLPOCUu6ZUu5nLOfd/LNcw9CIla8wexJG5tJdFpnUpklDnPFYJb0YP+ulM3XtGWY9fSHWHmx90P+0PXdQaUUuRgE6BRDEjoc7zxovzDft+9fu2lVKfntP1u3o+C6U9rutcXzEwTRJK1up5AhPTTVESCix4CZyOZhEmhVa+b1C22tsWLlA8elbM2S3xUlU/CzGYjL6QJnLG80LxnthC5uFFkwVLcgHVUP4tPSrmYS4YzzR4amVq1K14AkpvRta6IHfEOgKCGMHIhqjQINTTrNUFuG+E1SGoErWrc486KGVp5UQOgUKdwasZzkDw6mvlz1y70RbGRbRZNcEfcxw6sj9u5enuwlT7OAzTa4hopWUqJ1HxvrvNTWPKtCpBofYAaA8HCrKYsAKFeai44ZzxJ+kw0ZhhGJuGEk3psKQbXpNqts+o5juSVoKy1lqlMU6lzECuQW6YN/2HP897R1LOW+bi0Okksmdd6PyUZmB0LJI7HoTMFA9YxgeAxrp7RyxEiTvUTfqMItCgu0q3fkr+tRtdcSh1VRzT3mC8R8qmWfa497HwCot1414E8MqXWwACLAkXYxCT4uGbXkKLMgCaGe52NahpHUSG1iBdqiInMUtXqcIEIS0jO9ayvK5EkzSylZCnVqUTudv2E7gYywyZPU7OOraWsE2b6wpYvPLoi/zhU4IgOAIb1qBYq3gAUQdz+PrLsdRzJBhmF7iyljNM4jqNXJ91J7QZd8SCXMTNTmBCEuoGVfua8AJr3PwGLXjBcphFRJSvo6rFEc2nE1aNScSL7N884JfMcNC5XNQKqgcGImcV8/BQrIZeDuVSKlyqSkD6XWyOnoHuFtuuYu3bjpw6tjoBorxIAcXqU9BiCIUBamyeWllICIkXZWj1hQc2MeGbS9Tio0sepBClJUrJEehsZqK5Ne73Gwg8ATfhPfENJm+Mz188k/giEy21Jkay1JmOtVmNaW0ndLWLonSBBhB5mnE4+Y+VdROcvDJKK5VWPjGM+lPQJQR+7uE6PY5NPrC7A2kUJFKeNJXllFGiMEpDgSt7ibOIKjZNTvqVN4PQKgE8TnrEO8y3NJlm7/JgMAKg2PGwUOMrTSEqjXOr6UWB7cJeygvYpnzJJcq2hxyo9agw3ONJDHJmZJU00F5LniR/jXE1NX7L0nOMpvv4lQJmS7l5rLbWUUjXSOWH7WNZ1nyxbmwGacJdS9eYfJ5dFs4XEmaC1uEX6OB69bK2hpKYCBsC01Lm6B62U1g63LQ5QNjCa67CKqChxxpl2GMDaUaydMM5AMzidrpWVCAapw2JE14o0KRDg8qOZ75Iey6QAkBAdZvgsAbYGqPF7JMgKRNPAIxk2aDqT+z6jwIKFe1WXEhuR+RJIkxV0jQBM1gDW+RYYrJnXNI3fXI3hCBHjdCVqgwt1Cl0HwLMT2TVaATkaSa1XR1pQlz1SfDtWyXLDz4Pohn5sTgAgW50hSFLj31pqKdUrGZoxM/kbjdCofi4/R7LqMmnUzECUUkupVS/SXICVQkM2ak6oosDc8rb0dnKO7yPUGqwDMGAap1LKxeWl1q4NVmuZpinlnHNOKTnpter1RNTdkWb5EHOrfh1LjLVU1Bk0aZ1LiA5IP+z3h8PegJxT12WALdKCov6zKEUYrMX8JmcchApJh6UE6/rOOT9vMGeTMqVVGJ+KVTl3ap+nOL48cwW0NoXBmnBKuamOQKinKUtXAdB9ahuVAei7qcMwpJTG2HcdvcOjA18AAAnTR/xyZ21Koup1sFpKINqD6CQad2tPi98ZKqN4JUASRHXXp6qTmRJJTqUAUND0XXd5dXnz8UaC5Jz6vtf2yTVxwznVzRCLur5oU7AWNUtC6rKWoqpXdaW1FuoLmE0fsxLWta7tHemiTeprQG2ZX0bfiLDGYxcineHLj2VT3QaApGsAYAYzDRrV98oQ1KppG9TJvGpqDNBCSJO1VWfR4YXSz/4IzUvjZNaaoXqttQDUJjKAoK/li8ziNAqGTHE8U9MpET5FQl9EDsUv+eOqsOFtA4lmZhrlCk2kDQzRTDV7cq7sFGsKswDxv8VGRhJ0r+5qSZUhpWT6+gwJQBHMVfktTFYBLKVky7YqtKItl6ojIGFN03NdXv6bhZp/VHI+aOd0tUEkmzKUojpTSn0/wIxtUvlIU3Q2EdjyQBNjpJH6PsKJOmRAk7c73NUtawE7JGPjUPRM6judJxPLG+WmqVR9TSMoRNe8yv6oDJ/EzMF8LmOusT4NBuJCILUgtDiwlNIc9mtWbSlkZjbXfszGOZzNs9jhqcIrXR1nayYOr4vEhWeD7N4ugcD69AiLaI/E8III5UdJPQfS59ICzpAAjTglRDtpAm1KNVLrNGXjOrkdiGTIq2wty9Hx52CtDTPIQ/TRzGhZ6E73M09oPQ/HjB2fCxZyAWCr0Wv1Wqlj99Y+HhM4Xrt2srqnlN05jmMpxbkmERNFRKWYNczV8Kb1LZHjtFZA5U78YPaMVnI+dRLuyR1ASimnlNoA0vRjlvRuMY3Dm0YEKk9KyZI1V7eUlp+jGs+i2XiVIjlWMzmla24/Z1bbaedc/wgWPrTJPB8fMaBDxjDU5trn63OeI5pq535aMD+Gs2Q37nFeB2Y2e7KRdGfIakgpA+pLIujMzFKbisOgebg0ca4CW+tNHnmOzxlso/2U48NU7tU9H1nguVB98/gfMIIG0GAEoWZO4keJhhqxvIBazd7ipE8ma3UYAE7jqD7Zfd4WEoqTA2/RLHjqUBtQYkFUFnc9scDqzACSXuNDjaZBSMycI7MpvVE8w0XkWSUshyeZj7DiMrD1g41U84EZltnbquiceQuZG4BZWPQ0m22Li6gBioI521E8SRvzT1CYw+LnwyzC+jxSOfN0xI4pCVhHySb3Sp7gXU1yBIHSWwWn1K3ZInhjY+pxEIxIbhtpFADH+Z4NaWL+oSSSVsiZHWsKUYHWj643dLgGxwtpAKd9spAAwMZxLGXTrTetHYMMFj6BpVGi1DufWZS34yqat9FXz0K06UTI0whJS6Ei5WtkmnoWj4Bm123KcF4wwexYOJL4xPrTYwgOz5UltWy/nDfPo2Rvcm6kFjZRjFaFpN7kbAH/pMQ/HmJ1dSb9nmGkwRS/Z68BAEiUUoGIRFWgFQGExsJ+59XaWnlDvO/tWSAA09fYQWhu5+4pn3eGT0ELKMcgYixx1LAQIOjEEn1c/jWltjELgNNINktdtgwANk2llipDMHp004JEyinnrC7wPKIS8WcANZiI45VYsxrUqyStpBzpxiznbIC7J7Occ3UnmXIm4O7jONZaRXSpg6Re/NDYCaXN1Tf7YzX6PS/Q+dTPwGJ/iosWlmYSYZqmWuvsFgbEuz7MVL1MF47apDCLCcVMMKxlFn/RvvwbP8FGKHiW1+TqcXx8ANEVE2QrzqhMaZLKVmkkna0FNgNgMHWMa4Wu644UEvoxM4B0RUK03WZIlpI2gbaaFpJbYtJSJJE552Hoh92QzGop3cVFlzMb6UWHBoAGq7XWUtxVcAC4iToJvj44wswMQSxdViStY8GWzJLdSafXWj164fgnBTcigdNIRsoGAMQ0Fb2DRuag05AMDiBZvNp7ln25x7AxkyHENulHl48X39uZwfTeLHdfXYa1SJ5KsZy7lKZS3KzX/cwIAz/2PDPdc4NFAFCuwTMNt/Ice9TPBTEw2wkgI8xCZ+5Fy7/NQqbllpwhr2KYclZoZJK+UtL+KqLlbMeGJtpa4Ws0NubL7WClCzJ4BsLLxOfsU7NpVykUK3RGwxKLcSfdk9nJPeQmhEGVIOTNVUCDAAAgAElEQVSJH62JpISoA0D4uAHHkhpkWYnQ6W5S3wOoteaUctdV7VdjcwyRBMzMa3t2Iqe+70uZ2kVATM35V+mBladLCKwC5ahA8w8DDSQJxivs3V0jj7nYIvaMk0huB9428Xjrz3V59nWDPASAFEDZcZkYnoFBPK5FXP7OkRRux6airWUaJOvZxNkJ196IVZNOQqwIyqvcqyI/I2aiIRQJNTXb6k7kCX4iXUp3l+70I5OsSYWkjFHQ/49gyAu0hVLgeUwxfgEAZvNMakH4CCOEQ2icGlBuZSZnOlu3HC8ukQz3tJTne0LU6DoCcg2RPWYPEENBl4CsdQrOf9ZJhPrkGF3H6J6S9Exlx5FMwIlkcI/1Ms22GSRax2XAYhu04AmW52SLX2UJc6iUCIGAxTKeYeWOqqUxbNvTGZvzuakzQysSaFkImIgcWxvrxWuVj+OnsdT6FCSanVR6jCbPzMBRgVDROiFOV00sgLCEmoqGT1X+OELGH0OAgDyncXKqAwNkmTmHaWZKRjxZ869VCTNLoVItdsDCN48bRyUGlTlx5TyRW+V1TNJgWvFKyQykawn5KOQConzqnzPBx3DcMIh/hPyuO/Veq/7X+RKNaxFOIpnw6rVbvwVfnbLKNr3MZlUPbCCIxV5KW34BzPYIswYZM4KiohQAR52VmcVWjAXHCmrDyEZidbwm1YgcFwd0I4pklFNRxGYFM4s7VTrQ8XrV7ZMwM+BTcb9xteDBbH0h0qM9mpWrfxviJAwRAdbonHfEp2Gwcxo7g23ArcD1mPIYtvyx4FJZ5RS6oKzKA4mlWKbeFoAwnDDnVgFZbtXzAGbRph/pdgZpZl3uUk6AUdsna032uCA/GWZmKQEGkq5AVghGKJbqxWt1bdQCV5o6jmTBHaUUrcGoaz/2V1P0zaSAOdAXHwJgT/rOSiUr+tQizXJtA4tKFoiPYMWijViwzvopqGqpEsCpXxILq+R2JP+ZeEIv59BmvOc0c5wSHC7WEdsGHPcBz4QZ1GZt3UBqX45bc79kWFJmZtaFjvNo/BjEItsxwyRIRzM1SNc0EqatBEc8zHpbJZmZxdiV1Lj5SDTlStGOR6XuHnP9nwJSujjjOgZjxEwbT3ut2qDlJIkYYbc/Seucdj6SzapzmorePNxG104ZkpCfHxsIOlirQ24XbRjbsoe80cwgQwCAenQoHwA9m64F6kZpZQ9b+h+ZIXgDbPtzqqsnQCnZzAwe/6PWmnPuzdy91gqZ3z1ugcwVrelIwlAXRVn2AyKRyrBFUI4NCZmk0+eNLGYA6HrBeAyCSLA1mqBXS6nrspPUG23o1aslywSgL5a0ESOk/sb8GUUxXK3ZjEBKKeWskV7OOXKFZCRAIKrIbeEUTPGeDWohRdLP1ZiWogAQTjfTq2PCMwCTvGrKBOnSTO1L7N7F4mrxG5lVgcK1lRetebBJUdzCLN5w5K4dFkF1k3Nd8ESHx+fK+//R9mZNkhxHmuCndrh7REbemVVZWSdOEpgGz+Y2uEKRHpHmzvJ3zv6E7d2nfmj0zIgMSBkKWWABIIEqoO6sqrwzIvwyU90HNfeIyMzC1b2KRJQf5mZ6m5qaufms2AIfoCc0sxdhjlHffeheReixnWGuT17IGZJ+NS7GtmlqXeOVumR9SnqL00pndJ2LwUiNTd0maUeJuV+CISKj6+HmntMaCRDmtm2lYzrm1Q6ztiJzQjLVS6nBrthF/n4TdFF6Ul+itmliCNa60LZt0wgQYwwhdMVnXOj/VLlF7wLKNr0+K3yJ5kDlprMdWZaJSAhBqySADIlwjEG0HRH1KtItvAshiHAxKNRUs9wD0rYNc2RhfcAQ5XnurFVJzLHsMugQhnJSxDrnnVMXr2SiIyf9ihCQZVnmPTQDQuQzb2dvdFxCOABAlBBjTVHk1nYL+JLqJKkqoiIAiMgQSNLaLyHAmG7rsgugr/Upzvo0Oia+ThxEZI3R1xgM6VrAxcr7x3o2LsICMpLkBpEUzqbmZwDoqwRddK0RdQiRWcftRJTY3P+mKi/rk8lABMzMMQonOrnH4xtAmTNnlgC6AZIAIGgGAwQlkkBEApqTzzyj0xWFjk4QJefaq6IxeiXV0+dCzrHym2HGSyJFV8fMxoCIUzi3CFoGF9hCEGj3802tS/p/HvpaRTqfIiIggMSkzit1+aCZJqSHDQCwvpsuwsxE6ANOZjaGpGtW5fldgUgxUZSAJCb9S6CYKQvnimEWNQggSKuD5hoX/U9E0Hkl5dusDJFyWq+IXIyuIR33zlN2UQbUX5SOhXq8CKTrgq0hohijMCv6SgAWaPg+IEjZpctQow45kW6g3KWc9W0Pdd7Cyq6EOy5+P7mrW/rCEH01V2SB1nkq5o9nyKUj/UedZ2fKnR13Ik+S6yAh110kQteGISKAO3UhQBdgKz3doEYd2yV8ugg9R5Ms+6a7Aw1EOSZLNnN/eqWr6fuD9PFGAiKQfoMz2SEBEJb0/QhjElYCdDxTWYoIqVoDMeigRJgjETlnCVD+CKsUBZoxOSfS14MyUxYlDcxxDAA6ps3BJY/gQqMJP72Yfs+XINAcv0RUa4i66BoCIhhjOKWX5yq4gBWQJJfQew0fiIgMWWvJaAKYRYSEzkntB4C2RiQXlVTPRSCsi705Ru6zVXqF1bIhir8+ct6SL4PZ8wsMIumSXriIUAK1K9VIQkoNqxp2ohBlGZEAIIKIIjdfIyFRn8YtMZIxRAZE1jlnrQpZF6uQNmrU6l8PioPogJgwR8kMH9ExHsUYOtzn/l5L9g8EIjLdgJxjJEMEYv0OqDJNZQEYAmDUAETAHDueSRv06z8SAltrvfcqd2GIJq2SS2dRffguoMLq6CW90t3qTlVyHVdfB3ofoocC9AY1/0uAVp2EKPo1hD5+AxHpohhA59ehUrukdb2xeOu7CY4MGWudIRP0Tf2U8fpuT/9wSPWzTiR1+eugua8YWZihCzxmcIklEyACli66FlE7FhFJE+PzrNcYUl7LHOV8KqL2caFoz/rXaRYRAAEMSIQjs9MkiojmYPQpY7r5IeoUbb6+7to8aIOpu5OONn1KBDr0AiKzasR8n3wpKf8eII0vAGaOzN44IooSRDQm7doSESFjkijUOEEptg0hKPXM7Jyz1jG3ImryksgTNfbLmX0RLifyNbxVUX8L6LMmOe70g4SfVtCZcZIlAXNJLag4qHu9Qa/ova5770DvEhEW111fpg/zQAQypEkH5qjDFshrdsl9HTO/rZVzoJICoBLj2TbV6oBZ043MXciMxKnzlqzNShpsdwE6d72yiGgCMqFNAEE6dEX7jR7mjgWAekTqn+pw7kSXlC1VnS52Ntk3KDPJgUW0FxZJXatCT8a8UGe2IF21IiJCMttFCEgsTMWgGwCAYyTN3BpjOmcBSTguUHruXAOXeejqlzmUtDyBZngxg0CGwBpA9oNQiLJS9AnlhwCgtEly1JWtwkwga0xINSL913NF0HP7m0CkQ7PjG3Xtd7Ago+5AGaVNEBJtSkGH/bzIe7KESFkDQLW0q2axGSJSPwvo4EIPZyqkIHoxnYjMj/YTLHTX80C6nsDMdk24HPTexQJE35wuOX9Des6oHoCZtSNW2xNNYKVjFhFQilPOWzIAAmKMbdN2uWtRQ041CSRpAiGNGOZ/kS722Mv8aJBARCAtLCJRv41MIEA6ZhLAIhJj27beOR06du8SgIhSUAWISNM0dV1Dh9BEgIgwOH1oZx4EgGZeSJGaaVaqWnkiSSTMDMCShUhkFog1tshzZx2BoqavLxOTVgX9VZYhOQvRqhInBUSmnxYyRpe5O+ecc/3jXUV6KOhYKzo27lojwDkn0k20AKSBeoiGiHWAAI2wU9Stdco5/buo00QxBLHWWqurlBPbRLRdpPAEpFkpkbZtDdHK8rKzlkVYxHlPWo8wSASs/O92BFe0JcRWWKyzRNT1GElT1U91TQKAMUYz/Mll9DcWgZlbZtJc6RzbidLndYjgnQ8h8OKXuiNHhMZY470jMlnm8yIXngtrz/PuEugkN5OjanE6u4CyCJJfIgLAIm1IG34IAAGLiA6OUuNkQIQLfbJCjNyGtm2aEPWzNMzpWbVkATrcklme+9Pr+pvsvoNUQIQI4F4dKbGZAIDSuFxE3wcSESKy1jIzAURGADCj+261qr6qeORIC6CNInEV6u4FEBGSVCHpTQJBRIRIwMIQQIwAEtmAvHPIC++cScgCEH1oAbQNQTIUZgDOOdN9E4dUWKpSxhijny4xAIQl8z7zXv0XJ1S17BwnRdnamTJEhKy1wgSACDphoreMMZaFyaQnyGRZFmJwzpGh1EAHl/QhIgwQM4y+gJQSbzJXUtks1pIuBIiRiAaDgc4MCwsRWWMioM9C5v27iKiiqGqJMamTEGGBykbpou55AND5qhhZt/4CoPxSBs+IYhbdYKxrgojIGEMUVY4A6XBpNlUGABBdTWAy7wE4Z621QWS+bmChqfPQ3zrP5nRt8TKpVDt9IhER5m4zPdGW1YpTeKzxC4BL+2TppkxDCDHEyDHlzFIFRIa/AfkEgvMKASTVSqA8hKAjuFNukDqetH0XiJT7xvQNi7BIkp4YY4qiSOEoEGNIgiJjDHXd4QKkC8IsBIjRCRwBNL5jFul8VkepTvNqb2aMUf1SzC9Ur1WpIDQ8QJ7nRET9QECLEZmEKiVqIHmeZ1lmjRHV5L7KOZ5r030tykpjiGEAEBlrrb4VqdUaazwcswBkiAaDAXUTy7NKvw20fep6YCVxZszG6KSxZlqJyHvvvDdGd6VmiKj2pWeR2CAiiZkLIKm89oEpClvgtMo9xGiN0R6bVT8o4dq1BgKSdokIIH1KhRnanTATkTUL3BAIM1trfZYBMN1k56Uggo5Dc9AL+nVw4QkkBBNnIrNmubQfTSyZHQIQAuiiJQvAQJwD7m1ZH5zx5z8SeoJFBKofRNZaKEoxxhiJ0kyyMSYygxm67ZuuuDKGCIZSB9+ZRuIIoCpHWmFiVWo2FdUjPehPe2rVkongnDfWiAhYoB3dZSAARB2s1t/V3Z2QWrDiIwIR5ghJlmys5RgFkiLH8yAAKWpaA3QpFUQ0C6hdOrPOnykSgECEyOQ+I0DXh7wG/W8C6hinz86wE0m0AM77JecMkXUOQIyRu2n5Hi6jCxAIhEAiwvrCtgiJRj5dOKVXWbIsdxwBskqLcHoewKKaEmb9F2l8F2P63AN3SzUXEdJbzrkizwEY7Uheq/2vu/59IOGeJC4C4Vn6WueWY+wG7SLzjV5myaz7SMbI+qR2yKIPi/YAr6XnB0PPxKQNhsioj+88kwDCoqFoCIFFjDFKFREZ0nfQUiV93NlT23Xieix6V0TQc64DJTUddwfadTpnyRgCMbPoy9Hod9hcBElGJqTHwqLEAUSgbqM3QJ2R6o0xJssy7zNDpFp/0Y5FI1OCkqbdolZpDDODiIiII+u0BQBrrOouBASy1mbIDBmkYcC3g7YEbZZopvSSumURiX0XB3jvnXPqeZVGLUyXfuJmDrQhHXBHHR8KjCg39Q/QqXFh7z2zkW6orBoqUEVdBL2th9oZWEshQISZJRF3HkREPwQnXZ98abH/SOhwFIHSwawvb2jKmnttOYfJeUtW4BhDiMKa8J69/i4ARHmLRc5+A3xrgfNAQHJ+REg0IYYQQ2CRPMu8cxovOO97esk4Zy2oF815UDz6X+n+E3RyTIowN4JDGnopxURk+gAsOQoiea0xJD4xSzdeEIh20cYYco6ImDmooJgFyLLMOWdsiitwXl4L0IlBdPgqEtC9zR9jDKHVPRUJsNZ570MbtK8DhAjMETCXDT4uB7WvmQ0vAjO3TdOPFaxzeZ5HJU1EbYAAzPnTbwBhZoBgVDyAUUUw1E0CiQAwhkSImed9CwGprQXoOSkgGGMMEfo+GYi6iqsHImPIGF2vYKXboOY/AnrUSEjDjLk7RH0B6VWShSODBdK7ox5S4UssmQghxhBCqiGmrlw1oB8YzVWY2u5F1LP1Aje/C9BM2iJQqVDKgUVmTZ9KKsjWGkNOhI0hEMUYiGCtyzKfZXlRFKFtNb+dMgfMBPLOk0iyQRHR4C0R1vGqaz1dI6gZKG4E6HjXWhtjbNvWOWesERZrbR8sAGjbNnI0upBYzRNgYZCEGKbTaeYzY60IO2cJNq0PhJCB2s5FMNYWeV7XdRvaCLLd+wykyOkeN8PhYDAwRMPBkJnLqjo+Om5D67yzzhoxomoDLAhKiVtsNp2JoJOytgIARBAhImsMsoyINKI26lyYmUhYd+EiHfzHGNWOmENeZN55Y8x0WpZlmec5gBhCluVEJur4kDnq1u06gNIZfokQWGvUxYuwsIS2Uaur67oo8qIYAGKsdc62ITRNHTmi+5oVINaQQHRQE9qWRTR1KsxtCNbaPC/6SROlnBctiQChLr9zAc5x8RyXBSDMVowRVNyLD4lAwCwxRIAMGQOCEAQkpNpLBLpoyQQQQb9II5LMJ1kxOr1WISZjIr1OlI5V0B2zLoCc15JLoHsycU1SfCoiwhxCoKZR7RGINUTWsaRZDees974oBkVRLC0NV1dWq6qajMfTybSqq6ZpptNpZHbOqm2KiKT1Agkt6ZqD/qo9S+pLZ2au/wBkiJhEU8TGRonGGKcbykCITFVXIQRHTjkDYwHRajnGqqqyLPPeaZUp9wYAktStO58DsdYOBoM2hFjXIizGkqbHjSGiPM8HxWA4HBprMp9trK/XdX1wcNA2TVlVWZ5xAgFUYL1IBHiNgDolWCzaHXQGrCVNJ0MlIcborM28L4pcgBiC8/qhCd7c3BiNVgA8f75XllNrDYGEOc8yY2xd10GCRBESImMAQyACEQlDiLx1gRqOUcP3tmlsUVhjnLVLw6WV1VVAvPdZno0n4/F4zGlILCG0ELHOAkhqzlEAfXMjCIe2FeE8y3WSkIhE1SDGmURUTxfZ8hpIwj93ceE4lZj9JY4LhCXGSCBDhsgQKIVHMhPDeUtWYOYYI3ckzgxY/zuvXNow0OHbWeIPB60mmY0kJTLGWOtiDNPJRPOygNElTUbnnK29ffv29vbWyspKUzcCFHkeQ2TmoshDG87GZ1/87YuDwwOlSESUIgBKHLrOmZKAZrT2RKUH0o+0dWOMXV1Z1Ww/M1dVJSJENBgUg8GgaRvr7GBQTMuyrmvtsY0xMQbn/fb2lnMOoG4UM2OuyjYxYQFIREKMxpBzLoSQeT8oBiBkWTYcDN56++3Njc02tDFEYbbWErC9vf3mm2+OJ+Ojo+Pnz5+fnBxrv6cVar1JdebS8vOg54kPiyIW5gBw24YQYozWGJ9leZ5b50KM5bRcXV3Z3Nq8ffv2aDRy1hprsswPBoM333xjfX3j5OT097//w8cff3xyciIig6Jo2xDaqm5qCKy1eZ6rQbVtiE0DwDmXZVlR5CIcYhARESYia+3W1tbt27eXRkveeeZI1lhn27Ztmrqu6/39g/39/YODA/WGijARDYYD55xznruvzIggciQ2NLeEAfQtQ55vhPN2kbI1MyAioiQAABARFt3zOoV4cwqCuQrlvCULIJxy1zp4iylKnKl932ugs+F5h0N0uf/54UBERFZlJQLAGOO9N4a4mzoWkdXV1Svb23feuLO5uTUcDvf394+Pj16+emWInLVVVS6PRteuXYsx5kX+/PlzUaM9JxSBkKjDu9xlYYGVSamJQFBLdt4RgUXyLL92bfett946OjraP9h/8eqFtSbPc2uNOsqmgffI80wEHEPnkmYTIclk+vME0rZBQ3Fr7XA4DG3rnLPO5Vm2tbV189bNnas7g+GgLMuT45Oz09O2bYWZyAyGg63NrZ2rOwSEENJsxvlGLlANABCkhMW5i0AaefssW11ZyYvCO8/CTV2XZdm07aAoVu/c3t3dvXZtZ3l5OYQwnU4Rg4g45yRtdqnvQXrnLLM458iZzGdZlsKH1F7/ljigYXCMMcuyNbdWliUz8jy/ffv2jRs3NjY26rqeTCZt20SOAikGhUbLN2/eWF9fb5smchwOh2rMp6cnIgAkhrTA3nufDEeEYySiLsj+/xdUl1T2IoCG1syafxZmJggLkjGKmiwurgwRWZiCip09s6SuqDdc/ZdInbT2Hx38EJrlEqUFAJDmh4DIXJelNWYwHA6KgoXLcqrrb+q62t299pOf/HRlZTnLMoBCCHt7L/72179m3nvvT05O3n3nnX/48MP3fvze0tLSi70XkePlDQoAec349CJQlmUiUpVVWZZENFwa6vqJ5eXlv/u7v/unf/qng4P9u5/c/b//n392zi8vD4hoOp2Ox2ehTX04AOZY102W+Tw/N6WpazdmwIy6rtUNra6tDYeDEGJoW4iMRktvvPnGr3/96+Oj4/F4bIw5PTt98vjxdDotp2Xd1Fe2t9/90Y9+8YtfiEjTNPv7+03TLtT+jdCZ/ewcyi0iAEvD4Y/fe+/WrVubG5vT6eTR48eff/754cHB8srKL375i3feeWdtbfXBgwd/+9tfv/zyfgjBGPjMP997fm3nmrF2b28vhDAYDEXEEK2srA7yAYCyLCeTycnJSeSYU44+h0KIMdZ1vb6+vrq6+vjx4xjj0tLSz3/+8zt3bj98+Ojhw4ePHj0qy7Ksy6Zpdq/vrq6uWmt//vOfr62tHR8fn5ycaFDQtuH+/ftnZ2fT6bRpas1yOec0YAlt0Jw8nDM/QK+/DxBIOgI7M154iSLGCAgLi+iUh6hd0qXRtQiY9QXnmExYtDcUkYsj+86qoX3nzM4xJ+seiDor6WxfRKtNTkHrUEhPiuZNCN3UlHNuZ2dndW3Ve+ecM8aI8I9/9OM333rr0aNHMcb19Y1f//rXP/3pT+5/ef/evXv3v/wyhnhwePjVV1/9/S//fufqVTKE/otX2o5AIKzIkZ5CFt2LBt3n7F9nBJh5MCgI1NTN8vLyzs7OL37xi42NjS+//HI0Gt2+fft3/+fvPvnLJ48fPSoGBXM0xhTDgYiU5XQ4HGbZwKZdh78FiFAUufd+dXX11q3b29tbBIoxGqIrV67cuH59dXX15YuXMcY333jj9q3bR4eH9+7de/L48atXr7766qu2bW/euGGN2dzYODw4YGZgIfeeji4iIiJEwGu99Nr6+m9+85udnR3vfVVV12/cePfdd/f29oT52rVry6ORiFhr3n77nffee7+qqrKcjMfjlZWVwWDIzNevX19fXzPGAiIsN2/c2tzczHz26tWrh48efnrv08Ojw9C23mfeC7MIS5Q4HA7Lsjw5OQkhrKys7O7ueu9fvHj58e8/Hp+NY4xtaLc2t27cvF4MCmNsCCHPs9XV1f/8n/9xf/9gfHZ28+bN5ZWVX/3q7588efro0aMHDx6cnp7Wdd00jbPO+8xYqz0iYpRufdtFmL96OYO+C1BvFoDam74yETU2Zhad+uyBRVgT+5dYMoAYJYSob7oCOoOiJOhQmzQC6HBOFqynBJ2YAdQWlMSeuM62CZr0A9RBaCnVEv3tLqa2iUQndY0hwFjjnNNJS2MMgGIwGA6H1pg2tDHGLPPGjFZWV5xzbRuQFjASCzNLShUoJukYEBFmxUzvCQSS/EsqkHCeI0hE0wnOeuccGbO7u/vuu+/euHHDez8ejwGMRqP333tvMj6bjMdlWQqLNdbaNLbXSozRCeZvASLK8yLPM++zjgO+bRqO0VnnnHfWqYx1eNk2I4hwZALFyN2OTiwi6oOS0C7CZRY7u9Td7a9YYwZFMRgMnLUQaYpiaTgcLS1Ny/L4+Hg8GTPHo6OjjfX167u71tqyKg/298tyOp1MqqoaDAa713YHgwGApmmuXNleXV111pXldFAU3jurr4KkNkVEiMha27RNWZZZlqkrjDEy83QynU6nIhJC8N6trKywcAgxhNA0LSAbG5sxxhDaLM9XVpZXVlabpjk+PtLhcOeyCF0HwxyFZ5oyg76zmrPwLmyYAxHQ+QG25mwTdFLQNgESNVOdPdI+lTuXm3odVo+m1y6xZDKGWYJOKQuI0v7gXUtKoaG0tEG1nDpfQnPC1VO1iN7XJNzVJkREedDdTHw5xwrtKglQM25DePz48ddff11Opz7zxlBdN4cHB01Te58B9PTp0z/96U/Pnz9/9PDhZDxp28Z7f+PmjZ/9/GevXr16cP+BxrTo8NMDiDCLSi5heUEiPf5Qhgug3GSuqmppaenG7u6H//AP77///p/v3t3e3v7www8/++yzw8ODvMg/+OCDza2tf/voo7qunbXTydR7v7m5eXp6Op2cWmfVMc03dhlQURTG0GQyvn///pMnTwZFcXJycnpycmX7ys9+/rP19fUsz8qy/Pzzvx7u7z979uyvn/+1ruvhcPjjH/3onXffvXnz5t7e3pMnT9u2AUBzEyHoGHKR7ItwTkaHR0f/+tFHb9y5s729PZ5Mvv7663v37k3G47Kq2qYxhnzml4bDnZ2dk+Pjt956azAolobDp08eP3z06Oz07OrOtTu3b+dZJoLpZPLJ3buTybSsypPj46Ojo+PjY2ZxzlVVHUIrgjzPnXNVVWU+G24PqqqeTCYPHjx44803bt648ctf/vLevXsPHjzwmT86Ovr0089Ut0RkfW2tKIrnz58fHOxPJlOOfHBw0LbN3t7e48dPHj58aK1dWlrK80JEQqu7L4kxBJLOkjrCk/qmXm4Gcu4cyYwXOUYyG8SRdhhA11NCa2bmGDl1yWouamJqysIaK+PiniFQ0TLHwDFGdQM6wO50mNRPzYqn0/5PL/ZkCiAJtb4OLaLzLESmu80iYAZAxqjLSKUAIl3FZXV0FEIARKBvb0pd1w++eiDAG2+8sbq6kmXeGPLerW+sb25uFnmxurKiYefDhw+fP3vGaTaiQ0TR7WhMd3oS5497AggQEFFR5By5qqrB0uDmzVu/+c1vsjz/89279+/fZ45nZ6qrEX0AACAASURBVGdPnjz56qsHVVW+8cYbV69c+fnPfv7gqwePHj3mug4hhBDU+7Rtc1EBLgXmFFA1TV1V1fHxUWwDMx8dHX3xty8yn21ubnjnm7o2xq6vrb315pve+7X1Ne8zY+jevXt7e3shtFDlWbRISZR9J0zmYXx2dvfu3cePHy+PRnXTHOzvP3/+fDgcGl2Qx7Guq6auz87OHj969GJvb2t7qyjywWDw9ltvM/PW1va1nWvrG+vW2LIq/+Vf/uXzzz5vQ6vAzMZYY6zzKQTzvltXE1pmVmUJIXz99ddt0xaD4tatW0tLw7YNLnODQRFidM6NRkt5ke/t7d2795fpdOqcm06nimFo27KcFkXhnHPO13Utwip4YzrFfj1fzl2fZynQs3Wx1BzjuxuqjAQQRCBqzF2uipPTEIgauWinDODSPllS0jvG2O3kpnUAgNrxzJDTv4nS3gLmMdZHFb8ZEFJcZ8gYS9oIS8LXiE7Pmt6MiYiMMcbEEELbCrN1NvOZ81YEzLy/vz8ZT5jjjRs3NjY2jTGj0SjL8jzLRktLW1tbhwcHn3322cuXL89OTy/ajJqxQCCE1CXPEbKYAev5DYLznjxA2L2++847b7/11puf/OWT//nxx2VZFUX+7PmzZ8+f3b9//8nTJyGGDz744Ec//rGx5vjkpAltjKFtW++9tTZG3fdjAeh8RAZA2rax1nrvY0AI7XQ6HeTFaDSqqurZs2dn47OffPDBlStXqrpy3q1vbCwvrwyKYrQ82t8/ePHy5d7e86qqmJkMGRgBFtu9yJvvBGVVHR0fP370yDonzG0IbdvmRZEXBQihbUMMZVVOx5PptDw9Pd3Zubq9vb27e217e7soipXl1dXV1eXRcp5na7JWVdXe3nOVuDG6QtcA4qwT3SiUSLul0DLQOu9AIIuHjx6ejU9v374zWl5aXl1WQ82LvK7rPMu2treOj0+ePHny9dcPmeNoNHr58iUzExldXTcaLWtD0+lUhL33mrQmms3uXg7zXFvwjd8TukcFECERzILrZM0kHbD0hnzBkmUxd53cgS5MV83t+lBoT0s92qrbqhiqgPr3PUFRjJqPErVfay2IhLlqGhHJsqxt23pah9Cura0NBkWW5cwxxHD37t0vv7y/vr6WZZkxVoStsQZ07969/Vev9l68GC2NvkME+12BRcrpdLQ8unnr5q//91+vrKz+8//7z19//fXLly8BOjq6enx0lHk3XBqGGH7/hz88fvLkt7/97bXd3V8Cd+/ePTw6yvOsrpsQWuesMednOkQjsjkuCqQsK2NoMBhaa3VOeJDnRTEwxnCM0+n0k08+WVoarSwvCwARZ21TN+PJ+ODgoK5r57xGPFB7+GGGewGIyDmXZVmeZWRMCKFpmrIsq7IkQ4AIc4xxaTTa3t7O87wsy0ePHn311QOAvPfDwdJoNFpbXxsOh5nP9vf3R6ORaiozxxjbVueH0mpN7R3VzkGom0pEjDXtdDwpJ8/2nq+urq6trg6HQ+scjmUymRLw4uXLFy/2Dg4Ossy3Lc7OzkajUZEXzrvDw6PJZLy8vKJSGA6HqROEiAizIHn5y630nOB+IBC6F+uJYABo0zHqfgMcY4wRqYdmFhbtoXExuhbREXKIIWi/nB5I4hZoTJwoEkpX0Jnxot59G4gGCf3DRMZa9TmkLOxb1sIxkhq3MdZaEWmaBoC1FqAYY9u2ZVkdHR1evXr16tWdq1eu7O/v7z3fOzk5LssSgAaxzpiZB9K2vh/iCQgwzuxc2/nwww9v3LxRV5WILK8sDwYD593Nmzc3Ntcn0526qSPH8WQ8HC5F5qtbmzvXduqm/uKLL169etW2LXNKfZ2vX13inJIQqChy9aaknyzMc6IUnIuAYzw6Pq6bphgUa6trw8EgxliVpQD7+wdN04DIsPpHxyK8+Hr9DwMCjDGZ9/p+FQBDZK2t61qY9cOIMAYxEkBETdM0jQAYj8+aunHOZ3le5MVgMLDWCqSuayJDaWCnesDM4r0z1oCkDa0InHdXr17d2t588eLF4dHh6dnp1ubWyspKlmUnJyfP9p5tbm3t7ly7enXnwf37L1++2nuxNxotX79+va7rum5E+OrVndFoZK05ODicTqfe++l0Mh5POm3QpqXX/96Uv7+yfAdQ/wQQAWpaLBxZLVeNEbDSha6KmLLovCUz6yKFtm1DVLPvngJIhEVAqSMmYEHJXg8CzIWsHQ9EoKiCxah9EpGuqu0RZRbm2LkKEAnAzM45n3kijMfjqqpWVla0+PLyclmWh4cHV69evXJl+1e/+tUf//jHRw8fTifToiiuXrl6cHjQNo0bDE0KXAU6iSczl9EDpVUPPZkdCQRF3xgzGAzfeOON3/72t4+fPD45OXnz7Tff4Du68Hv3+vVbt26JSJb5qzs7uhTJWjMaLb/11lsnJ6cnJydffnnfGmOdI0JHfc/TS3AiMisry0RUlqWICIl3vq7ruq6dtabzUMbY4WD45ptv7u7uHh4cRH0jytknT57oaxUskjmLyIhR1IsCkv6U5D6ynw2mejh3IUnPORHRYS2rATITGZ9mCoUjt204OzuDiPN+OBxYY611zqVd706Oj8uqPDsbr66uFkUhgKSOkYiMscjyzHkHQCqI8NLS8Ec//tFPfvqTv9z7y2effXpweHBt99p77723u3v9f/yP//6HP/xhMBhsbG58+OE/TCeTZ8+fPXn65J/+6bfvv/feZ5993rbt0tLw+vUbo9GSsFR1NZ1OT09Pv/rq64ODA+0YF6kEQJ3yJ/X9rnCxpgsgalqpViJABKxWm4w5iggRQcCdWUJEWMRcYsm6n07TtE2y4OQSgc72kHQumR5RunhuMNkpBqj3Y0oQdQeplIiIGJAI+tEIAJGeWcKstejyMr0qIszinXfO92W1493a3Hr//f/03o/fy/P8/fffHw4G//2//bez8bhpau+9MzrF32EOEAQG3U40gAAE6xwRTaYTgHxaUsZt0y6NRt67s/EZAE8+hPZvf/vbf/2//mtVV1VVNU2tZmyt+/rhwz/84fcHB4d1U2dZbq3VZdVPnz79+OOPX7zY29t7URQFIETGOQtdoqz7bIjuRC/GdLvMA6pFVVURIUlH14wDzjutnIiMtVnml5aWlpeXh8PBs2f18mh0/fr1Bw8evHjxIoQgEGFhEYYwENpg00LuNoQQQrDWGmPqpiHAZ5l3DkQhBO+ctTaEQERkTF1VRJTnuTGGRZq6ZpakJgAA7zwRuFtpaNOLJVhZWYHIycmpIfLeE5F02uadXx4tG2NDjOgEkkTFUld10zQgCTGurK588JMP3nrrzY3N9Z/+9Cd5kZVVeXh4+PXXX79x540bN25MJ9Pbd27v7Oycnp3evH0ThtbW1q5evWKdM4Zu3Lhx587tP/7xjwcHB1mWD4dDXeQjIgAhZV2Txs1IEulcHQAiCHSmY1aiQ/cHw8xYRETUmGOMMbLowjggxsDsRVhEFJ2LlsxtCE3TtG1IrGVhncjSWVYBERkySiiplmnbpCzogNQkeqoByAVr1xupjHJRJAlwjjeLoIwVCIuxjgBhvUIhho2Ntdu3br/99lsbmxvT6XR1dfXdd3/05MmTRw8fnY3PDBm4RAuAjusEJG+XGgCsMQJw5DzP11ZXQdQ2zZjHS8PhcGnoMx9iMMaMRqOyKv/0pz8575y3XWhBIhJCbNumrmtr3crKKjOrnahINMu1srIcQhCBLlQUYe8zImJO4ksIdf+ISNM0irKIiCByBIgAnnuP31o7Wh6NRktZlrdtC0Mrq6ur62vD0VJZVQKwSBtaImONCQSd5WMWZgZgrLXWEtJOICpm2+1e1Hlw6jMO2kFA8YDqBAggHTEIdKbLGmeIjaHda7vMPJ1OjbXWGE2LqFSNMd0KVhFJEaAxBBARhxiMGOfdaFRc29l5//33V9ZWTk5OikFx6/bNuqn/8slfXrx48fTZ07W1tV/+/d8vL4/KafnJJ59sbm7euXN7Z+cqgKOjw7Px+Pru9SvbV4jMyclp09R37txZW1szxqhJawcour4AEO2q+hitV3Qi6OhMT/+dIBCAoNztMlvMXQI6iogxFhDNXokkUxG50CeLSIwaX+sOXlpcRC1FpQXNOKtAe5pE7aE7XyBt3o91xVI50iEUEYhUlbUxVYnO0NJvV0HaPKSvUhEDwVp78+at/+O//JelpWFVVY8eP9q5urO2uvbBBx+IyJ/+9CdnU6SnGyindjBTFgCUFA8cIxlaW19/++23Yozj8WR//9XGxsb6xnoxKKbldDqdbm5uNk3z7NmzYlDkRW6tLctyMp5UdWWNLYpieSXPsnxpONS1+7qMYXl5eX19zVo7mUzquokxGqOSg/deJL2s06TRr0DNVhLRvTT0Vof4DARYWV0dDJess5G5aZqqrtbW1jY2Nl6+fAVAIFVVZ3me54UQcYx1XddNA5G8KFI8PBgQYJ2LIYDIe980TQzBZxkBEBkuLXGM48kkhkBERVGoqQMJRagBdNoPgIwdFMW7P3rXkJmW06qq2rqpWad8ZqAUA4Ck6Y10PYpzbmV15erVK++8+867P3r30eNHf/rzn3av717bvfa73/1uMp7c/fPdf/3Xj373u9/95jcffvHFF3fv3v3oo49+85vf/PrXv/7Hf/zHj/7to//1v/6493xvc2NzWk7ffustInz66WfXr19/++23m6atqlKnmuu6attWVZwIXVytpwRc5Pq/C0SAbk2VWrIKXQe4UcfJwsaQdEs1k6mI4GKfLKIztDF2mTLWpJekJRNEhBRa63F6DjMz7sWmSjYHatCdPs5Y0sUnycGgM+MLMF/1xYsEMpZCCEdHh59++une3t6LF3tXt69evXrFWts2rTWWmZmZYFIAkUwXShw6lASw1nrvh8OltbXVrc2tpmkAOjk5MWQMGX3pt6oq56zzw+0rWyenp2VZXrt2bThc8ln29MnTtbX199577/T01Fq7vb09Gi3neXZycmKtXVpaWltb8z4bjZaJYK3L84xZYgzCUtX1ZDI+cSfj8aSuK+VWF+mdY0zPqoWrbWgfPHgQY1xZXj46PiqrEsCz58+PT06qurLW5nnOIswyLaeqowJo2tlaK0Bk1l2+hDnqMNta9fLG2hBCaFsCyBhIeiVbdaLHQXVmQSkIMcS6rpeWlrzz3vnT5nQ6nZp5kpLPT1I1xti0s4/OSAIEY8g6ezY5++jfPnrx8sXTZ0/3XuxtP71y6+aLNobh0tLe3t5f7v2FDO09f/7y1StjzNOnT+/evQvgyy+/PDjYb9vm+fNnf/zjH7MsH41G7733Y+f84eFhjPHsbDydlnVdiyDPi563RBBBjKzSSFc7oH410fz1jh3p1pxHey0QiLSbNMxGROePemNUc4zMNplKBxcsmaXbXzflutWWpcMeAGljM0PW+gSgLsC+DGN1H5w8tJYjImOSuDvXLcCsre8HBGPs2dnZX//6twcP7u8935tMJs+fPV9bXb2yfWVaTo0xTdsIiyH9kiBUg6nnvvTMBzQfm2WZz4w1SNEs6+RKMSiqqqqqajKdWmeFMC2nAuEUmrrIkuXFlatXIwvHmOfZ0tJweXlZ3aJzTvlhrc2yTN+mZpa2bUNoyZAu5Z+xXHWp6xn60/mLPdoA6rp+8ODBZDrdWF+fTqdHR0fP9/Z0uVQIwTprnCVBqJumbrI8N0BkzrPMWssiIQRmzrIMIiFGteS2bWOMIhKCfu6ucWWpuz5YY4y1wqzTGAlEu5lOsAAEbWiZo7MuyzNjTF1V08lEF5D0j3VmT4bSFsJQ3msHJNKGUFbl3t7enz/5c1lO2zZEjo+fPnn8+LF3mXWuqqq/ffHF6dnpdDIty3J1de34+PizTz87Pj7ef7U/Ho+F8fLlq+m03Nm5ura2tr6+fnJysr+/75w7PDzQyWRnnfe+wwpISEBm73UvwPlzBRWSsuDCIxeBkMzYpK4yJb1iB70Zz7gK4KIlc+qTVd+EmWP3xTDqAKr6qjwEdBiKqFEIQK83Z+Zu1klAxoAZKilc/sT3AyJ68eLF48eP19bWru7sWGNevXr15MnTp0+f5XleFEUMUVj0QwKif8m3yfwJgKqurbV5nh0cHtB9KstqMpmMx2dlWZ5Nzl7tv6qaqqzK45Pjqq5e7b8aDIdLo6Uvv/yyrurptCSi/YP9jz/+fV3XZTkd/88zEYYIszBHZtGlXUE/zuj9YDgEoHxu27Ysy/HZWYixKAoiEoHGn4Q5heiE2V2c8U8Ek8lEIHVdDwaDly9fPnjwwHvvvc+yjFnKsgwhGjJZnuVZFmJsyhKA6+b2gm6BKFLXtTFGROrJxDunwbZzLs/yqiqlrp33ASAdSGvzqiUAZKbfeokjE6hpGzXRNoS6rotiMDNkpP7AUOqNAYRuIgVAG9qT05NJOTbGNEG/RCkiUjfN8fFxnuXWutHyctu2T548nUwmo6Wl7Svbk/F4PJl89ulnIEBImOsazNy27dOnT0OI5XQKovX1tdPTsxjjaDQCpK6rhLuS0QW/QErQJpS/FVSEFy6evwIA6OyMei52VqmWKUAfIEP/xyWWzNI06SUoCJg1TheBaGK0L6kkEZSu/qpGVIB0rvgiAQl6PHsnfIlXm115DdnzICJN3ai8h4PhjRs379y58/mnn37xxRdZlukIGcswZPpUjYgwdD0qREQS2gKAWUDI87wYDHRa3md+c2tLnyMiddh5nhtr19bC0mipGBTOOmYpRDKfFXmhKa4QAnN01rpuPkYExjgg7UFl0homQoonnfeZbh6Q5wUBAuFuNQ+SKlFvyXPQXxBh2djc2N7e3trcGg4HZ2enzvmiyIeDoQ69ROCss84LcwihWVtzzjlrjbXqyDPv27adTKfGGIjEGL331to2hDzLiqI4Oj6OMRZFoeExd+goeoQ5S07hGyJHZ52zzlq7tbUdQhxvnGU+m2mDFtfBsbUiEmNs25Y5imYl9T0AEgGGGBpnbUKYRQCBsS7Pcn0q89m1a9fefeftx48eP3329OWLl1mWee+aOnV1k/GYhWPktm2IyBhq22CtBWROf+fZfF7lCViIROZgoZiWoX5ubwbdufSc0z5Zz7Sf0zgo6Nb/kuqY/VxiyZHbpo2BpeMWs+o31EXozyJ1inC6lgIJEUk/i6C16MHMoQAdEX3B7uqFKxegL8EsVVUVg8HW1ubK6urO1Z3/7Ve/csaKYHNjs27qk+PjPM+zLM8yr8+JAit3WFgE+h/a0EbmLMsMkQDee+ucvisfQivC+tLVYDi0zqa8MYGMCW1o28DMWZ4Nh8Oz07PMu82N9T7XbzQ1bL0xlqATb4lfUA4ZSsEVEXU5TGYdoaV2FtRkARLPiejKle1r165dvbqztb1treNu706Vi3POWgfQZDyOzN45AMbazHvnvTWGRcqyHI/H0MWzaRt6bkMYDAbD4fDo8DDGOBwOTdeTa81EhMTfhCZRJyeBc865zFh3bXd3Y2Ojquq6qhIDtTCIjDHWWJNG5k3TRInQJdC6MTGJiLBwlud5nkfWHVR8OS3bNrpuz0Zr7Rt37vyn998HMJlOT45PnPfO2rYJKoo2tIA457xzAoQQAHjvQxsEMMZeUOKekv7Cd9BR9ExRrizeUeEj9fMzAKHbt2zOkkVEFabrfEQw//1kVaQYuWlaDWZmt0R69moLANQvzGjQ57+NKAKlPakTUaSZgsXnSJU6KcHcjXMsmAERumGtiJwcn4jIA/cAQGjDle0rAIq88Fvb2qvMM19ENOpQvvSNMCD9hoTAcDh0znnvYwwxekB0ut5YS7qTMwEEMqbICyJT1zUZ451fXV0FxBBBmLv0A4Asy6zVT7p0PrbDh5ljjMoBMsYa46yzmVUyY4o1F5K9+uj8MTOXZfnq1f7BwcHJyUn3InRurW2bRieOvfPO+yzPicg5V1dV0zR1XWvnrJa/srzMzMsrK7dv3To6Pn758uWrV6+m0ykR6fsGeZ7XdR1iHAwGia0dfwkJqd6SVZeOjo6csyHEGCMRDZeWeoF00hANnYw1BIQQIkcWgQapOtoQCTF11MujERG1IQwGQ+85tG02yJ1zoW2Pj0/u3r374MGDw4MDgZTTKYA8y4Wlrqssy4goBF189FoN69C7JEb+7iDo+rlvBNKtP+fSh6KvQsQYY2RNWrOwcApEmOXcGi9hqP8Loe01GOiE0buLBeOaQUKUuizeIs6kP50R62kyZnSuW5VXDwAo5xZbS08sgk4EC8E6yzGW5RSEGOPpycnK8kpRFJPxhIjy+Q9BdKA6QQKkzjiBdc4Q1U2jNpPnubVWB7mSJgO0ExcW6SyZjDHOeWNsXdfMTERZ5o1+limVVQkgy0prrIgI1IcIAAIEavLayZOhLtgyunxZb85JZwES61VaVVUdHh6Ox2d13USOxbjIssw5p7krY4whS8ZoIOucG4/HTV2TMaPRaGk4FEGWZ1meQ2R1dfXGzZtkzOnpqXNOBWCsjTGenJycnZ01baupb3RipoRIh0+Hn4i8fPHCGJPnuS5A8t5Tl5kX5hgjCxsy3nvnnfbMmrVNAyFAo2sATdvGGEajJWaeTKZ5XljjtTc21nKMx8fHT0N7cLB/enpa15WIWOOMocgcQpvnGSW+drqn/8whnM67e5fy/ZtABDPBAH1dHcxVSCCVeXq7C4CabMo8s/pwZk6H/fmcJQtYEEKom6Zp2thtTENEyjsiqFJdNKQeBGrMiTM9EKBPEanRdTbcMS2tyegqFtIIHucDeSixlwMBIAgkxlhVZVWVz589K/LCWnt8dOycG42WmEXp6o1WRUUXqCoGA51B1fJ5ngNomoaFCXDeEcCQnqXKIGMI0HAohhBCCMPhkCDT6UQzsT59jMYAECEkr8rcGae1No2obdqJP7IuoQ2RGTrlkzK6F0GUW9Ya732WeYEcHhwS0WAw0AVwg8FA/UKe520TqrohMtZY5914POYYR8vL169fH2oxImH23ud5rr7MGjMajQyR976sqsODg6fPnh0fH9dVleW5IpzkOpMnKMkfRASiyXhMRMvLy+pTlGsKnCxZtAllV5qIERYRgfbMYqxVX1BWlXe+rqvj49Pt7Stra+uDYlBWVV3Xg6KAcNNUIlzX1dnp2fLK8nBYGGMiojZnoPqnGqjjWOpxTxd6IDqvgK/xqfMgAER6d6Hjaq1Fr3TcAYGIyHSzvNQxpIP54xksWjKSvw9tqzcXb51HWFkKonOGljC7DDo85+UrBOg+DZjnSfpXm5itoem4m0rNQWJLDNEQDYaFc65Lgggza2zsnG+ahmj2nRqQygZE3Vs2hF5UMUY3t4wpxNA0DQBjyDkLQwbGOP3wkZXO08XIwjIajWKIZVU564yh1RUHKPVz5AsAkhROghJ7SHtiPQWRM8ZZl+UzVXg9CNKW9BJjaBohojzPjNEPDg4A+PRtdG5DMNYOh8OmbgQiIprH2t3dvX379tbW1v7BwenJycHBwXvvv788Gr188eLJkyd7e3vGmN3d3d3r1x89enR0dDSdTLxzfjSSHr15IgUAiPRGWo4zGA6MMc45ESFD1tgZVQKBEMiYtO0uM0sU6AjF0IxtQN00xpjl0bIxNBgMVlbWrLEcuSxLZrbWhhg4hLZtdflqnuchtJPJJM9yQzbLs8ja/xNEeywBpW5lHnrT+3arxbwez51eavAzPs2uEAEpvjZkjMYic0ab1sOxsAgD0NNz0bXEGHUEpeM5JYkIAmGdBaGLrROSpSmqidPdKSAAEaWcGfWcIv1JtaVnFoFUsP0NSbO/8zwhADorLAKIkLGZz621Sq6wEChfyo01RCYyi7BzPjWfzCXh1gEAxBhFxHtHxkCkbVuKKf1grEm9IhEZgmpbYo4hRCYp8oI9Azoparx30Ng6oYVUXBNaAHWrIJUqkc5TEpkuvlbSdYgklykGICBwjCyRmQEhomIwMMZYY73PABBRCCHGKCw2s955VRFAVlZWNjY3bt2+vbGxYYwpy3Jalhxj5n0bwpMvv3z8+PHJycnm5mYxGAwHA46xqesQ49Jw6Lyv61q6QQF6oQnQWZ8KTkQGvjDGkCGBNUzWJkum7r+kxmQ0HhGxLEYA5bmKmpnbtvXOFYMBAOtsnuXltKrrNrStsdY7G2NQdbfWZpkfDoenpyfltDLG5pnz3tV1A7DxHhDoyj70qAOAzK0F/B4wJ51Ec3+RCHIho6QqkKyBqBsqG/2Ezdw4OabFHRAWERCgXvhcxkuY9SuP3f8xKiMAUSdnrDGqcKJpB5BiJugZ0fWh6TQhpyfowuaZpGcy7qFTaJlxcPbYrGSv9wC0WVUAYdb9xZ2xYhKHhIUpGmuke1e7r4IUQFAOwgBiTHqtFixAWqKgxgACESlNc9VAuQTAEJXTSpms1qt2BQCCZKLQNrumAdbherrWB5wigsjMkvibKsACm+bxMDaRQNQXSv4CAoABMia9sCFd5iQG2dzavHnz5vb21vNnz7/++uujo6Pd3d2f/PSnTdt+/vnnn332mTVmbW1ta2trMh7/4Q9/ePDgwcHhofc+yzLrXGjbhUBOoSdD0RYR4RCZYkJKAI5p6XhiCEDcnQIArNWxROI5iIRgjVhriUxoAzS7W7fMQhBrDSDCkQDnNOOh/it4783ICgNE/fBd0UhM1VZEzQQgoLPxOdWbgx5LaEULCt3fUlF0J7NH9EAAggBpJAuAuhkOYSYCx/TRRmYmwJBRBI0xSsO5cbLEGJumaZq2aZq2bZqmaUPQ8ZohctZ6Z+feiaeEQIIOvQsEKx+Mlsd8AdU/paQv2QNpAb2r/OxIVa+WCiiPCGSN7SYcdSnLbACWOEtJTtoqdc+KPp9KSnc5nZKeEumqqw6DuX+ICAKBCAxIkipAx8NzegGkdkhDaBAZrZoAoFeortYOR1FtU3q7upLOLAIlOoi0cFczNHCBSOIBAEAiR40zI/D8IwAAIABJREFURLiqyqPDw6auX758dXh4qFNQ+69enZ2d7R8c7O/vDwYDMubJkydNXR8eHZ0cH7dta51rQ+gWIXTtLUBHEgGJfF0e1E3EKu8AkB6nR0SQ3BqR3ku2p210AyK1HRERMEBzYkz1qxTUyIjIWsckSJP5RtDPgBEA6RjXQVef3r+U5z0QQdNENFsKoqcLpeZP5q4ICwtHinosIhDdQoxEmGMMMUTdhEOpliRVnI+udRY+tPMQQzDGGgKRcc5Z57R3Uu5+ZyDMq888oxbhshvK2HOtqfWni4nZpKkT/TsPRLPyINLMXE8EJQUg0Lnvbl1s+nVAMzyQhgFzdxaBYNJgmLRxUO+UVUbc4UZKKwBAEoc6LdF/uir6S317iygQtGB/lUUg4pwXEY58dnpWliXk/2Ptzd4lx4070d8vAJDMzLPV0lXVm3uR9Fljj1/ufJ///2e/jj22NLalK6m7ums7Wy5cgIj7ECAzz6mSbM/cqFNMEgSBWIFAAASZc1bVmNJ2t/vtb397d3/f972pjsNwfX19c309DEM/DDFGf9diHEdTJf9cQHSu2PxDkrVNWug7MnthIVwEblZLgcu5H2ce19/5vMJHt443KEIY1D839QCDk1zH48zeKqAlzyeAtcEETnA5Vn/aEJxoo98ymJqpFvjHQM1bRiHotum+spqah7TdmM3s0coQH+TEmFxCMcaYYghRdfrLLdEJeHsBAJilYgDpHKPneFTYQ7E8Ap7wrx4XrV1O5kc/VcAR6E8sD3tZJw/N2AJ1cPRfA9LVlQRAV8I/VwzBypUZHa/UWxea/QcK8xiOTF10rlZy5BJZOTBnQgoxhuAks26dpzCLKbVt6ym+m3RKabNem1kuxV9L3qzXTdvGECiSpymXh986fAizLriL5O6So2IAzE3J3SzA7XzRCNbubeHk6YlTPTfrXsoR5gzuzFWi57Ifw1IsUBl0kn9Jr4ScwMx6x7WezOeosrSP1R4njwAgKSIxhBgihVqKo5+n0cyKr8Mbx77vp3EqpWihD51J6DF2bTDDPKrO6vEu9QmWUkoxBcVEi0/t4UQFT+EBrgbvmUi4CoFzk+TMNOBISH3iU1B5Z4+E8dGJc25O+QRUPh95B7pzAi/dEYL95VI+CdXZXyogCCd9zvG4yFnQJyn1P9wBruh89Jxz9s9w61F19eh4Ob0AHQCEIBTJUxaRdo720/srs0hqKYe+D+JTu2maJvUPTYl4TN7qKBciUgOpMwaPgPDq5xauLhGq+f1ZkHCH0VCV8kg/5z8/fwRLv/oRZ6o4H3W8y8XHRZ3Cw7uO+EzipyldDGOh02MletzOtd73ux8BF+2p1wDMVHMp05R9UY8WVTX1qWYTW7xrAzzSPY7jYe9TcQ79MAzTlM0oFBgJUoSEiNh/out6qDkAavtogOPrJ49Z9hiqNGCnxB9PnGcPWftnClxw8d/ajlvVnAWducrl6GCo9z8tRQCVGrrazmQTNVx1Aice/COY8XucDuA/UsHloaVix4KuHn7ifj0AVUzTuN/tQwi+TCWEEGI8HA7DfmibZsq55BzaFuQ0jv0wlFzWm00MQU37Qz/lydRijMHfPQQe6uspkhWJik39qbEkwjst4hibs6Ws+ci5QJ6mVn7hk/BJLj6S6sfwqYeWuudR91zCUtTy1CN+gx7ytNM8j85hBlXLmmEgWUoZx5xzNgNIszqx7PMOqs5pU6sdUFzYYYaSyzjmfhjNIJRq8arOTgpDDKlJXdempk1N8laZwrlA9yK8iuUI1NaXwDyOX245p12YcO3yixPZ+M9Rplw4cMKJk7yO7SzB+ktS6iiOfsljdWZmVTTVsfMbJKrf5shXL/CTJnj6oIcDcUS1mvEJvsAs/hNUUdFdUuYM9eZ87hQeM9SLx4TT78iD0mzhoDOcQdbrjQhJgamaspSUUnTrzBlA27YppSBhRVGzGCLJQLZt2zQNyCBSR8hVAU6hsqCy2c+PueoZQdclDx9U9Vwy1awAKgtmqOdLnQsjlucf8GmBWtQcKqm8mnk2P+M1Ltpc1cEvqsL7v1ocuBC0VOFpEJFHnDnWCxAQCSFIlEDS1MZpBCjCcRjMTNX6fuj7QUs1SG+PzUBSKMc+2cxK0ZxznrK5xc9GTFIkxPk7l6vVqmnbmJoYwl+wZIOP2AGAQtcedzSWPMDM6ZmT88VMYf01YS3hL8CpFMiawNqGgELOlkwSpAvOaUdF2g2ScOPzB2fEfJLoE72rw2zgBEFf5n+8d3J8DCQqaX4yK9dphuNprcXmDMtJHRU8KsqfAY78Np/NcgYRANrWyMocU99IDCCFjCmllNqmEZFcSnAbDsHMVDXGRLKGPyuLqnQBPKTa2Xwq+4dcp4jUqT7662JHlCucXrogKmlAtXwYlvoM5qIyLIkfgbl7UrWFAMnKtgco+i8M9e8ksf7W8ur/mRvHG553uUbNU/Ei4YPkEAIMqiohxJhSjCWXkrOZTWMex7F432pGCkBTAwku34UymG8pYmY+vC4lawEgIZCIMTVtu9msN5vNar1OqYkx1S2eHlqyI1YLdSR91stpq6RXWFLAmdbKJnhxXg6BlFIKD+JzpzCLAlzUfknCnESAs3qTfCC0WpFVQybm4ZyfeDHmo7pPWvJMnNcxPzvfs5rj07DkPvl5UMKMnzPPT+BaU2+Qc0zCUa3//NTBk5wrC22zQEiKyDRNgHVdN+VxGieSXQgh+i75ZbfbeYe82Zypqi93IxmC98YoWkz1iCx4JGnBjCSFBEghbW78fSLfXXTQt3QuatUfdDgpedEip2HhyQPw/C6ZP8d9VsVcpGqYdYjmKw9A+H/nludemD+jcQIx1kU4J+B5HuZzUivUDJx5EVMCMI3D4XDQUgympqVofZeketcwc+pPv/BmMKCojtN06Pv9fu97oEx5quWTQ0oSgoEhTkGCt2eyWLLzFcCsRQ6uJZR5Ts95UlGY882/ZuY8hFVOeXKQIAzLpT9TdQNw7vthUVln+Zz7RKqo91ytKks41z0/yTkf50pQl+2f0HYERwmoT/nfI/g4BZhTj887MqeZF1WpTFu4s+RxpEmSdQa74ky421pve0b/B5ipqamZkRDKNE0gVquVfzScZIwxpRRjmHK+v7s3848z9ao6DAMAUkRE6pyn2YLqjFh1bmbzmFH1E7jKmLuI4ivnSLAGdNSOjHG9mS+8mlqZ/7i3MgvoNDvnxMdQ94mvWIAwMxDe9FYlPUHAj1zqBWZMjtcAvEmqt+fEx4xx+k/AZeuC8BLEl2paRayUMuVpGAd/V7GUeiiqZhqxVEYA0FKGcdzv9/fb7f32/nDocy5kUIWaQVhKGcZRKNVjrnKpMvR/juFJsQxBXMOqec6EVWL8Z6asNoAzgyoLPPJXOetlkHClpCsKQaHQC6qlmTmL/OFj2NFqAQRAr9OL9XHa8eZcBQC4bnyyT65gcGzgf/8FmCVdMX1w6+RglXwzg/Pf6yJJuodUdWjmLYQnY4rKNQIGM9WqBwDolgx0XTtNk795H4KEGGMIOee5Tw53d/dqOg4jAEodJHt78QDvhX8VFhK5qLX5mcGRr941fTbVderR04alRPr/WTZL6pKvPu1ofVIcPmMIg7cZ5qxwDlfsTp5z8h4VVAn4FFRy69G15whVQAvUtUyM4mFHDyJimkb15bdWDn2/3x/GcXQLrjNNpahZNMCDaiQJ5pL3+/399v7u/u7u7m4YJ1LONuchJMCmnFV1GEf3oVyTHvXJTpgZDEffyNc8V9bP+C+U+DPLZbWco8F4wZXTtWxnaKXdI2oQikA8ha6sLg0HzH8zik41OCNFeHGOiZfh3o6nwFxsp/Ap/VgK/U/DEceZG49gYc0MdRbBsRUPV6D2azjF2QULOOpeAQiYqfmyoaK+wlTEJ5lijM4DkqrFJ5NFJJcaVt3v9+ZjMRjJINUltpmQGcmKgF949X5zJnU+N0ed1bs25JJLLt4pV7Cj3ElSQIqwtiCO8KIXAFBN58+a8ZJv0Qp/ZdLM4KRUdM0lenzKgJOkT8rLwWv22x9nI4ClXMBZQ9Q+WYQAg0jbNoSVMkkAaJeX55+/euFNcPF3xMzMZ6HqwjngMBzu7re3t7cfPny4vb2dpmm1Wl1eXj179ln0dfZaZ5qPL35X59QZMf/OojJzX4X01f+O8JEET6qUAiRra00cLblKxGhmpRQAdBX2xw30HaS8Inp5R6xcxhIEZsW0lKJQgvBV1V6f1y0U+iptoDL6eFbpYuW44zhncYpmCuFq9V8AzuU7rQtzav1e/JzVqZsRJin+YGoagKWUUgrUJAQXgffJzhEYzLRy1KwyfS5bKBCvzLtGmhpAUygg9PccrBQDnWDCF4o5UnPRhplFFWakrRK45ICz08ygpjQDCBhc105H3SelGkkaRUBx1xiwyiEz8zlWkiKSUjS1nLOpggwSpimbadd2qjrlkaTzxUcZoJFw2bo+z+MPMzMCMYZjI3kkcEHyCEcCH1ydnLL+P7LDvE6Yma/lILledQRyHlMKInz75u3NF18cDv16vSql5HnxZgShahSa2d39/YcP79+9f/f27dvb21uSr16+/Pa77199/kWMzTSNwzD6HPM4jnkqWl+wUptp9Z+KbbVhem9sS0QNmLVgJsOPlalmNkv3hHyCqjYOI0jfBUrcXVfl/B0DwMyHV6ouT629TWjbFkTJeRiGYupeHIBjjxRqUwjMKDpiPnayihEAwACb5cDZFPykIruc/Wdg4URVEZKkU3fCpSN7AJCGOv4VEfpmQ+fn56a23W37flDVtm2cE74VvnmMBLb0c07TfAL4a31VDhXMrEr1JD88U/WlH8rJb3upgHNpOcGDk/l8tu16+jC3c//BPQA+lyESgn95gwYjKJRSSsl5mnIIsW3bzWZTSt7tdjlnoTRN67tzX1xcTtO43ZoEIWEw1WIw8aF6ELcIXxZV6kZiSqLrVtHf5lhgtuzKmoUdD/lC15fHyUClbKZRNdeNfso0TaalTFm15Dys1ysJ/PnnN+/ff9hut5eXF6pacoEZwEhUfSmmfd9fX9+8fv0awGefvbi8uvrqq68///yLbrX2MCKnDFbURUgGM/PF92Yu9cp3IzCn1FYNsLrSeXaHFlJogLmumnfZxkWDZ5AQ5OrqSc6574dxGCXJ5cWFC6/v+1IKYF3TeLCBJGA6v9jpNGspIcRAcJ78jKCKAeZBTAKLJodQDXvBwOB4LimuiARqfTX1hLL/DCz5F654jwiAnmiAmzTprAHMaltV/PsNJKdpMlPAzs7W3lRN05SnDG+M3O58xS5cOjCc7FqMOWRVU8xrdkUBUKuueM1dMQBPPVVQZ8nMKaI+Nh8d5sRZ0jPFcC7weGdOrhcGGEWCiIRgBlPzLhxAkNB06fKydZ8/52KGVdf1w+ALFpuULIQ8TVBrUjPlUWEh1pYd9OpJUkRCCDGaqqbUmBnMYggyhxQdFrTx0JF2Q3hIgv/WM6tZ/BychRokiASRkJJv+OFesPZ9HyKbJvZ9P46T6VEC8H28RGBAyeVwONzd311f30gIT6+uvvzyq5evXl1eXh36YRw8nDkMwzCOo3vXx2L86NrmMI+a1Kw6SVZtxP1mwyKauUGCzUmkkOCpMYfgYdQk4m/SawwhBEkhIgXS8pRVC2CmBazPEgYz0+KvgpSi5GwKp/+IqrUnkJoYY6rUuQkBM7EuGFtQnR/yzCd4V/go4QQ4qyjJmUWuzJjP59sV5gdFRYuqEaQwBlFFDKFpUgiiqoAWnXzA6WKvdupvpC7/4BI4sWS/rmHw5Z/3hMTMC0cK4JGdJ5RWoVZGHTnncKSiXh5p8xMf59R/3vx7XoKEj5BFBCd+GNwBDrHrOtRtW8aihYCWPE3TOLgS8nAoLrdcJjMDT1eMKyCsb7XS8fY2nahhGOJI6PFitmTnpCP6IKvfmym3+n8Bg8HUVIRBJIRYYsl5HPpSCoVFdRjHw+Fw6A/DOBb1OCUMMN/HSwSlYMrTbrfb7XbDOJydX15cXDx99mxzdmaw6+vr7XY3jVM/9O5XmxkMlDpMcRIeoAjHylyHzLPVntaKS2umAPAeg847AoSHoLkU2jRBBNfXH0TYdd1mc6ml7La3TWrX69Xz50+1aH84vHv3rj/0VRlrA1LbCe+/JndcSnYJyBwvAXkiCQBo2qZp6qzgjEUNdVb9Akim1Ej91om7E/UGHgCBx6q8QK0doLOFJFXVU+gsm1EgZg8wBGliK/5KAihkiimXSYiipR/7cRz6vh+Goe+HXLKpLsV7Vf6go1vPDYbapXiZ9Li30+tzvuIFsKI786b6UrWoCseo5VLFCcwkeXlHAAjzN5QhPJmMmMFdFlbHUNymCV9BCCvqnzYbpzFPeZrGaZzmzxZOtTNH3SRsGodimsvsMJMSKMGJrKxwNEkGkZSSAAarYoFVouinlUB/3Fn0IOXkZHm0XhkASGBto0LQEkvMIqSICNSyAf0wHA69O6EGkOKqHgEIUQgtejj0qnZ2drbZrFPT5Jzv7u5K0Xfv3h32vVvCvJsSANIMMIPRcZ5JckUwVGN2WzKgNlXmffLMCjcPt3Qj4KKtcRrOlA/jEERSiiGKbxot4GrVNjEJsdveHfb77Xa32+6Gfsx5csfBzLzpXXzsipiZEUIJIUiQEILrw8JkACXLdHoNiFDCiWtVdbtUzUf1YF3pT4AATpX6EZCuzKjEev9TU8iZrSRY0112mvMEAmZdu+raru/7u7ub9+/fmmkpZZwGz09qEGTVYfA5xbmnBUHaaSWgiPjKLQBGIRf7B+GTFPXCk0HPW5F9bMmLslYdqZwCAMLXXDt1c6DN66k4eR0i4h98hhsuReGn1YhDCE1Mbszb7W4YDuM4Hfq+H/pp8vcNilBgmvOg6s0VgoSQIgUGDHUejhJEggdhuICIiJBCig9U4EqEeuKkAeTDMcYs9AcsOQE+7DpA0OBOg/gXOkmCMBHGJKVMgMbAXEo/DLl+Ag/eW0YsrDbth95Mz8/Pm3ZFcr/f7/b7YZhub2+nMcM565lB1yeYOWMInsrqY70lgDl75YXV9EovzQzODCHUjDSQns/yaBLatolxXiQaJYVgqsNwuL+72253h8O+FM3T5DsKgvBImGoZ+n3f98M4xhgk1O1mRSSlFEK0GEMMgvotQkdWtZS8UAwAvo8IF4wNRtO6Mh51IOoPnz5V4XGKG4/VvP5QPRrJxT3xVJcvRQIMVrRMuaQUhVJKFgrM7m5vr68/fHj/wayoqllZr9ebzabtWpKllPfv32+n+3HyEaMPg90UnSrSN6YVBPFw90krDfG4khoJOvKA0TzaC5f9I7lb/e8/yz0+ToA5OuYd8ZGFJKmqIgwW4O27GFXd4SUlBIlRYhJnQslD3+/GcTz0h8PhME5jlLDqus16A2C7Df0wjMNw2B+GXIzoug7CXLJXFmMMMWiM3r6Ld5GgECIQ0qVczXmmDTRvlU4aMgK14z429DPTKoFz1gdAwI15DuYIGUJMKeUymhX/EOA4jiW7BwJV02VlCAEDhr6fpimlpKp931d1yCpkjNEcXPeqGZ6Ad6qYlXy5TXAuf6noMVg9+N35CdLVjCDRtm2IYRwGQGPsVqsOqrvt7u2bNzfX19M4tm3bNs1+vye0a+OzL16+fPnyq6++Klru7+7/9MOffvzxxzc/v8kllzKqGuvspRFWxKgGGhHmboGmRVk/XwzA8REKHbsqCEJNWUcsTsmR9Pog6DQ9Ap4cXD+cA97WaaVeUJkAwAgD1Gyahu12++UXX1xeXu6229c//PjzTz+nFLu2efH82d39Xc7Ten3x9OnT58+fPX3+bL1ehyC///3v//CH//eHH37cbrd9PwBetPdCIUig+DcfSEQJEWZGIUiJ3ng6TjOmWOQzt2wfwcMu6pNQJX7kD0mYwQzeuAOmKkKFkeKMcgQUMAmMMRTN/TAeDrv+cFAdwBKCNa3E1Hz+8tWvfvHLz54/DzHe3t1ef7h+8+bN73/3u3fv3t1vt+AUQnAvU4RggkSqSkikhADCSAOUIOc3LlwLHoBzoJK7SP4E5kau8g7VzhcgAZDeGpqJ0ExgNEpQVSOgBmlSIJinrMvckZkWjTYLgPPXdzh/1nEcxmLm3vRS59z2VN4bQVuuAO+sZ1xnoAHuSdiM8YP7D4CAS9H5UktULSymVsxomu/vbg77w+3NTR6ntkkX52dC5jyVPIrI5eX5d9/91a9+9atf/epXTdMcDoff/e53v/3tb//lX/7lx9evb29vtUxQMRXTYlqiRbMYLCHGgAARQmDquz2BUskzU3//G5wJJoPfrTJ8CDMn5u56AWciH7hXBKyOPE6espOHK4/Nt9FuhnG4vr6+vb7ZH/YpxYvz89WqbVIseSolnZ+fffb82ZdffvHlV1/6Z2KfP3vy9Onl2dn6p9c/vXv3/u7uLucCMliARcQIqKhpoQpooC8XoxAGeF88Nyqu0PWSMyEfi/W0zX+gF3RF8NPHwJnoh7ecKzVN1VA0D0OZpkEAwFIKJUnOVsae1NUqnV+c/+L7b/7u7/7b1198uVqvdvv99c3NT69fP316/i//65//7d//3XTMRoqYaTFSVD04aFJFS7C+PU0zGuFBnKqZR1iM5PR4PDkR4idpm4Ggwd2cmbcGksZcJiGbpiHFI8nwrtVgvsZraUjcvgGIiBl8RWedeX7Y6h7bHIMtsjWAMDxS0AfgsnicegpWGwbvmYyuUjaMY3VvYOM0vv355+sPH+5v777+8ssvvvzi+bNn19fXr3/8MedxvV49e3b1zTdf/fVf//LXv/7rp0+fhhD/+MdfvHr1omvTOPa77V2eMgyqoiVryapJNSVTwhhMECmVLjUGo3vdZvVrIwBZ53spcto+P6L7gdT+Itl/CQyALWyGATGlbtXd3d7eXN/c3d48vXry3XffXJ5fmOb7+7vVqjVLZ2frq8uLzz579tVXX7x4+eLi4uL5syefffb0yZPLf/3f//pv//bv/XDI+wlqhQoaixFWFEGpShEuYjaouRxQqQaA2ZL9UivxD6h0dThNqWm1jD/LEjrHjhX5Bf1QWaI6TSXnKedp1babzfrqyeWd2DTux+HAGDbr1ddff/GL77/97tuvf/Hd95dPrlR1vz+8ffvm2dMrgX24fndzezvlMQXfORiqVKVaAJQwylHvtcbGo9UxPR4St5x56iL3jznwccqfhZlLBIxzXFNE3Cb94DmjKfyyRvLVYAghGJBLqcuzjYQPpf4vgKA9bo0qFhVcfPPPkgiYWfA1wIG73fbm5ub+7jaF8N133371xednZ2d3dzdv3/z04cPbIGibaFb2u/v379/8+ONm6Pebzdlq1Xz/3TdA6Ye9Wv7d736XS4EZrKgiZwONdcRnEQZEQhQIpJkzjiL0VRYzYgQgJMwMVvF+wKT/QGaGRRLed7E+4okLx716lyrZde04je/evr3+8GEcx6urq88/f/n82dO725v379+9/fmn1apbr1fDEIfhsPyNY7NetZ9//jIExiBmen9/+9ObadhugVBgpFNhRShCFQkigEe51IzVHeQc5jXM7ZTDX6L0/wq8W5+7mQVUdRh7Mw3CGEPTxCYFaB7Hfru7j03sVo0EbLe3//q/f9NEyeWL1XoFaNc1z589+cUvvr27v/nNb3/z9v3b0T8oC0CMAsmchBRQEDzUTUcEaoL6fQhWibiK+v2qAYvcF5mewmnKp5nGRdxePgH4R6oRQnjk2rsQ5veTvaOuMrNZnzzR9aj2kRWHT5r1xzg/gIoZcMzGh733R2V6gtMlgPV9f3t7e/3hPYHL87NXr15cXlyQ2G3vd9v7cezPzs6aJsLKOPaH/faw394Ih+GwWq27rnn18sX33337/v3b169/GIbRo9lmpmo+LUUCZjQDIQgg1AhTGjF3R94bA5xF6IsrzEPtM4OOcEIUzeC8JSu7am5bhhME7FGDf9RgEkAu5XDYX9/c5JLX69WrVy8vLy9E0Pf7/e6+Hw4pSSlxGvuh3+9327vbm5RCyWNqYgz87Pmz+7vb6w/vf3j+9O7+dtjeeo9bCsyUtBIoStEg5qHBGrJWIwweOEZFbkb4Y9H9/wz2MWPVdByHlNJ63Z2drbs2meZSJi1TEMQgEpDzsN/f30be399c7M5ABcx02pyt/urrr6Y8fLh+e7e9GadBdYKh1P7fIKAYCYsxIAgEIGGkqM+HzH9H0ulnho+1ut5yOLpXfw6WZgLA3LHV2TMK4eyw+mNmMMRFn1yhVU1VcykArTbCAOHmvKgUq7ZVmCXJ2rV8BAQWbXwAPgQ4XnuDMScIuTT7ZM75zZu3d3e34zi+/Oz5Z589v7y4KJoP+93hsDPLbRPXq7Zpgmk2nYTWtWkcD/vdtmlSUe37/sWLZ19++fn6H1tApwnTpKpqaiooBe4kkgbCogX6Em2fioEqp2kSegyMqMz2/hzOf6szaTVW45hX9gCAmRkJbw4esmQ2ZvLIUee5mctWSANubm5ub2+29/eff/7qyy+++PzVi2G/+/D+3Tgcuja9fPHMtJjlkse+393dXb950/T97sN65d9bPz8/b5p0fn72/PnTN29/vn4LmKLAwILAwlIkhGCmZgUKUgzFl17DDGIehHN7nlE1YNG5I3xS5gDqU57dezIAAI90H8ETalTtBEx1mqbNZv3s2bOLs7Vq3t3fTdMYgzy9ukxtWq3a/d3tsF6tX3wWo6jmw3475Wkaphj46vMXTZf+8Z/+5x9/SDHINCpyUSLPdkiP16uWIFJX84LUQIU7MOYGR7KuhQAJ4IEO1/tHmK8ek1OTTrkxP+c/ItU5MDMzX2+lpuaw7DTgnXEdR7vqiIiqkeYeuMvFAMBfZKvLIaokzaDqtNsctzkFx8bwwNQNmHUXqF0WzDPVAusdik3TcH1zU/K0Wa+fPHlyeXkZU8jjMI79fncHy+vTklatAAAgAElEQVRVG8S6Nj19dqU63d68f/f2pxAjwWlsDn1/e3+nqufnmy++fPXzTz9f39yqFpgCVAVpoElhDdMaDULzHkncRVFV4xy/JgkDQZgZQhCgri13ZksIKcYqEfpnQdQMIlJV+SMwFyZIGEwN4vwiYIT7D/v9vpR8cXGx6joRlpxDYNfFNz/fD/2+6xqDSggxCakljyWPqkUI1TL0g5nFEC4vLy/OL9brNWJCzjCFFgCFzCVHTa4MJOHCpONTZSISTtuqmZRHMgdwojULVHHXRNfXmaH1vN46nhCuaiAMpZTtYT+OPaCmNo1jzg1RSEzjMPQH0xLbmMym3XZ/d7u7v53G3jQDMvT97c3t+/fvfauMV69e/PzmxW679RqgqqUAFIqGYmbqBBsZCL+WwkIA9GCUUCD01nbGdxlHViZVTQHcBPwXPDJhprWWe6R9YTKEFEBL7W+rGauaGk535DNTN28vnHXGRUHOPa1XR8Ap9boIeL+pSgpJ+KgSBm8dHkmXwMPEU7Sx0AuDWX1ZlDAdRz30h+121zZpc3Z2cXm52axFqFryNI7DQWBt25Iqom0TzPI09uN4aNCSoprv7+9urj+s1puuS589f3p/d3tzew3LladzVEdN1LKZwANgyx8BwNRAU4IEDEYjzKwOsM3M1yGYIaYYQkhNM41jLkqqW/LcG3/CmGcZEzTQ3ROd89AMxTTn0T969OTqsm1bmI1DnwJSisOw74d91wWKilBEzbJZjlHWq/b8/BxAnvLtzW0IoevazdlmvV43bTOaohT4i0wFhdRU3JJhdH/Av8rkzZnVBr72oAKFOYMekOOyxqKtNWm5qncBeBTGmepZyGNeZ7WDmamZr0cchsPZZg3TaRyncfQv0pQ8TeMQCDGNVvI4TYf9OBwIjUGCsJRpf9h9+PA+xrRar66urp4/f/aHP/whiBSg6p032eZ7TsERq+iZmhZzqyBJUj0OKI5ftUP6an5X9arIM3ectpP/TmG99MdrVgBwY64hT/Opp0Ut6zNAZGW2meFoeBXziiqFhACE65q3BtnMUZ3rIkiREMTBzIZh0EeWbHMVR1iwnmlwkggiVDJh29397d19LmUT1+v1umvbGKKZlZJVcwhB6gys7XbbH/70h++/+/7Fi+e/+O5bNex3++ubGy05BPHNRkUo9QU+cwbMJ7Y42BSIcCHHBWQzxSRBkDAz0sVlqjoM/TRlETm/ODs/O2/a9qefXm/vtwAkhBiC7+riHPskWB3UGNy9gQEUmKqWUoah74chBmnbtmvbFMM0jZp1GvsgiIGkx1a17/dd25jp0ydXX375xfPnn43j9P7d+59+/lnIKeeuazfrddd2JXu0x2AGVX+DXb3hdwVAIOcVVrO2ATBVIzwGVi2Zs/AAEI79nwE7EX2d3jmF0ysXlJlPlJZpykWVoNTFG4T5O6uZZjFIEyUKxSyJdG1ztlk/eXJ1eXkxjmOT4nrVPX/+7Obm9qfXr7WUrutWq9X+cChTdhdWKEJGCU1qKCIMEkQYAAJmWswgEujDP3ozZJUdpBdhgPoEkG/WMw+7XLOdr/RLnyaoHHCGVepdLIAB5klaVMgYYqyf9IwxhCDzzli1pXXP0B8k6B5VTVZ412swIEioncoJmJlqUa2vEHuJH9ntJ6B2+TCQpt5APC77sD/sd3tAmqbtunUI0QAtJU9TySWlSGiYvwaUp2mzWT198uTy8pLgqutCCMPQv3m3Z8+h72Oou5+FEIrWfm9p5+gblJgaihnNxMkHCHd3zdTgautaZKa5UEv2fYVFRPUJhSFIztNuvxvHyVdc1V3X3ErNtdngjcEsrmM6YOZnpqbjNO73+zxNQRoR+oo+Mx2nYegPIkwxCMxNDmYhSAxBRGKIbdvGELdtK+ThcOiHIVCapmnbdhzHYgpVqJuLlqJFS9Aw66mydtHVOfHwlzrOMjOHUjlJgkB1Mb3rdjX9PwKD0bXCci65TL5MDb4kKwQRMbOiJU/ZYCFI2zQxBMAX7wUhSs6mpW3by4urIFEY7m7vb25uUtN0bbvqupTSEEaKDxyrOTslbnwkq9MJwvzc/wjXA8BMzaCmNJICesswOxeu05UPzsfKrr/MHQNqEQCAUkrO2b/E6FBKiUBVWlU/GJx1gMHMoKq5qKrrFaqoEgP8vXPXZpq6NhfvOlQVQIyxRgJcuqfw8NrP3cFXc+dAVa1qNezQ90M/BglN03ZtB0Bzoek0TjnnlBKhQhg0Rlmt2suL84uL8xRDSk3XtV3X3dze9Pt91nI4HIJ3jzGkGERpoNcFq8d5V0IxM1ETMRElfZWEGWBaRMRI73hKKYDlPA3DcDgcCA59P01jCDKN0+Gwv7/fisjZZhNTCiKqVkoxc/HS7bWyHt46VMZUq6ap6jiO+/2+aAG8+TCDAZimsT/sg4ApkAjz5hurruva1lRLzlAj2aTmbLO5v7vfbbcUSTG1bdv3fdaSSwEK1Ooi9axF1FBdZwswM0KqwEX8dVCC3tl4iARwrZ/DP1XIrLf+j2EWyzRN4ziM01hKCUG8SxLSzKwUf1cxhtC1bRAQiCnEIGa23d7v9/unT5913Wq9XmvRPwY57PdN2zZN23ZtSimEQLfjEJyBqmW2IYJ1nyMRAgIIzGN+i2kAgKkqzLLVlXMpeqvAalE+6oZh1rUq8IelPICab4FSir8UMk7jOI7j1JRcomtRZZSad8HeX8BAuE6EejULQ1WncTyWDTg2rBE2AWBe2LzLh1vu6bHCiYi9cSLN6Z61GYCFEH1VYdM0IjIOI03bwJKzqcYQCAHUzC4vL77+6qvnz54J8fbNm7brmtSCPNusP//81bv37w+HPgYJIUQRCT6eccMAYFpKIUAUVYwjKZQYJMbYxtiG0EhIlUD15b90Os3KNI7jMEzjaGbvP7zPJW/W691+N42TTROBlFLbNACnacKpwT4G50jt7kE4O/KUh2EIEiRI3/dNCilKt+6GvQ1DL6T4RqhBmia1bffq5Yu/+vrrJ1dXm/WmaZrbm1uYffXlVzc3t2/evgFppk1KMcYwBVVVEagCWnLJOROgiBmEE8XfKhARCTH50k4KSY+nVhTh8+uuOqCE6EYNzIp6IvmPrv4DMFgueZwmfxM7xhAk0F8GMtNScs6ABZGmSTCF5iBhvV4/eXK1vb9/++bNZr1p2s5UAYTqp9TxUxAJIUgIZHAytZTD/hBCENc9CSFkEe+W3ZJdmSUEiTEFd7digNNKGKCleCvv9nMC9DaPAFCbPB7bOz8xAGauBSr0DAghpJRSSk1KTUpt06QUY31OKxggIgTNqu8E0MfJrHUQQEZWb06ci+aYk6hG64ZbR/HzgY6I79LkXXcpqgv2C9BQrcvb3ZQiDCGGNqUmNQCmKTeBzWrt2HZN670owLP1+sVnn51tzoLIOIzTlMldUZ3G6fLi8vb2LobQdavVqmvaNvSDGZbB/KwSMMCQrRIfRGIIU5BBFkt2igEKYFa0kCjZP5Ckqnp3ezcN433X7ff7kgvAcRzv7+9LLgbLUy6+ARMIwqXufzC4lL18Mwj9H7e73f5w2KxXJF2hS1GRyu0mJdKCIIaQYuya9vnTZ1999dWzZ59dPXmy6rpb3JZSzLSUUnIOMQYJXdO2MU0yKrIwZKG72epvFQCuFKRQfOMbby/cufe6vX66CpB0Eki3ZO+4Tt3DGRbFmNcd+REAnS0n4O3XYX8Yp0FVQ5SUYlUhMxExspQSJKSmbZvWNEPZNGm1Wl1eXKw35+vVWkQAmtk4jgC6tgshxBg3603btCn2lGBGNRuHgZQQotBHzTKfOGrVks0gIiGEmFJMKcQoZEgxpQaLcB3cSACcUFc5NSuTW5BnpXtjmG1M1ZkdY0iNf+Y2uPsQY5QQqnet5pFV/95s9BhOtW2vn5XnjkSSBtEMNodHihXVGmpestc23MULgqSalVzcSzwcDn3fT1PWuc1wMFDNrCi0xK7dbDYXF+c55xTTar1KKWkpahDpLs4v7q8/9CFs1quSh2G0IKFru1W3SinGEFNK2+3u9vbu9vY2Ns16sw5BUkwX5/H8/Hy9Xm+3uzx7DUvj5wMNEO6GkEGkDENvSkOAB//cqzQzeNCHQQKlejhW9LDdHbY7VL1nTM1uu9vdb9XUzE5k94BywGBHboM+bUuQiAGlQHPbNWZWin8S28wQgrRtK0hBLAjMNFBiCFeXV1998eXLV593q7UBbdt9+HD9088/39/fGxBj6tp21bZNTFFkAhlEIGP2ySfTUlQ1FwW8OSuuX2XKeNT+VkteTk6QnxfSVEs2g1klc354znMCS4EzSAwxxmmcDBpj3GzW2qZhHMapWWuTUqJlLSWl1EZp25YWYerRrM3m7Je/+uWTp8+KwsA6SCmlW3Ukm5SePnny4cP1brczsKhpzv32Hojd2Vnx7XKA2a4c6MZsVncviSlJCCIB5Hq9vry8FBEJIaYooa7KMpdvfd6TYAYSAAGrd825pbUXN/OBr5AiqW3bruvcM3W7J8ll53otOk7T/nAYx1FCMENWK7lMueTswR0hBYCrXi5ZtYi7GiJCSkoyf39dVc1tomgpJedpHMZxmqY8lVLK/HlOEVmt1us1pU5NVzDDOOWiamZt23SrdrVaFY+lVfdfGaKp7ne7Uor3mIFNIFITmpTKNF2cnV+cn9/e3mkpbdM8ffrUCAMuzi9K0bv7rStL1RYDANYFoU4WakSR4js4mBEIBgGCG6+LYHbKYs55HIfdfg9DCNFtDEvz6/1aOIXoggfpuMFjIrN84PgZDCQRYxiGoT/szCyrxvn749M0maFpmjYKoVqmceizTVrKerV6cnUVQ/j555//9KcfVut127YXF+fr1erePyfSdatu1aYUJYhX7296pialRLKYhaIufbpjAGjTGAgIKHQmzYY385S15XYCsfQ6MHN9ni3CSf3IkpcCF3DXbBzHnCczFZFSNE+5lKyqeZrylFU1xRijmFnJ2TTHFA77/e3NTYpJi/7mt78NMZFiZl3brrrVOI0ARKRJKaWUs6oVMwCB0b8pa7XtdTt0v9LJBzwICFjO2aapmJnaYb/fbu99i5vUpJhSjDHNxxSTBKGzQg11fckxHGaLPs76IP4NNhLwtyHUny2lTNPUD0Nqm+gsVdVxHHfbbd/3BEDxmWRTK1rMCNpJXSg5q6oFM5EA+nwOADMrpQbTSik+3HIVn8bJd9wmkJqm67q265qUYkwhRNdeAAaoYhxHVQOZUkxNTCkN4zBNw+w7qBBmejjszTTGMHuYMQgJqupms2ma5ueffpIQzjZnT58+Owz9+w8fYoxNSg90BHAxidB9rbAEKSg+MBQGSiACEAyBcD0jUB+JKfWHg3nQEAje6hHwJtVAMsXUNO1qtWrbrm3bEIJQ4EPumbkg62OEYXETjECI4XDYE1Zy3cs2xRQklFxMLUpsm0ag08hB+1xKmUpgSDEN/fD6hx//8X/+49/87d9eXT0p53p+fr7d7tq2W3Wr9WrVtG2INZzO+QsyqWkoYnUnTcLdS9LZAsoynnRFJKurWFsuCmruuU+eLdNtuRILODOX9g54UMwCMcYY4zgO4ziO41BKUS25FFWDwdUMZk1smiZAdZqmPI0hSN8f9rtdKdP9/d2//PP/2pxdPHnyJKX2/PysH/q7+/sYY9s2bds0qSk6GEBAUkpNk5omLjudVfV3Ac1/BoPbueVSkEvWkqcxTyNdl+rni6MHybuu67pVSlHoAzQQAEkR1xgCVv0V1rAzKSY+6AVRcsmVbBi83jl2TaJoGfrh7u5ut9s17SrEkCT5pIKRZlWQXi+A0LUUqqoP6EsuQx7yVD+iPoxDnibfuEN8qqPrzi/Ok9tljHICJAFWyZFmZoq2a33ALkFA2LwbppaSy1RKprQEpmmMIqFJhJlqydPhMKxWXQxx1a0O+8M//MM/fP7q87/5m7999fLl23fvfv/7399tt/v94UGXMAPrJxdijDFE30WE4pEeN2YGMJLuYKMK0iDuFMQQYghB8jiV6WE4kGIhsG27rru8vDo7P1+vVjlnVQOh3qp7vM7MvGUxoLZrBgOIGMM0pZiiaqlqdKpPiiAhSgzkfrf1UfRut7v+cDOM048/vP7xhx9//eu/Wa83Zri6fDL0o5p23Wq92XRtm2ISYc7FYDH5nmlNTBEVKxhPTFbEYwfVsxKB66CLcFZ0z1o9Zy5xlpr15ITegXtihUeXgLt+KaWUBgnSHw5FcykFgIRQcin1Y3TNqknjsJ/Gqe/3IpimTOL25vZ+t/3tb37z5ddfn5+fPX36tGvbmKIEGadhGJ+8ffu+aW/7+RM5rrRd19WJQeczQRLOAhFShFKdZzIXzf5m1jh5dD2Xkqep73uYgvRplPV63bZtjCnFFH1COEYCvnRh4cli5gbQ156YRy8m7yklSEqpaVs3qOgqrUXHadztdjc3Nwy71WqTmhaUnHPJBRTXFi8awJQn1VJyHqdp8o9DTjlPE0l3wFKKTZM2m413WalJKabFpazsmGU5KzBr6waK+Eg+gVa0jNMEGoU6qWoxUxFKYICEtrECzeM0DeM4ijBP0/t37+5ub1NKV5eXX3/99TfffCMkYF3b3m/vVYsIReSBctapP5m75cDqXde7JOitIuG9D8ylbADMNIawWa9DkLu7u/391hnlENv2/OKi7VZdt2rahpRcNGud9TPAapDPzJzPngiSIdSd6IOEEEIM0ZIKZRrdy2m6JCbBKFrMSGGIIWWU4TC+e/vu9Y+vzy8unz9//t//+9+9fPFi1XaH/eHy4jLncnN7E0JIMcVlVhZFtQ7kScgcop8JJ8lqkDPhgJkpyFnjH4HTAcKcnOUGZx0AvMzjLSO4OCkzuOBJSgwppXEczADfGScGM4UhSGibtmniOOynaez7PsbQH/a77faw36UYv//+22+/+/7LL786HAbV0iTvjdsmpRiDK4CIiBgpKaYmNS6MpWEFAJ5iayQ88B0T1RpVzdmtuOSi7ji4y6CqvqGliMQYY0gpxlSd8Mad7xgCSSNRjRms5kD1CNNwWK2a27vbugEQ3GOav7pqgKmVorvdfn8Yzi4uV6t1Ss0w5mnKlCXMA4CADcMwjEPJeZpq82NFVbVt265ru1XXNKlpmlXXSQhuqDNATQHWFS1eu2HuhFzsFAYBGcS8sy0KUCQoJwOs7koXxEoM0cT6PDouZ2ebUvK7d+/ev3//6tWrX//61//tb/72m2+++eMPfxqnabVZ81rMqtGKiLt/rKGZAAol+qwDpYbQYc7ZelHNrSqfa7QVLSGElNL5xQUZcj4G/wCuN+vPPnsZYyRFJHi75zEFAzywYXB9riridiGUEH0KF/5sjA1BEY5THsep5MImhZAgkxlUEYQppilM4zi+ffvu9evXF5dX337z7S9/+auz8/NpygDW63XOebu9F84tmohIICcAqmonwcsjuLBoMJiaUelhP5Czcs+mTld3io8bCNTRIKr5+lUl9qFtLCkPwEOrMcbFcsxf1SJJMSuAf1otxSgwlKI5T9M09X1/v73v+8PLzz//H//j//n6m28267N/+qd/7vteVV2RvOEmIWQI4q1OiCGl6O2tqiuoAceOhzRdxpwUCZJCAKVtXZ+rXqvqlPPQ94e+7w+HQ99bKe6kiLcAMaamaVJKTdM0DUlS5spA712ClDLlcRz6/Wrd7Hb7YRy9dXDMojOwa1dPnz779ptv//TD63/9t99v77f73aGY5VymrGawZRIchK/ggJEIITRNk2JKTWpSE30VWYyuikVLWXYogav/IjMX9lImUFUFMBhV81TM32Zg23ZmCpq1sU2RZNe1Mcr+bttGSZFnZxtBMdNh6Js2XVyem+l6vfr7v//7pm1vbm/2u/3+cNjv930/5Jzn3lhwElQgpdRhOGIMIIkqMwNRlxkbaD5rMtNCgC5ZgCWXzWbTNC2OGRBiCCH6uc5LygyotaMa80m6A82Qi/vSKKpE6Lr1OPRmCiPd4TcQEmOzWrVBoGVs204NAMdx2m63XdddXV01bRtj2tk+iBz2+/u7O6EECTDTUsxMRESCmQYRcWfYzC0OIMl6QW9Z3KOpTg0gLkyiipUgKKzeNWva8aT2cq7yIB63HXNxQNVop6iU4k1p07ZIQQQ550N/aISAkZJzDhQKV6uOPE8pitC05JKbJj199nXbtsMwtF273+/vd/vddpvztFqtgoiqcl6iq1bjJqpZVVUVEArhvKiEH306rct1MHeohPtwIu5MpRjX63UpNV5FcL8/9H1fipZSpt1uZwaAUl1BL2HhhsBClBgkBJ6fX7x49bLrWgkBpDfEdT45prRery+vrp48efrkya1B1GyaMikiVvTUkh0MPlSKMTWxcTtOCSRhIExVTVHUReYGAcD5UBXXV+cD87BzBgIwaimmIt7+1nCAhDrTQ5KEahEJTZNS4NAHM3W3P4RwOBwOh/7Zs+f9MNzfb+9328PhMIzjOI1TziEEVedhyUXNjOLuawoxkaEohMAxUFmFc8SxMvqYZqgtVoxNTG2VeI33oOrjXJwBYDVaA+HhjZPS/J4R/jIhQIMBEkOaOAGIIcGoaqrw4BIhpmUcplwKzEjZ7/Zv37578+ZNTM16s2nbrj/0/eFwf3d3e3PTD8M0TRQxs7nTMfElkCIuNHobBwLU2ZSB2ZhBwg2VdOQ5c6maoufnyZ3TI8wqX9w+F5hv18uqP/42GAwwCQKGkkc1ExFvEs3cWYtBQkqplKSapzyN43h7c3N9fR1SGvNUco3vjMNw6A/euJsZCFVVUwNCCKbW9z0p3spXdJwFIlJbKCewyp6qRkLc4gFQSJAChpMJGhIAm6YdhiHnMvnETikeLq3PnfLAAPx/tL1ZsyVHcib2eayZeda71K17a0MB3UCjuwEuTbLZTYp6kJkkm98qk+lhRiaa+CRxZkzkcGbYIrsbaKCwVKH2utvZcosI14NHnnNuAb1IZvK6lSczMjLS/XP3CI/IyMhkjPXeFt4eHh0eHx+XVWWsze21UnnES3zSGDubzR8+fDfE1IfQh1x44hxEAWAwWO7IIAkRSBEBxOAo3pGiGGFW76BLUUfeCptiqLLZ2jGBKEHJKoKcUgqBu74PISjEREaG31kZrVVZFGXpUuhSjF3XMTjF2HfdYrl49eqlPMpqu361XjdtE4L0WfqUUicdg77r+44ZICq08YX3riCl+r6X5RnABCKwAilZTSCnIAu1I0YCA9Il3EsFZXGJBRIGYefG+cRQ2s0y3z4EAE6yjpcFp77v2ZuUImLsQxf7br1apNhL3b9YLp4+/eZXv/rlxeXlfH5weHjIzJeXF1eXl5eXF8vVOoTeGA1CSkkuIcoL3wvyWiktT5KYOMnL2n8on7+LssH+PpI8Q2beMxsAiVPbtkRUVVXqWxkKdc6WpW/rlVIEcNPUm826rjcvXj5P4OvF9Xgydc7XddN3Xej7rm3retM0bYxBATKbGaSsdSGGq+ur8XhaFqU2NoQQQiSSlljRYNV/GIm/7w6UUpPJZDqdcUpilBIZMfNQsvzxUMmxddo5WxTu5OT2weHBaDz23suoWfZkpaA1GWOl5y/sEZFSOvvYLrpmZtEmM5jkTMoTxpHrb5CS+SkM5i0rOx0MRiy0v789YAApSXVHUikAWpFipeXxrlLG6KLwfeh51Wnipm42m41S1BSurjcpxaLwt24dxZiWq/WmXndtu1otN/Wm7zvvixuGQeS8J602mzpGds57X0I6g5lkmICG8QLas0XK/38XEYg5uzFouDHLKdkyBifZo91dtsdMRODY992ocNYocAIngInASH3fgZPSqizLsixn81lRFEXhR1UplV2S5zchNE0NgtaKOck4q7hp0zSTiRuNRkrrEGPbdVpbUgq0deP/34mxJzhBGuLtvpzSWo8n4xD7169fHc4m1ppeKQYzJ4CZE6eklUoxrjdrIhqPR0dHh6PxhJmuLq8Xi+vLy4vlYtG1rVbimcM9GZAn2MbFGDd1bXTQxlprIY9XblTWAG566m8hEteRQYk8Q07Jw6rk8tdqdhXlNlrJ7pOs1c7ZwltrrRpiPWEmgQ0RCFAaxhjnnNY6RWnJpAApjTgXDDGurdQyGgDsAi+xzp2xyp0YuQDa2fG2tJuoSC0AAAR52Y00MUFmDA5/ihQRMcApUQK48P7o8NBYfXA4Pz07PTk5OTg8GI1GKTEp1fVdH2MbusVykVLSWmnpvmiltWaQ0ppAMcUQo2UorTkx8pvISngByXbr1Vl5BJH4d5F0KAQmzi8JbXEYlLfb/i7SmmLgtqnVbOycTSlSiprYe1c4rSg5q73zRVlOJpP5wcHp7ZPDg4PZbEpE1hrmtKk3TVN3XduH0HRtjFEaZK0NiELoAbbWaGO4Ey8alPd72ePcpuwlAGDRFd66/qbify+xXDEUQYqsNimlut7QfKKVBpg5KUWj8ajwJh3OiFBW5XQ+Pzs7PT4+ms1mZVmFEJ01ztnCe+dkolgXQ+DESimjdQKllIwh73zfhxRTzwFKi5Hss/R7iRnDmB8AgEjac3EWgng2tJzCYEgMFujEfRIz0vaZlda53pGmUvpFBgABSkEpZY0lUl3XJ+aYOMq8qijzcPdYEX6ImDmlFFNgzn6+r0RhJu8zwLkRx7eCyX2FSuVBillsn1gRJQKGllkRKYIiiiGsVsuj+bT0ZbNZPXjw4NbJsbX65PbJu++9d3R45LxvmpaUms1nxye3Hmzq1+evvffPnj9vu67wMkHDM1RkjiGyoaIovS+0MX3XQ+qKzGuGfWAbb/FPef/bZ7cpOxIFyQ5AQwG5mG0tOdB2nwEQsTE69u1yeX337FZV+s3yikOnrZrPJwfzaVm4+XRaVqVSaj6fz+YHVVVZ54yx4/GYSNVNfXAwPziYHbyYP3vx4sk3T0LfxRgUkXOWSNWxiTH2fS9D/M45htuoMFkAACAASURBVHSv3qasorwvlIOLDMgADXM+YDBt25Mbmv+txDctZEsppTaGcemrqjLGIHQh9CnFoihOT46PDmeHh7P5fDaeTkbjsS8KpXVKrLQmUicnJ7PZ7O7du1989dUXX3z56Isv16uVBOc6mZi460KU6QHaJEaMHEIIIZhhNsS29WRgax4SdmX+xJJpL3xjsIwg5Q61IiRSKnu17HDOzYzsw7LhSMQqIBpKYpS5lczw5NmaBBCRsdYY6ZfTYFiZsZtVkdxJSoEixcgzTvKpQUdirkNzlHMw52xCDEjkOZwGgznmp1QERGIGKzAYiZPRuiqrvut94e+cnf3wB++f3T7pm/pwPj08PjTOlFUxHo+tdSlx3wdjrXNeaa0nxjpb101ZVi9evfrmm6dir0qRs0Xb9UzEjLIqrXXL5UorbY0V1dA+y8ImIbMIQu4BC79AHt2FCA5Inkw7F5ZEgXmPmPd9+eY5MMDGKHbaO7PZLC8vyWqcnR4/uHv23sP7J8dH08moLL21FoxqVDlfNE2bwFqTNuSdG41LZ+1sPr1//97jJ0/Kwr9+/Wq1XMqiOSB5vZmYOcpq2FqnJCPLopIsZtaW7IujZ8YJEIO82Y/a5s+GuEvabvcSeYcMI8OWf4e8zEgpxhj6ru/aSVU8fOedj3/84cP790aVn06q8bj0zrnCW+/ark+JjdOkNBjT6QSYgujg8PDs7M7p2dl48i+ffvrZN0+fbTbrro+j0aQsCuvcpm6ZUVajrutD3+dby/1zjUWQZpdIwOHMOREIPAQkkiLoiX8wM0FW2JLLhhJERGIGy8N9TnKZzitMOOftEJ1Ca620Mlu4aJgQR5T7IkQg2o7gqn2sh5qAQSAiYp3dGgTOuhImWLLnO7xNg8dT3gGA/GaSHCsCwMyJlCyFAaW1tZaA8Xj0vXce/PDDHzy4d7ewZjwqq3FlrO5Ct9nUMtObORmtrbUhRmdtNaoYKKvKFf7xkydu+ICb1soYk0DM7Jwz1qWUVHZI2tZiWwGYxXclTcmORM4AYdAoeDBAyr4+XJ8TIQa7jUcFDDAo+wDR1rFTBhxMYKOpKG1dr9Y2Pbx/9913H/zog+/fvnV4++T49smtvOAXs1IqhHi9uIwpeV+EYL13o6p0zh4czpVSh4cHztk3b16v16vNZt31IYYglgEgxgBSpORFdOE57zEIYmpgBQJY7HXLuGS6KUi+VHS9nVCQG/vtLQQGznMVJWFnEdnw8iERhdA3DZinB/P5wwf3fvjhB+/cuzsel94ZrRH6ToBbrVYhxtFo7LySuRjGWOv8/QcP3nn4zv0H94uyAqnFanW9WNSbzWw2d95rbWLcMMg5x0DiYYUrICsaonMRc3DpwSsBMEiMm4b8+VqxCOYEEO/8jQbEJA8G4YW0UhJLWmeVVkRQirRRWiuTElSeAQqttcqdDRkvGGoEMbgd2Lno7T2ED5J7E4hydZJS4CSzDfdL2FOaHG6ZByQjgxMAZmQ3YgBKK2eK0HeXFxfvfPzjj3704Y8+eP/J118+e/L4xz/8QeimdbPRRrV9u1yt16tV1/dKmcOjI2Otta4oC18USqnxeHzv/oMYU9eHummePX/x5vy8LEfOl8a59XqjTeeLQiutSMlzTABbZG/QrlmW7c0MWwXL2aEklr/EDDAzkSCZRUUGVsrdBnEJxAATh6Zdc+wUJefsnTun/+bf/A/zyajdLP/lX39xcXZ6ePCz0OeB+bZpFsvV42+eGmdPbt0mgnOu7SwzK1KFd6e3bxEhxjiZTqqy+uzzz88vrkpfFr6w1mzqJgHGOICG0QEMYpII8hYie3IQpHXKuTJSu5wCR/7Z+jmAtwtlZEQAeaycMVEEY0xoN+vQ3jn7k48++vH333v4xWeffvP1lz/9iz+bzcbWKObYhVi3zVdffbVaryeT6dnZnVu3TkajEZHKneqqOr19++c/+8ujo+PJdPpP//RfPv30N33XrddrIuOcT4zVeg0io6Wd2wnOAISbXW944D5nY5YsvKvnINVX1uzvI2Kpv3bl5nSACESKlCJlUgQrgEFKyasDEpXvkXjyW2BvVZCPIoOHOQ9STTEPFUEWMJv1jVIgZ3YPXZnBnE1cFEcEhcQMTpxinB7O753dPjm51TT1f/qnf1xeXUxGZejfTSnG0DPUcrl8+uzZs2fP6rqZTCaJU1mWI2OkeOed836u9fvf//71YmmM/S//9Re//PUnIQTnMR6NQ0wxJqVk0SZBT2pToT8I/QGqnfnehGtQxyDnkChuvT0GCINfMGSBMYSUYop9Qji7ff/hO/dj7B8//ur1i6fO6FvHB7I4Tt/3McbrxfWz588fPfq8KCsCjceT6USediQorTQ5Z8eT8Y9//KOyLEfjkfPu0998XjctkFJKAGSclUGASrzt8QywfCeJBROykEwZj29nH0DYGmlOZgJtUwn5erGKnIcAZo5I09n09NbRvfv3mNMv/vmfz1+9mE/HUo9xJOfter36+smTR48e1XV9dHSrqqr5fK5oTEQhJiTWSnnvb5/cNtY5X1TlyFj31deP27av67oaT5XSddOkxAxoiRLz/yxmVhvlE0yUm1kgR1Qsbrx3zR4eOadky7Qt623D2ZIYJQEggMjEGI3RRJA5YUrmCYhDYdiDHLxdFoDhfogxykxAgMSTb+Si7av5BAB77BERmACScANIe74s7RUY0r7HFOKds9P/9m/+uq3Xv/qXX/ztv/u3P/njj//qZ3/pnHHWGKOV1U3bPHv29F//9V8Xi+Xp6VlZVYdHR77wIXQgWZPFKK1u3Tr++KMfv/PwXeeK1+cXL1+9SZwm00ldt23XhT5Ag8x22oPUNVu5bkp3kzirE3uN7P55cFbQ9iwDYPlLIu6QVQqh7flEiEoBimPfv/few4cPH/ziF//10W8+uXzz+n/87/+76XTCnGLsmaNzpu/b8/Pzb548rkbjyXhy9+wumAkcY5QnDn3fh767d+/u8fHx2d07AMXEv/7k0z50UGSMUdpqY2Oe45PAW/v5XQgAzFndWRIaOlD7qPwuumnA29IYEOdgUGQOfXv3g3d/9hd/duf2rS9+8+n/8j//T3/80Y/+8s9/ohSFEFLksipWy+VvPv306yffpMRa281603ddiokUZMCWCSlGpdTJrZMHDx5OJlPSZlM3T755vtls5gdHvixDTE3bhRgg3U9kg2UAoKE9Fl8Zml/hextnD1goYK9hwH7mbO6Zduj9XiKCScwx5bFrecScUkqJ8zO57FPibN8ulzAoDSBF2wG9naYZohU5zOk7bkEMylsGiDnfS4ydM0JgpWg6Hj98cOe9dx8qRX//f/4fv/n1L41WBE6xZ04ynbFe1cbo9957z1rbh3D37r1bJyfT6WQ2nxljUkrG2vWmfvnq1T/8wz++en3+8R//yV/9/OdFNfp3/+v/9urNxXK5lMEFY4yS75vtZMkSZRFAuKGQ30/fgk/8ebfLENWLOUg6hiwMMCgpxBT6s9NbP/mTj++cnlycv/7001+fv3xhFNbrddc21piaOYZgjD46PPzBB+97550v7ty5e3R06JxLKSZZhCzFvmuXy2XdNM7709PbH3/80fVi8fzly4vLq67rypEDUDeNUoZJi5qGZlnoDwVgK5HYAxG+81qxJR6Me4vY0OiRwCGVgbV2Mh89fPjwwYMH/9d/+PvPP/mV0doYrbUmgrVGK6QYZ7PZxx9/fPfefVL61vGto+Pj8WislNLayDJzTdstrhfL1do49/Dd77333nt/0/ZKmX/+xb98+ptHTdts6qbpemOd8z6GuG++e/Qd4mQaXJSyFveyZh/+XVdLRbB1RZUncRmWHnBKSilFykD6tAApZZ0xRmZ9ERHS8Fw5R/XiYDfuwoDUTEQgIjXkyXzJjihvp5X8K3myboZzxMyJOaXISERyYULqlHez+eSjj340HVePn3z12WefXly8eXD3zHlTt5vr68vppByXvumT9/7k9klRFkTq1q0T5733hTxfSSnWm83LFy9++atff/bZZ5tN8/4HP3jw4P50fvDoi6/a//tfr6+uR6OJ8wVLaMeCtViw8Cy/WwFz6v7hXtJ361zUKa67FT8jzWC5d44th0fP21iTuLDm7PTWT//iJ19/9cVnn31ydXlBRKOqWlwvzs8v6rpBIqVMiqiq0R1fjkZTbcxkPJ2MJ9YYpRQZw5zWq9X5+ZsXz59GxuHR0bvvfu/evbvvv//+rz75tOvD1fXSGJtA3MfEGIZysF8pD14tWOX3TLZoYA8QwvbC3f422IBUWAwGZZMV3UtegBmkSJFKYDAzFHMqfPn99987PDxYLK4fPXr06tWr6WyqlGq7drOpR1XpvUvMVVU9uP/g+PiEiEbjiXPOWKu1ttYQqeVy+eb8/PmLl3XTVqPJ8fFJWRTvPnxnUzd10z17/mqxXNdtxyCd3xvc0mAVDAaBsNUUKDetOcwetnJNVqQAxQAGbIEchGdigHL9NWBFsvqPNdZoIkj3lQhKk9FKS+9WKfLeO++UIkU6RE5d4MTgbfQu/GVwByJJz6ssZzkgtcNWeUJSDg/Ku0m75JS4aVtS7KwBOMYQ+no6doeH84//6Eeff/rJ3/3d37Zd/eCde3/y0Y9DW19fX371+KuDw+np3TMmdKFnprKstNbWOm2M1ir0PYj6vnv69Nmvfv3JP/zjf2rbzhfl1199NZ3OPvjg/b/86U+vrhd//+//43g8lckDMcQoj9GZBGhA6se8fwMMUUDezzk4Q5ZFZTkHYL/yEqn3z0FsQuxasmQdEEMZOprP75ye3Dk7+d//9t/+x//w77/37sPj+VlV+PPz8y+/+Or5hy+ODw/LotpsNtaaUTmazw+JFDO00kRUFgWApqlfvHzxxaNHj778Ekrdq+8fHR37wt+9d/ePPv54UzfLdW2thTLMKsQUk8iYZQdymH3TmbcCDIoX9wQ4G3o2yCHTkIuZZTU1zsPu+ZMJeziRssbYGFNKCYQYU1WNfv7zn19dPP+7v/u7xeJ6NpvdPbvNjPM3569fvxmPytGoZI5GG1s5Y2wIMYQAQCltJtp7H1N6/PjxZ59/9vjJN5PJ7PjWyddfjarRGEqfnZ6enp6WZblc1wCstX3fd23n3G5+FURxJI3ZTnpAsEJ2423ut4izBSHbVU6UXxrEJzARkdJErLVyzsryJsMYOhOglDKkB1sjyFqhMSVjjLNGKdN1Qb5ix/IKKkhaXQAgFlZzaYytz4sFMgOUbVI2PORmDE1xZjv/yF5KSDERyzdhE6eUYpwfzG7dOry+vvzm6eOnT58czKaz2URp+MIpTa9fv3z8+Ctf+HI0UtqC4H3hvHfOMYM5tV27Xq0uLi4ePfri6TffGK2blEIflCLB4uz09OzsTllWfR+apvG+ZEZMgbOxImMOAjA0GTSk8pCec2yrsK1gww4LcBA1it4Y+XLOe0TIb1Tw4M8MAohhlf7g+9+7c3by9Onjy4s3bbOJfQ+wVtpqu1ysfvkvv7p/7+7Jycl0NlFKhRCBXmmtlCatOKX1en15cfH8xfPPPv/sxatXV9cLEBVF2fddvdkQ4eG7D588ff78xeuuD1EW82WQqDJzQZS9ev9vnzIaLN0lOSARV8weyEAQiyPncdbs1XL1tjgARJGCSgkpcUqpqqr5/GAymTx5/JtHXzyqnB1NZqNqRBzatvnii0cp9W3blKUfjyfj8SSlJKO85Wjknd9s6levXr9+8+YXv/jFi5cvQ4xd18eURuNJYhRllVIqvD88PLxarDZ1Q0SUHyftOMpSi2i/gzg3y8C2RgMA3hvpvSkr8q0IYKTExhhrDVGSuFoG3ayRFTZN4pRiNErWRQVA2LbJzEzE1uiUOMaUImNomHfC5IQMPYOzWTLJ3iDgvvwMbDOT+PM+MUuGxJzAzCkxEnNkjsdHB7duHb988eL5s2ebzebOya2qLMFstAL48vLi8eOvodS9e/dH44nMZSXyWquu65umbpr29evX33zzzaNHj66uF0brFGOg3lnXdd311fVkMrl9cvvW8XHXx7pujPFbtwJkZ7v9brohygDOttkZzufDDGbGDFl0AGBx40GXnPMNpLV6550HB/Pxp5/8+vLykoiY80v2RVk2TfPpp592bRtitM5qpRLnQT6ttbVdDGm9WX/9+Osvv/zis88/r5sGpCLz/OBwtV69ev1quaqPj49PTm6NJ5Pzy+s+stZWqhFhfmDzd4LBQ123BwozAyTWxsAOUmZRuTzpGHK+TSGAkd247/uqOjo8PNBKLReLly+ef//hw9Fo5AunWCdOT58+BWIM7eHBQYpJWtSYWBvDKbVt+/rV62fPnj/55slvPv3Npq6ns9lque66cHBwZIyLiTfrWmt9++Tk6fOXAIiI5EWErSeytFMZE3oLEvEF+nZ0nXew1w58m7b4AZArjNaklLXGWktEYHFva4xJKcUYjSJAxpUZZVFMxpPJZHJxcbmpW5JlrllyKGy9+TuIvxN9Zr5Zjcl9ZAsgA7B3LD8s9QIjydo4zOno6Oj2ya3ffPLL9Xp9dHhQFN47Ox6N1svrttkYrZ4/f1G33Wq1mh8cVtVoMpuNxpOiKK6ur6+uLutNfX5+/uLli9ev36xXmxhT38fRZErA65evXrx8o60/Ojr84IMffPPs+eXl4vz8wnvvnB+4BHiIDLcpe8TMhNx4bwXey7SFZ5D1Jlz7Z3c7NJzY7gCKUFVl09T/+T//06uXLzSp8Wg8nU7G43HftH3XX1xcjqqKmd+8fj2fz6ezWTWqAOq7brlcXV1dnV+cv3r9+vLyomnbxMyUmrY9vzj/6quvPvvsUd3273/woTGuKqvzi2tFqiyrtutDlE7Y/t/vImaGBBM7SYnzLAGpy/czD4mS+wY2AACCTA1XSqUUu66bTidHx0dN2yxXy7Zty6oYT0bWWqedQgpdc3l5GUN3fXV5dXn15s0b7zy0DjFt6nq1XF9eXm02m01dh9BzSqvlcrNpmqY7Pz9PTP56WbddSnz33r1PfvM5GIC8tKwkQsp6ZhJe5ScfZIYJyH5LLH75bfpOpwEA8X0QCKS0IlKJ2YCMsVVVKa1loEtrLQ+bUkr5rUZOYMANbXJKKaXovGVGikh5LqaAfJMnBnZm9tuIIdraakryy7UAcsTOAIYmPN+RwfIc1TlrjLm4OA99d3x0NJ/PJpNJVZWGUudtSoE5La6vY4iXl1ez+dyfv7HOK61Xy+VyudzU9Wq1Wq1WfdcTIaWktTJaxxDWq3Ub0/zwuCzLo6OjV6/PAbLWSA088DbYbvZnSfkttIVj0N9W0J0N5IQtGtvSBITd2UxbYwFrRTH0lxfnxpjJaDSdTMqy9M5pkDOWU+q6/uLiYrVaLRaLoixlFDPFtKk3m/VmtV5tNhtO7L2vm6bebPoYl4vlkydPvvjyy5To3v2HRpuyrFLirg/G9ikxdlHhltXfioBwOvjrAIL4q5AcDrmH6Oy3uDEARuSUUrLWxZS6vhuNqul0slwu+r6rRlVVVUVROGedJk3srUqxv7666ttmcX394sXzsqyUsTHxelNvNrW8GBxilGCg3tSbTR0TL68X602TmIpqbH15cnLivWeAiAClJIAYWNzX2dtYiCiDGzOGZpBksAk5YZjx+xax9K8ZIFhjiSj0PaCVotGokrmJKT9hAgAi5LU1GSCw99Y7Q8RKwVo9qooQue9C1wVmWbmCcbMLz8LzTjoAGNomljornxPZsj4BEEDD9zj2MGEGIiGRfLoYTIhAInAMcblYcuLDw8Ojg4PpdFp4PxtV4LTZrNqmadr21atX14vFarNhRkipD30Ise/7uq5jjASUZem9BwhQxpiua0EhJALDaFMUhbAznU5TSqGPAqcMA7yFAGEAbsv8jkSiLSzbU3mHMg47e96jraPL37BPcqQyD6yPDo4P5vPZ7NC7UinjvbEjXXq/Xq3Wm3WI3WJ52bZd27ZKkbVWKaWUIiJfWF86AG3XrDcrbWy9WT97+vTF8+dKu7ZplFK+8CmlpqkTwzivtN1yB+xpTBJybzifkmZrsFGxAAZj58m8TcrXfBuHvTuAISOfwRjFKYa+KQs3KovV8hopHR3MR1VZeO+902CrUfrRanm9Xi76vr24vAwheue1daS0LCxhjE2JQwgAc0pt23RdC2C1Wl6v1svV5uF73799NprO58ZaFr8iJfzvscdgbONgvsHzILt0kzg3yzS0VDnn0Krna99yLQIBRuuYYte1RFYpNRqNvLNEFEKIIbA8hVLKZDgTtKLDg/k7D+7/+Ecf/uIX//L02fOLizdKGSLV95GglNJt24FhrQVhsMR8V2ZxVRK+hukdewMZokfkg9z1Yhr0LSIxAOaQYqcUpwhCSjFwCqGX11zKNOqrwhGpvutXy5WbTYrCK4Kz1vvCFyVIPhMHItLaECmjtXcuyvvcKXVtu9nUgCJl2q5bLtdXy3VRTeq6ubq8qjd1DFERMQhIzLkWJWAXYGddDDVqNkrJlRHINKgmFzGkZ1AEuCFl2DIxExicwEwpgyt3DdFqpcpydnZ6bzadHB0cTsdjTjGFMB6PNaHvWqXJkgZYa/jCWEeE/KpN5gQRIChFxIpQlYXWenF93XddUTmlVN/3TdP4wnchMoFTiogAkSgeABERibzyb6vFDA8AELNoFHkzNL6EHNsJCIIeD5stJjdAYdYKRiEhxq5dLa/X6+Vk5EdVWRbFfDabzabeKOJoNbx3bWOts947IiXTswAFUtaJ5evQ9w04pZhNkLnv++vF9avX58vV5uF732NOV5eXy+Wy67rZ3HUhv29DBOSJLoNGGWAGUSQiAjHxdofzoL+IlIb2aYCJGNLg71E2JzAzEVIKzJw4HB5MZ9OJd7I6LYETEVlZH5SU4WxLTISy8Hfvnv3kJ39yvbheLBcvXrwk0sbIcrkqhNB3DYOUYiJiIMXtpGQShYgqpczEieWhAkt0zsxIEBsGONsB5R0MwjJz4BQYDCZGAgdOsWnrpmlHo7Hi5JSajidV4aSiIJA1VhEZ44x1IaUEBqAAUkrMQJGKMfZdV2/qEELbtNrYGEPTNC9fvXr24vX3vv8hGOv1OqUEoGnbLElGVSibKwMEtRdxUNaLSJZ/xVS31+7tb42WeWfEOQHgREjEDEQwIyXiJKUSI0berNeln905veesnYwmJye36vV6ubj2zhNS6DtrDIOIEkhbKMDIveVOKSX5BAAAglQZ3HfdZtOklIw2KaX1Zr1YLBSRdTZ/QyDuezKBaM9/QUS76o3kN5/hfQQkaX+f5IUZwYwhcIIhIQiDkO0FolAkQgLiZrPcrJant+6URWmNObl16+TWcVdvUuwUIhGcs6kspZdEpEDEUADlyoTk1ok5dZ0iQgh94r6p63qzadtmVFVgfvb8WVPXDIQYQkyJ0/AqMe8e4gzYAsItgRj5LMlcaLnhAI80EtiBCblmKGooTyyw7zprzaiqDg8Pjw4Px6Oq8M5oTURaKWuNlo+c5GsHsE5Obv3Vz39+eXl1eXn54sWLtmsSp7KoUkpt2/ahA6jXUEoBGFyGgK0nbxkAc5LBSOa9MFvUlq9SYOLszEIMMBDB8lEsBSRwBOJmtVytltPJ2CClvrt9ejou/WZxBVDf94pIK61kBeaYYorShDEgXGittVJgblSbUur6rrJOKV3X9fNnz7746gkRee+7trPWaq2vry698957AhhDSAQW3EFSxYhLE0jwI1FQtky54gblFIYABIEn/w2WDGZGAhKxLAaSpAIkMINTVC9ePHdG3T278/Lly9Vq9Ucff7xaLULfkVIEct6DI1MkSjLEAAzDpcwppRhTpPxcFuDEvKnrmJqujxJUd113dXV1/uZNAmmlmClETimKvrIfQNx4pzjxcsIQRuaMRKRIQNpl3hGL6YBF2UxyOGCJbFQMsLhdCkC0VjX1ar1ejEffLwpHhLv37pyd3Hr+7Jt2E2IIfQjWWWMmoe9AyhhblKW1jkFN07Ztx8wyfMDMXdcRUdM2IaSYotKqKPzx0VHdhUePPg+hd1avVivSWitFBJVtIrM61GaQ7rDoT0yCQCp7hWBFADHlmRcAiJQ03oO8+QwNZ5hTH7qyKk5Pb9+5c3b79q3ZbFaWhbVGxq6ddTLuNaz1AwBgQGllnf3BDz7o+q6sqq8fP3n98nXbtjElpeCcSYwQusEnIYogkGhjywqyWe6sWuyWpRkFcpvMikC8i7EZ4ITAqWdCSiBwSiGlcHF5cXH+5uhgHrv21fn54cHhbDJ6sl4556xRfdtqa4xz3HVQQUPn+xJiTJyS0jopxYB1Vsm7ftfXy9Xm1evzvg/37t3VWl1eX79+86quW4CN1gCHYQF6YY5A+3qThBspBGAIKbdQABAT3x4IEPKbEcrxHzMzS3SdIJ7M4tUMMDF3xG9evz4+nJ+dnV5eXoS+L8qCiFeTCadISN6UhASKQATFfHdmACl7cgx9CDHFyKRUCLFv+hA5Md259+D09LTt2qap+76DMjGmro9EhsgM0hLkL3dAhG8CEjgxJUj1Lkoe6mixgYFuILOr7sFyKnvINgsxgJSkpxZjCkTx8vL1i+dP2+5H49Ho9ult56zz7vj46OWLtu8a7ZzRjpBaAgNam7brmrYDiEgZo2MMpLSxhgjZk+tmtdkU1chYNz84ZKTz8zdffPF509RG6y4Gqao4RQDIOiZIFbYv0FZQ8QdSYiZya6K8oACBCPLeLAFEBDGJnE8prbXW2lpzfHR46+TWnTunt2/fms9n1agsCredH2Kt1TJtT4rYwqaItNb3H9w31o5Go6NPPvn880dvXr/p2h5ESukUU9u1KSUg9wWkxs+iDaNByPLsmlvx6rS1XpA82SJWeZ84a5z7rq+VZu8sgWPsu7bRikLfHx8dNetV3/fjyXg6nWpttDbGGAUySpFSxmhoCVQgt44xJnl6IZ5snEPPTQAAGT9JREFUHRPWm3XbdF2IfUh37t7//vsfeu9jCEbryWQ8hrwIBeGHsi0J4KIU7DswbStnAkCcHWdfvdsQARhUJkBwThdgsv2DmbD9+Lg4s7g3rFEh9onT0dFRWZbLvgfgnBuNRpvNGqDCWSKW9wtAeWnEDGzimGIMUWujQwjiyTFu6iYmaONu3759997duumMMbPZVBkXInd91NqTsllsKY8kUgWwq4wkepIUFtk4nxysVGiHjAidhQdoZ/X5vFg9xJNTIiLmNJ1Wzum2q7uuHU/G9+7d7UPXh+7o+PD8zcvEyXlvtZJ6iwGlTdt2IUSA8hJXKRqttTYE1HVNRMzcd/1isXjwzsN3331IhHqz7rp2PKqq0agLCfJCcBZsEEBYzUjsJGVAdDnIKnIokKwnLBeJ+4iwxCy1eV4eVJ4Vl1Vx5+z09PTk9unJwcFsOpsUhffeevFjY40xShORyj0ouSMDWqui8CmN+PaJtebu3bt/9qd/+uzZ88vLy9VqDRAYiZMwQwI9cnsjnOcTw66cFFvPtsrCMCFfqyRsA6T7wMyh6xrxZIBTDF3bTMbVyfHx2entrl6/OphrrRmsjGn7Xht9+/RsvVpcXl0Z76zJE2TF5JRKnBIpFVVMDGNd14VnT58xFIPWm+aP/+Qnf/M3/01kWtfNz372U+dLkO66TqrFQQxAlLKVjXY17c0UaZO3EAjxwA6ArX3vNtmT5ZAZuxGvJE1prhuYFcF7N51Ox5PJeDJp2uZ6sSi882VZNzVA1hdEDERGAKLoV27NzDrFaJIKUf5ImRBi1/Ug7Qt77979d9997+vHT9555/5kOrWuUNowdGIlncysTpCY4iBLFiE3y1mIwTchW9HJDkghuZoH2xEwt3APiIJIPlGWmJmIlaK+b6vKK4WD+axw+tWrl4rS/T/9U6VUTKmqRpxC2zZGVm5W2vlCDDalFEJUMWhjvPcgMtYppabTKZQioocPH/70pz+9ul7MZtOf/vmfM2nSxlgnC23La557Jr5nHIMsezt7uWhrMWIOAAtaELWn3BmF1soa67y31jhnJ5PxbDaZH8yqUVEWXiaHWGeNNdpopXMbLyETAwSSb0iS0co5OxpVAJdlMZ2Mp9PJarmq65qZOXFKEjQxAGmQAWRtDmxL2k5lJMfC9TYj7fx5l5UZKcZAxMYogDnFGILVqiy8d/ZgPn/nnQerzZpTmB3MY9dprSKBnCsnE+fzd8mkCk+Jk07MTEr1fR9iAqnEkGkOo/HonXff+/CHH965e+f1m/PxqHzw4N50OjfWberaGGutNEQQNyQMfrvjl/Y9mQg3x2gGyuLvEQtkggkjK1/+S5suquYhtAaQBxW0UqNRFTkdHR8rra4Xi9Y7rRWIrLVFVXGKMjGOlBgnmDkl+WRfSin1fVB94LZLrLo+amOPj0/e/+DDo6MjY8x4PL5///7p2R2Gcq4oykrWSwawUxMR5Tpr+0/kycLLD0Fl892RHJLgsZNZUrcnh7xEkH8sJTODWCn0facVxqPSGlUVtmtWy+Xi80efdX1fllVI0Vk79k4uk+fhRESkmDnEKK2e9x6knPfOe23MeDx58M47Dx8+nM9mm01zdHhYlFViRUppmz+TJoNnwuBWoSS6/A6SrPI/e7KIDQAyXszICIjShxXzjbFaK62VdbYofFl6763zRr6AUxS+LAvvHRGJLgwNt+N8N1JEVsuynQnM4GStPj484JSXsw4xyWN6xi6s2KpyRwPb+9tdwwRprMEgQHpcQrtCpCEnJAKDmVJCSrP59D3z3vL6ilO8e3bWNXXbtXXfa+dmVSVjEswc5JN2MabEkJ6Savs+MhOgfFFa5+7cvfuzn//Vhz/80HurFLy3x0cHR8e3fFHUdWOtt84BlDXB2abkAEQMScoaymdEGzehyDJmA8hpA3QZHAZLmMm5oyniZxB2VwHe2pjiZr0+PjkZjUcvXjwPMVRloYz1RVFWo9B3MUXmZIzSxhAhphRj1EoBlFJSbcfUNB0nKFJmOqre+973/vqv/xqkmqYZjUbzw0NjXN20RVHO5vO2bUP+LnpmRcQWUSVVeveMrejMDEJe0mxHue6GlCQFZCvmPF4iRpJvtL067wgaYhIxxk4TmF29mV9fXfzyl786mM1G43HXh7Isp9MxgJC/OxgAaGOU1mAYa7Uyxpqu77U11jvr7GQ6/bM/+/N7d+8xszHmYD6/fVry0OvTxmhtmYh5b1RDWGIMxgACyWtbIBC2rTfJGlHY4QOAxAYEiIGyiyilwMxgpUgpZQwZq50zztuicFVZjMYj59wWnvwNigFbUkSslDGaYQieUwKSVkpepEiRUlQmpbxaPoCtC77tx8PpvN3u3NArZzvNDnLjRNZpklyx6xPYOV94Nx6N5rPpbDp59+HD1WJxvbherpZ96FMMfdsSYK28u4YQQoyJSM1ms67vjXMXV9ek9GQ6+6M//uMff/TR/Qf3U4q//uTXShtrzXQyVsSK+PBgRrtlQ+RPfgjDnhCRymd3nixDzYMoGSR1w5Nzhj0FsoxRp7cqgn1PZhmyYgZQVpU1Zj6fjSeTFANzkn6+dZ6U0jEmTgCYwaS0UdYrow0p4sSRF+1y8+b80rnyhz/66Ozs7N69++Px5PJ60bStdc5aI7OmGNR3jdFkjRGmhRUCyRAuC1sAoDkH4UMK78DZIzkkEYq3TDIgRjzcQgASZHMyARlOBhJSDD0Zo4wmpDAeFV3bOWMUUYzBWMugGGNIKTG0ttrIZ6EtM2Litu1Wm83V1dXV9XXbdR/84Adnp3fOzs6M0Zv1WtYe0Ioof5AQSmnSBFJ8412onWq2JkC5ngOBQEp2SA5xU7f5WgEDg9As1YGcI4I2xjrtnXXeOGeL0hWFt9ZKIEbSJkvxnCEDQWmdb0AgsQatdG+MNMgppsRJzG24aFDKwI38bAdEhpStBLl8ISap824kAgQQBk8n5t60KYThPcdojJJv0BVlFTlZZxnMMV5fX4euAyglZpZYOqYQrheLpm0Xi2WMaTqbffCDH/zoxx+9/8EHzrk35+fL5erw+LiqRsbYmJK1bj6fJUbM32QS3nbK2KWBSJKx58l7mhmIxPp2x/l3l8bM4CQP4Ldpst1Ck/KYVVSErEhm533fdTH0ikhrZYyMYnKMUT7R2fd9iLHr4qJZxxiVUnXTdH1Uxp3euTufzeazeVWN+hCVUtY557ysA+V9ofOnrZmwc2MARAMUAzErYPDkgX5LmwzBCUBuznjn+iSGTQDAGV8CMn4EBvKSZimGtiVvjXdWAVVVxj6kKB8bjONxVY2qlGLoQt/1nHK/sGm7tumurq/rupF1/KfT+cHB0fHxrfn8QGvTdV3XB0ZyxhVFobXMvCBFBKUhPRbQjnkRi4X5t0jMA9i1ybRzlAFAqci2p+XE9lmVUmSMsc54b50zxmgni9crRdmPiQiip0y805AWDjx7ImW0DiFkT8798hxs7q7e8ZdFG7Z7VelO93vXiVq+Q9+ErScDQYwV1Pdd09QhxOVq9eLFCwK00fODg/F45K17+fLF1eXlcrnabOqu6zhx1/Xr9eb169fL1artuqIszs7unNy+fXbnblGUi+WyD6Goqvn8YDqbeV9sNhul1HQ2jXvrGcmWsFPWTmvyvHQ/hXnQ75YyBDeObxLvQuu9WjsjsEfMMUajdVmWbdu2bWtTIgJbM6oq5501tqoqrXXfd03TrDebi8uLq6ury8urrx8/Xi2XzvuqqkbV6OT26Z2zs7Pbt6+vrlfr9eryajqdTqsKRCml0Pfj8Xg6mcqoeN93EC0SIKZGBBYLEF/Ly31hB4XY8b6sOX17LFCJL+cTQxCSb5RLYIBlDH/nyaHXCt65svBKUd+VHGPbtClGrdXBwXx+MFOKurar13XbtKvV6uLq8vWbN+dvzq+urkOI1pqz07MHDx68995714vlcrFcLBZJhrW0dt5NJmNtjNHGWE1AApFSO6/cujGwr7ObGgQAmfOV/T/LCuTgmgbpt+gwIAMcRCR9Zm2skcldpORDyxJ75885EFFe73pLgtm2CACkyBoTU/6uaoqJpfqhDHO+aivNdzfF4rDbGicTQ9rkfWVjJxEAMIGJEUOfYlSEruvq2imlurZdLJdgGKP60HNKsSrLsnLWHR4eP3v2/MmTb7788svFYtl3fVlV84ODg8PD2XzufQGg6/ur6+uYki/KaiRf6zRFUXjvtVbee8q15z4zIjABgwUDNHjyFo1dRf0HE0M0LAO/24v3AdymcV3XRuvJZCJTAgrvN5t1XdcM6vuw2TR9jN45AM4XxvnEqJsupAtt7HR2IIu2V1WllHLWLhar9aaOMTnnfVGUZamNAVhrM5/NvPecUuF94RxjL7omyvX4tnEmhdwCZyAItK3m9ogGMAERes+XtyWyKF5uRDQcMWVDYiKOoffeWWO8swBaXcc+xJC6mGJMbdetNzUza1K+KAFVt12MvFpt1pt6Op3P5/PDw8PJdOqcffn6jTxj18YU1hZF4bwvyqoovHWyiKM3WpHWACUiMXVGNvntziBRlmmflExRgxgVAzuzZ+yuz85NUEoRgYiUkCatldJEgPSch6203XmOF0hQAwY0oYhIKSLSSrEVM0spMSd5EiD6EuAz8Y2+3w0x9zLtcgDAUC3tSS1Zdxdk6VOUh/Ku7401Wuv1arVaLFNMMcWYOMbYdr2z1mjjC+uLwlgbYwohMDAejY+Pb52enU2nUxCt1+u267oQnBcqvPfGGCc9bGOUVlprrbaxYuaQRAlAhimHVAPPclpoT6Q90/2tJAr+lhFsI5pdPq0VgYqiSPLpLKKUYt93DG67vq7rEIO1loiKojDGgEhrbY2dTqfW2tu3b0+mk8IXIYS2rperFQCJ24qiKMuyKAqltTVmMp0SqO87ZwutlfAxtMnZwzIJCNkkcg5g73BHb6cwi1uIIex5reQWcwYDYiwMSACXUozWWK2U1irGqBUFE+QTbTGGrutXq3Xf9dbYsqj6LoYAwBhTVNX0+PjW8fHx4cGh0qpt28X1tVLSDhdVVY6qUVGWzhfOe2uts1bMQxlZzEw0lKXIPLHsDp6cd4Eh37ZGGzJuz+yuHU6DBk8GxAuJaBfUy7EiGVojuYo4j1wB26iGtwUOtK0zt1wOVYjQHo/DT5aX96xy4JezNQyptN0ONMgOpu3N5e1KlldiQoixrevVctU0TdvUdSOfFOYUo1JkjCUiTqnvQ57NxABlExCGjJFFUUvnnLXOeeedeHThvXfOyozWLU9J2ksM+gGGXQka9gHJ4O6O92z+D6D9orZgChEBIeQv+vZ9H2MkovV6tVws+r5r2raua8iobtvJEKtSKqUUYkgpKaW880orAsUYm7ruu+7s9Mw62zTtbDabzqbj8dh7L0FKjCn0fVkWxlhgJxkBRLSDYl/N2zS+cTgQSSmEXWstKBJIqXw2YQ9qycY8IJMABrGoO0XpCnQh9CnGy8vL1XLZdz0IKcXr60WKbLTlhCQFEGmtnfMxxq5rQx+UJu89Sbp3pXwRr/Cj0XgymUiVpYhIZCYFRUSklCIiDBa1ZxVvH+akfYwAgHYJ++nbCylvSJE0v0REBOYcqQNiVyQ7e9H10BpD5MXuUDJLi5ux/bZ+eJ8JwQycOzY7yifeTtneSUgOtwpkMLMipJQ4EZFS2qSkSREp51zjnHW+67rQ90nFlGII+QOWnNgYo6yL8k1OsWatvJeIyfuidN4758bjsbTGQrJsvUAmFqeGp6fY1wmDMUScAzFjYH5LGfr/T7TDTErRWqeUZOxKOjzOuaIsZMKbtbYPfdM0TdOCoJWmIQwDQCp/yFdEKIpiPBqNJ2NjrDFmOplMxpOqKpXSYi3e2bIoxIp2HO1sKDPGjJv7mXbet03JcO0cmQEIyjuwocRT96v87B0M0Lad0KQSpZhIKTJGpxirqgKj7ztmxBC6LnZtz0zGGiINUIoMglIOiFpDKauNLrxXiow1hfdF6eVVZ9nuMQDx6iHeFU/O6nnbdb8l9tZ4Bspms6vPALFZ3DCXoYdN0j3PdYdctHfl8F2ob9O3LS+XkO/8rfOMG01tFnCnbEnabvcTGXi7TWbsriUmMCdiRSqpRDnKV0RKKYl8yrJqmqZrmxRjCH3XdU1Tt23bd8Faa41LzAxWikDKWluWpZM2uCitc0VRTCYT731Wz1Y83lVv+3a2T9/228F89xLlym9d+wfQ25gJe8ystTbGxBj7vnfOpVQ651KKMaW2ba2x0gLLu00xxhhlDvaOL6N1WZSj0agsSqXIWjuZTMbjkTEmpZRSApQxVlsHjimmfNkN2oLz1v5AUtPtU7bnXWKGew8g3trYW7gyAB7aCQmEWJFSTMw6Rh1jGFUjrXQIgROHGJQyTdN1XbDGASqEVG+aEAIbGOOcdUorGUCSNSt94cui8IXMr3L7QRkgRpA9mVRmOnPztie/TW9lICCHiHvEwLYi3HfmbcrvsKG96BrYsvW7SQp7u8jvuCzL+HbyjTaMALyl7Jut3FACizPK0wROKaUY+75PMc8A6bq2aZr1atl3ndRtKSWW+FJKI5I/Y7QT8kVRFNZ5a62TeNoM6yQNd9/O0/jtdBOPb1lqPngbr/9XtNPljVR51BT6ru/6rosSdMQUQuhDH/pQ13XTNCEEbbR3noi6vlutVsxsjJmMJ6OqKstS+lrMLNWZDOpa64yWj6Tnb77t35pA367Mv4veCljetp1BMPBeKg8pv4U4B9hCiRMncEocU0rd/9PemTVFbkNR+BxthoI8zv//i6lJOnS3Jd08XHlfcBdMJe3RVzRgbdZyj1Ybbvd4v8eU2raNbZuypJhjzNdr295ijJm0qkTrrLPWGIKSc3beBu+bl/DSNE3TOK9dpT7XpXciCBDd8pSaFQDS628TteGJU5Hlfsxya62SnQpf7F0D4GeJP8L63cduOuqNxczyGa4AAIYUiFCYWf5JuoiIMcZYkWytMYaSU/Qe0A0DArjf29hGmvJ2STfVtN67EHR2HXRuqVvBM5M9xiiKdtSYVuJBs99kPTL78wXSWRtTTCnpt5BCztl5F0JIORka6yyAEEPwARAa02hP1rwYPXWxxntPGu9prSWZJeeUU0reB93xGt17crXHvOSTS70Yy3hw3aKzD6LENKDQWKFhZkPvXErp+nEl+Baatk2XywfEegeIscYbwyzZOdc0nga6X+i8C9754EMIPnjniuA5dGLEZGWgeVAN8zPRsP82ugbnJd/i80AjJS9ug2UVj5h7rZSFXU7nHiOKjLfuAqCvBYKCDNLqu3OAA3LKZBbJAAlaY3OKWcQa3SUwl8vl+nHVBaQPAQRAEVGXpml0nTyeR+mQrtnez9l29ez5fCMknXPWmpydyynFGF3ZE2xjfHt7f397B9ne29vtmlIKr82PHz9IxhgvlwtAkqFpdL+vvd8BvL6+xpTa9h5jgghJ5+ctKMNItc1ktfUAajGbkWd+hPaTQug/C4K++hhzFnl//+Ny+fjzz59N8+L9i3MBAt1KCU14fX0xZBvb6/Uf73WP02ifbo011pD6OnJ/v75I+rOYdzHQPTtf48Hg2xBq0zPn8fVehU4pweYR+sT6X5bpEQcKRUBDCcpcRkQfiBL9VSSnlK4fHylFEXRdKXWMMqbsAAK6GWiNtc46570OxWY4cMKoTg5Z7LxQy8IcSOLLSM5Z+yBd5caO1AHAubL8I5lSctb5oAc51hiTcwZgrdM0tENjORGZjsn4tI/rWNHz4LKsKgDYm1oDkD5ev2tUHNX8BCISY8opex9u19tfP/82xhljjdE3/yVnsdZYa0nknFNKTRN88OxPd0w3j2L5rFGysZvbLfoiHOHzUCtKVtRVawaLlFbjbN+tTwxd5Y/CbkdbY5zUgpyv11tKUZPsMj+YXOk8aYx1ZZJty3n9IcE+D9ItofXlgZyTiD5RYMvevLFafKN/QnSXLSP5JgisNelKg8wCCSAYFnBjX/ZfsY33W9uZxPw2fezQBF2AjP1+JbuWPKCZ+DwrX1JyH3M1zIhxcM476e1oG8hm+aUc+w4O5ehMm7BfwGp3S0VDnkzJSkpJBxyFpDFl9qhzkHEN7LBlJN9EaZVP0IacIKUxh8sedvumLM+/CgD9MQnWr3hN/zQay+dxy3yUsS62GPK0z2mU3Kcy9ZLOZZJXfdJicuMjBv106GRbuvk2ABWz6Tb2jpd6y06+zNEMdIyyQWAwpln2CEDA8hdOiufMbDG3XI00ufylHKzSQ/k4n5I3GBeTnDkAD9j0k6JKBo6Ow8/AUpljOquc+0+n2DtVse3zP2TlFGrMvkS33BdwkPH30CcIQH+dN9fQYNTPqNsRmT+u8Bvw6CD81Ai0qyake6ClMxLd8epD9lVCstjnc1bRppKnWpmz9D1Q+gNBHmCUGkv7TJmd1Y3vzmX+T88ZNazNqOVatGfx7MZkynBaNAlVrjVs7/p0bM6ufyGP9wFfpbTlzLVyGrSBl4b1SJOrEJ62v9sckyuVZ+ZxQT6thpX/YkyuVL6fVTN+bnE+xPzBnUrlOZmJ9sGp9fNTZ9eV0/B7SXdGHZMrlTNQlVypnIGq5ErlDFQlVypnoCq5UjkDVcmVyhmoSq5UzkBVcqVyBv4FGixbNWz+ERIAAAAASUVORK5CYII=;" vertex="1" parent="1">
          <mxGeometry x="380" y="150" width="323" height="336" as="geometry" />
        </mxCell>
        <mxCell id="GAHFu2KUQJFKBcCSpzko-2" value="" style="shape=flexArrow;endArrow=classic;html=1;rounded=0;entryX=0.5;entryY=0;entryDx=0;entryDy=0;fillColor=#dae8fc;strokeColor=#6c8ebf;" edge="1" parent="1" target="GAHFu2KUQJFKBcCSpzko-5">
          <mxGeometry width="50" height="50" relative="1" as="geometry">
            <mxPoint x="450" y="480" as="sourcePoint" />
            <mxPoint x="370" y="530" as="targetPoint" />
            <Array as="points">
              <mxPoint x="450" y="500" />
              <mxPoint x="370" y="500" />
            </Array>
          </mxGeometry>
        </mxCell>
        <mxCell id="GAHFu2KUQJFKBcCSpzko-3" value="" style="shape=flexArrow;endArrow=classic;html=1;rounded=0;fillColor=#dae8fc;strokeColor=#6c8ebf;" edge="1" parent="1">
          <mxGeometry width="50" height="50" relative="1" as="geometry">
            <mxPoint x="541" y="480" as="sourcePoint" />
            <mxPoint x="542" y="540" as="targetPoint" />
          </mxGeometry>
        </mxCell>
        <mxCell id="GAHFu2KUQJFKBcCSpzko-4" value="" style="shape=flexArrow;endArrow=classic;html=1;rounded=0;fillColor=#dae8fc;strokeColor=#6c8ebf;" edge="1" parent="1">
          <mxGeometry width="50" height="50" relative="1" as="geometry">
            <mxPoint x="630" y="480" as="sourcePoint" />
            <mxPoint x="710" y="540" as="targetPoint" />
            <Array as="points">
              <mxPoint x="630" y="500" />
              <mxPoint x="710" y="500" />
            </Array>
          </mxGeometry>
        </mxCell>
        <mxCell id="GAHFu2KUQJFKBcCSpzko-5" value="&lt;font style=&quot;font-size: 14px;&quot;&gt;$$\texttt{V}_\texttt{x}\rightarrow\text{A}$$&lt;/font&gt;" style="text;html=1;align=center;verticalAlign=middle;whiteSpace=wrap;rounded=0;" vertex="1" parent="1">
          <mxGeometry x="340" y="540" width="60" height="30" as="geometry" />
        </mxCell>
        <mxCell id="GAHFu2KUQJFKBcCSpzko-6" value="&lt;font style=&quot;font-size: 14px;&quot;&gt;$$\texttt{V}_\texttt{y}\rightarrow\text{A}$$&lt;/font&gt;" style="text;html=1;align=center;verticalAlign=middle;whiteSpace=wrap;rounded=0;" vertex="1" parent="1">
          <mxGeometry x="511.5" y="540" width="60" height="30" as="geometry" />
        </mxCell>
        <mxCell id="GAHFu2KUQJFKBcCSpzko-8" value="&lt;font style=&quot;font-size: 14px;&quot;&gt;$$\text{Test Signals}$$&lt;/font&gt;" style="text;html=1;align=center;verticalAlign=middle;whiteSpace=wrap;rounded=0;" vertex="1" parent="1">
          <mxGeometry x="680" y="540" width="60" height="30" as="geometry" />
        </mxCell>
      </root>
    </mxGraphModel>
  </diagram>
</mxfile>
